<svg  version="1.1" xmlns="http://www.w3.org/2000/svg">
<polygon points="0,0 200,0 200,600 0,600 " stroke="black" fill="red" stroke-width="0.1" />
<polygon points="0,30 1.2,21.6 2.4,18.2424 3.6,15.7508 4.8,13.7224 6,12 7.2,10.5023 8.4,9.18078 9.6,8.00364 10.8,6.94875 12,6 13.2,5.14522 14.4,4.37501 15.6,3.68195 16.8,3.06007 18,2.50455 19.2,2.01143 20.4,1.57747 21.6,1.2 22.8,0.876813 24,0.606123 25.2,0.38649 26.4,0.216783 27.6,0.0961541 28.8,0.0240096 30,0 38.4,1.2 41.7576,2.4 44.2492,3.6 46.2776,4.8 48,6 49.4977,7.2 50.8192,8.4 51.9964,9.6 53.0512,10.8 54,12 54.8548,13.2 55.625,14.4 56.3181,15.6 56.9399,16.8 57.4955,18 57.9886,19.2 58.4225,20.4 58.8,21.6 59.1232,22.8 59.3939,24 59.6135,25.2 59.7832,26.4 59.9038,27.6 59.976,28.8 60,30 58.8,38.4 57.6,41.7576 56.4,44.2492 55.2,46.2776 54,48 52.8,49.4977 51.6,50.8192 50.4,51.9964 49.2,53.0512 48,54 46.8,54.8548 45.6,55.625 44.4,56.3181 43.2,56.9399 42,57.4955 40.8,57.9886 39.6,58.4225 38.4,58.8 37.2,59.1232 36,59.3939 34.8,59.6135 33.6,59.7832 32.4,59.9038 31.2,59.976 30,60 21.6,58.8 18.2424,57.6 15.7508,56.4 13.7224,55.2 12,54 10.5023,52.8 9.18078,51.6 8.00364,50.4 6.94875,49.2 6,48 5.14522,46.8 4.37501,45.6 3.68195,44.4 3.06007,43.2 2.50455,42 2.01143,40.8 1.57747,39.6 1.2,38.4 0.876813,37.2 0.606123,36 0.38649,34.8 0.216783,33.6 0.0961541,32.4 0.0240096,31.2 " stroke="black" fill="green" stroke-width="0.1" />
<polygon points="60,30 61.2,21.6 62.4,18.2424 63.6,15.7508 64.8,13.7224 66,12 67.2,10.5023 68.4,9.18078 69.6,8.00364 70.8,6.94875 72,6 73.2,5.14522 74.4,4.37501 75.6,3.68195 76.8,3.06007 78,2.50455 79.2,2.01143 80.4,1.57747 81.6,1.2 82.8,0.876813 84,0.606123 85.2,0.38649 86.4,0.216783 87.6,0.0961541 88.8,0.0240096 90,0 98.4,1.2 101.758,2.4 104.249,3.6 106.278,4.8 108,6 109.498,7.2 110.819,8.4 111.996,9.6 113.051,10.8 114,12 114.855,13.2 115.625,14.4 116.318,15.6 116.94,16.8 117.495,18 117.989,19.2 118.423,20.4 118.8,21.6 119.123,22.8 119.394,24 119.614,25.2 119.783,26.4 119.904,27.6 119.976,28.8 120,30 118.8,38.4 117.6,41.7576 116.4,44.2492 115.2,46.2776 114,48 112.8,49.4977 111.6,50.8192 110.4,51.9964 109.2,53.0512 108,54 106.8,54.8548 105.6,55.625 104.4,56.3181 103.2,56.9399 102,57.4955 100.8,57.9886 99.6,58.4225 98.4,58.8 97.2,59.1232 96,59.3939 94.8,59.6135 93.6,59.7832 92.4,59.9038 91.2,59.976 90,60 81.6,58.8 78.2424,57.6 75.7508,56.4 73.7224,55.2 72,54 70.5023,52.8 69.1808,51.6 68.0036,50.4 66.9488,49.2 66,48 65.1452,46.8 64.375,45.6 63.6819,44.4 63.0601,43.2 62.5045,42 62.0114,40.8 61.5775,39.6 61.2,38.4 60.8768,37.2 60.6061,36 60.3865,34.8 60.2168,33.6 60.0962,32.4 60.024,31.2 " stroke="black" fill="green" stroke-width="0.1" />
<polygon points="120,30 121.2,21.6 122.4,18.2424 123.6,15.7508 124.8,13.7224 126,12 127.2,10.5023 128.4,9.18078 129.6,8.00364 130.8,6.94875 132,6 133.2,5.14522 134.4,4.37501 135.6,3.68195 136.8,3.06007 138,2.50455 139.2,2.01143 140.4,1.57747 141.6,1.2 142.8,0.876813 144,0.606123 145.2,0.38649 146.4,0.216783 147.6,0.0961541 148.8,0.0240096 150,0 158.4,1.2 161.758,2.4 164.249,3.6 166.278,4.8 168,6 169.498,7.2 170.819,8.4 171.996,9.6 173.051,10.8 174,12 174.855,13.2 175.625,14.4 176.318,15.6 176.94,16.8 177.495,18 177.989,19.2 178.423,20.4 178.8,21.6 179.123,22.8 179.394,24 179.614,25.2 179.783,26.4 179.904,27.6 179.976,28.8 180,30 178.8,38.4 177.6,41.7576 176.4,44.2492 175.2,46.2776 174,48 172.8,49.4977 171.6,50.8192 170.4,51.9964 169.2,53.0512 168,54 166.8,54.8548 165.6,55.625 164.4,56.3181 163.2,56.9399 162,57.4955 160.8,57.9886 159.6,58.4225 158.4,58.8 157.2,59.1232 156,59.3939 154.8,59.6135 153.6,59.7832 152.4,59.9038 151.2,59.976 150,60 141.6,58.8 138.242,57.6 135.751,56.4 133.722,55.2 132,54 130.502,52.8 129.181,51.6 128.004,50.4 126.949,49.2 126,48 125.145,46.8 124.375,45.6 123.682,44.4 123.06,43.2 122.505,42 122.011,40.8 121.577,39.6 121.2,38.4 120.877,37.2 120.606,36 120.386,34.8 120.217,33.6 120.096,32.4 120.024,31.2 " stroke="black" fill="green" stroke-width="0.1" />
<polygon points="0,90 1.2,81.6 2.4,78.2424 3.6,75.7508 4.8,73.7224 6,72 7.2,70.5023 8.4,69.1808 9.6,68.0036 10.8,66.9488 12,66 13.2,65.1452 14.4,64.375 15.6,63.6819 16.8,63.0601 18,62.5045 19.2,62.0114 20.4,61.5775 21.6,61.2 22.8,60.8768 24,60.6061 25.2,60.3865 26.4,60.2168 27.6,60.0962 28.8,60.024 30,60 38.4,61.2 41.7576,62.4 44.2492,63.6 46.2776,64.8 48,66 49.4977,67.2 50.8192,68.4 51.9964,69.6 53.0512,70.8 54,72 54.8548,73.2 55.625,74.4 56.3181,75.6 56.9399,76.8 57.4955,78 57.9886,79.2 58.4225,80.4 58.8,81.6 59.1232,82.8 59.3939,84 59.6135,85.2 59.7832,86.4 59.9038,87.6 59.976,88.8 60,90 58.8,98.4 57.6,101.758 56.4,104.249 55.2,106.278 54,108 52.8,109.498 51.6,110.819 50.4,111.996 49.2,113.051 48,114 46.8,114.855 45.6,115.625 44.4,116.318 43.2,116.94 42,117.495 40.8,117.989 39.6,118.423 38.4,118.8 37.2,119.123 36,119.394 34.8,119.614 33.6,119.783 32.4,119.904 31.2,119.976 30,120 21.6,118.8 18.2424,117.6 15.7508,116.4 13.7224,115.2 12,114 10.5023,112.8 9.18078,111.6 8.00364,110.4 6.94875,109.2 6,108 5.14522,106.8 4.37501,105.6 3.68195,104.4 3.06007,103.2 2.50455,102 2.01143,100.8 1.57747,99.6 1.2,98.4 0.876813,97.2 0.606123,96 0.38649,94.8 0.216783,93.6 0.0961541,92.4 0.0240096,91.2 " stroke="black" fill="green" stroke-width="0.1" />
<polygon points="60,90 61.2,81.6 62.4,78.2424 63.6,75.7508 64.8,73.7224 66,72 67.2,70.5023 68.4,69.1808 69.6,68.0036 70.8,66.9488 72,66 73.2,65.1452 74.4,64.375 75.6,63.6819 76.8,63.0601 78,62.5045 79.2,62.0114 80.4,61.5775 81.6,61.2 82.8,60.8768 84,60.6061 85.2,60.3865 86.4,60.2168 87.6,60.0962 88.8,60.024 90,60 98.4,61.2 101.758,62.4 104.249,63.6 106.278,64.8 108,66 109.498,67.2 110.819,68.4 111.996,69.6 113.051,70.8 114,72 114.855,73.2 115.625,74.4 116.318,75.6 116.94,76.8 117.495,78 117.989,79.2 118.423,80.4 118.8,81.6 119.123,82.8 119.394,84 119.614,85.2 119.783,86.4 119.904,87.6 119.976,88.8 120,90 118.8,98.4 117.6,101.758 116.4,104.249 115.2,106.278 114,108 112.8,109.498 111.6,110.819 110.4,111.996 109.2,113.051 108,114 106.8,114.855 105.6,115.625 104.4,116.318 103.2,116.94 102,117.495 100.8,117.989 99.6,118.423 98.4,118.8 97.2,119.123 96,119.394 94.8,119.614 93.6,119.783 92.4,119.904 91.2,119.976 90,120 81.6,118.8 78.2424,117.6 75.7508,116.4 73.7224,115.2 72,114 70.5023,112.8 69.1808,111.6 68.0036,110.4 66.9488,109.2 66,108 65.1452,106.8 64.375,105.6 63.6819,104.4 63.0601,103.2 62.5045,102 62.0114,100.8 61.5775,99.6 61.2,98.4 60.8768,97.2 60.6061,96 60.3865,94.8 60.2168,93.6 60.0962,92.4 60.024,91.2 " stroke="black" fill="green" stroke-width="0.1" />
<polygon points="120,90 121.2,81.6 122.4,78.2424 123.6,75.7508 124.8,73.7224 126,72 127.2,70.5023 128.4,69.1808 129.6,68.0036 130.8,66.9488 132,66 133.2,65.1452 134.4,64.375 135.6,63.6819 136.8,63.0601 138,62.5045 139.2,62.0114 140.4,61.5775 141.6,61.2 142.8,60.8768 144,60.6061 145.2,60.3865 146.4,60.2168 147.6,60.0962 148.8,60.024 150,60 158.4,61.2 161.758,62.4 164.249,63.6 166.278,64.8 168,66 169.498,67.2 170.819,68.4 171.996,69.6 173.051,70.8 174,72 174.855,73.2 175.625,74.4 176.318,75.6 176.94,76.8 177.495,78 177.989,79.2 178.423,80.4 178.8,81.6 179.123,82.8 179.394,84 179.614,85.2 179.783,86.4 179.904,87.6 179.976,88.8 180,90 178.8,98.4 177.6,101.758 176.4,104.249 175.2,106.278 174,108 172.8,109.498 171.6,110.819 170.4,111.996 169.2,113.051 168,114 166.8,114.855 165.6,115.625 164.4,116.318 163.2,116.94 162,117.495 160.8,117.989 159.6,118.423 158.4,118.8 157.2,119.123 156,119.394 154.8,119.614 153.6,119.783 152.4,119.904 151.2,119.976 150,120 141.6,118.8 138.242,117.6 135.751,116.4 133.722,115.2 132,114 130.502,112.8 129.181,111.6 128.004,110.4 126.949,109.2 126,108 125.145,106.8 124.375,105.6 123.682,104.4 123.06,103.2 122.505,102 122.011,100.8 121.577,99.6 121.2,98.4 120.877,97.2 120.606,96 120.386,94.8 120.217,93.6 120.096,92.4 120.024,91.2 " stroke="black" fill="green" stroke-width="0.1" />
<polygon points="0,150 1.2,141.6 2.4,138.242 3.6,135.751 4.8,133.722 6,132 7.2,130.502 8.4,129.181 9.6,128.004 10.8,126.949 12,126 13.2,125.145 14.4,124.375 15.6,123.682 16.8,123.06 18,122.505 19.2,122.011 20.4,121.577 21.6,121.2 22.8,120.877 24,120.606 25.2,120.386 26.4,120.217 27.6,120.096 28.8,120.024 30,120 38.4,121.2 41.7576,122.4 44.2492,123.6 46.2776,124.8 48,126 49.4977,127.2 50.8192,128.4 51.9964,129.6 53.0512,130.8 54,132 54.8548,133.2 55.625,134.4 56.3181,135.6 56.9399,136.8 57.4955,138 57.9886,139.2 58.4225,140.4 58.8,141.6 59.1232,142.8 59.3939,144 59.6135,145.2 59.7832,146.4 59.9038,147.6 59.976,148.8 60,150 58.8,158.4 57.6,161.758 56.4,164.249 55.2,166.278 54,168 52.8,169.498 51.6,170.819 50.4,171.996 49.2,173.051 48,174 46.8,174.855 45.6,175.625 44.4,176.318 43.2,176.94 42,177.495 40.8,177.989 39.6,178.423 38.4,178.8 37.2,179.123 36,179.394 34.8,179.614 33.6,179.783 32.4,179.904 31.2,179.976 30,180 21.6,178.8 18.2424,177.6 15.7508,176.4 13.7224,175.2 12,174 10.5023,172.8 9.18078,171.6 8.00364,170.4 6.94875,169.2 6,168 5.14522,166.8 4.37501,165.6 3.68195,164.4 3.06007,163.2 2.50455,162 2.01143,160.8 1.57747,159.6 1.2,158.4 0.876813,157.2 0.606123,156 0.38649,154.8 0.216783,153.6 0.0961541,152.4 0.0240096,151.2 " stroke="black" fill="green" stroke-width="0.1" />
<polygon points="60,150 61.2,141.6 62.4,138.242 63.6,135.751 64.8,133.722 66,132 67.2,130.502 68.4,129.181 69.6,128.004 70.8,126.949 72,126 73.2,125.145 74.4,124.375 75.6,123.682 76.8,123.06 78,122.505 79.2,122.011 80.4,121.577 81.6,121.2 82.8,120.877 84,120.606 85.2,120.386 86.4,120.217 87.6,120.096 88.8,120.024 90,120 98.4,121.2 101.758,122.4 104.249,123.6 106.278,124.8 108,126 109.498,127.2 110.819,128.4 111.996,129.6 113.051,130.8 114,132 114.855,133.2 115.625,134.4 116.318,135.6 116.94,136.8 117.495,138 117.989,139.2 118.423,140.4 118.8,141.6 119.123,142.8 119.394,144 119.614,145.2 119.783,146.4 119.904,147.6 119.976,148.8 120,150 118.8,158.4 117.6,161.758 116.4,164.249 115.2,166.278 114,168 112.8,169.498 111.6,170.819 110.4,171.996 109.2,173.051 108,174 106.8,174.855 105.6,175.625 104.4,176.318 103.2,176.94 102,177.495 100.8,177.989 99.6,178.423 98.4,178.8 97.2,179.123 96,179.394 94.8,179.614 93.6,179.783 92.4,179.904 91.2,179.976 90,180 81.6,178.8 78.2424,177.6 75.7508,176.4 73.7224,175.2 72,174 70.5023,172.8 69.1808,171.6 68.0036,170.4 66.9488,169.2 66,168 65.1452,166.8 64.375,165.6 63.6819,164.4 63.0601,163.2 62.5045,162 62.0114,160.8 61.5775,159.6 61.2,158.4 60.8768,157.2 60.6061,156 60.3865,154.8 60.2168,153.6 60.0962,152.4 60.024,151.2 " stroke="black" fill="green" stroke-width="0.1" />
<polygon points="120,150 121.2,141.6 122.4,138.242 123.6,135.751 124.8,133.722 126,132 127.2,130.502 128.4,129.181 129.6,128.004 130.8,126.949 132,126 133.2,125.145 134.4,124.375 135.6,123.682 136.8,123.06 138,122.505 139.2,122.011 140.4,121.577 141.6,121.2 142.8,120.877 144,120.606 145.2,120.386 146.4,120.217 147.6,120.096 148.8,120.024 150,120 158.4,121.2 161.758,122.4 164.249,123.6 166.278,124.8 168,126 169.498,127.2 170.819,128.4 171.996,129.6 173.051,130.8 174,132 174.855,133.2 175.625,134.4 176.318,135.6 176.94,136.8 177.495,138 177.989,139.2 178.423,140.4 178.8,141.6 179.123,142.8 179.394,144 179.614,145.2 179.783,146.4 179.904,147.6 179.976,148.8 180,150 178.8,158.4 177.6,161.758 176.4,164.249 175.2,166.278 174,168 172.8,169.498 171.6,170.819 170.4,171.996 169.2,173.051 168,174 166.8,174.855 165.6,175.625 164.4,176.318 163.2,176.94 162,177.495 160.8,177.989 159.6,178.423 158.4,178.8 157.2,179.123 156,179.394 154.8,179.614 153.6,179.783 152.4,179.904 151.2,179.976 150,180 141.6,178.8 138.242,177.6 135.751,176.4 133.722,175.2 132,174 130.502,172.8 129.181,171.6 128.004,170.4 126.949,169.2 126,168 125.145,166.8 124.375,165.6 123.682,164.4 123.06,163.2 122.505,162 122.011,160.8 121.577,159.6 121.2,158.4 120.877,157.2 120.606,156 120.386,154.8 120.217,153.6 120.096,152.4 120.024,151.2 " stroke="black" fill="green" stroke-width="0.1" />
<polygon points="0,210 1.2,201.6 2.4,198.242 3.6,195.751 4.8,193.722 6,192 7.2,190.502 8.4,189.181 9.6,188.004 10.8,186.949 12,186 13.2,185.145 14.4,184.375 15.6,183.682 16.8,183.06 18,182.505 19.2,182.011 20.4,181.577 21.6,181.2 22.8,180.877 24,180.606 25.2,180.386 26.4,180.217 27.6,180.096 28.8,180.024 30,180 38.4,181.2 41.7576,182.4 44.2492,183.6 46.2776,184.8 48,186 49.4977,187.2 50.8192,188.4 51.9964,189.6 53.0512,190.8 54,192 54.8548,193.2 55.625,194.4 56.3181,195.6 56.9399,196.8 57.4955,198 57.9886,199.2 58.4225,200.4 58.8,201.6 59.1232,202.8 59.3939,204 59.6135,205.2 59.7832,206.4 59.9038,207.6 59.976,208.8 60,210 58.8,218.4 57.6,221.758 56.4,224.249 55.2,226.278 54,228 52.8,229.498 51.6,230.819 50.4,231.996 49.2,233.051 48,234 46.8,234.855 45.6,235.625 44.4,236.318 43.2,236.94 42,237.495 40.8,237.989 39.6,238.423 38.4,238.8 37.2,239.123 36,239.394 34.8,239.614 33.6,239.783 32.4,239.904 31.2,239.976 30,240 21.6,238.8 18.2424,237.6 15.7508,236.4 13.7224,235.2 12,234 10.5023,232.8 9.18078,231.6 8.00364,230.4 6.94875,229.2 6,228 5.14522,226.8 4.37501,225.6 3.68195,224.4 3.06007,223.2 2.50455,222 2.01143,220.8 1.57747,219.6 1.2,218.4 0.876813,217.2 0.606123,216 0.38649,214.8 0.216783,213.6 0.0961541,212.4 0.0240096,211.2 " stroke="black" fill="green" stroke-width="0.1" />
<polygon points="60,210 61.2,201.6 62.4,198.242 63.6,195.751 64.8,193.722 66,192 67.2,190.502 68.4,189.181 69.6,188.004 70.8,186.949 72,186 73.2,185.145 74.4,184.375 75.6,183.682 76.8,183.06 78,182.505 79.2,182.011 80.4,181.577 81.6,181.2 82.8,180.877 84,180.606 85.2,180.386 86.4,180.217 87.6,180.096 88.8,180.024 90,180 98.4,181.2 101.758,182.4 104.249,183.6 106.278,184.8 108,186 109.498,187.2 110.819,188.4 111.996,189.6 113.051,190.8 114,192 114.855,193.2 115.625,194.4 116.318,195.6 116.94,196.8 117.495,198 117.989,199.2 118.423,200.4 118.8,201.6 119.123,202.8 119.394,204 119.614,205.2 119.783,206.4 119.904,207.6 119.976,208.8 120,210 118.8,218.4 117.6,221.758 116.4,224.249 115.2,226.278 114,228 112.8,229.498 111.6,230.819 110.4,231.996 109.2,233.051 108,234 106.8,234.855 105.6,235.625 104.4,236.318 103.2,236.94 102,237.495 100.8,237.989 99.6,238.423 98.4,238.8 97.2,239.123 96,239.394 94.8,239.614 93.6,239.783 92.4,239.904 91.2,239.976 90,240 81.6,238.8 78.2424,237.6 75.7508,236.4 73.7224,235.2 72,234 70.5023,232.8 69.1808,231.6 68.0036,230.4 66.9488,229.2 66,228 65.1452,226.8 64.375,225.6 63.6819,224.4 63.0601,223.2 62.5045,222 62.0114,220.8 61.5775,219.6 61.2,218.4 60.8768,217.2 60.6061,216 60.3865,214.8 60.2168,213.6 60.0962,212.4 60.024,211.2 " stroke="black" fill="green" stroke-width="0.1" />
<polygon points="120,210 121.2,201.6 122.4,198.242 123.6,195.751 124.8,193.722 126,192 127.2,190.502 128.4,189.181 129.6,188.004 130.8,186.949 132,186 133.2,185.145 134.4,184.375 135.6,183.682 136.8,183.06 138,182.505 139.2,182.011 140.4,181.577 141.6,181.2 142.8,180.877 144,180.606 145.2,180.386 146.4,180.217 147.6,180.096 148.8,180.024 150,180 158.4,181.2 161.758,182.4 164.249,183.6 166.278,184.8 168,186 169.498,187.2 170.819,188.4 171.996,189.6 173.051,190.8 174,192 174.855,193.2 175.625,194.4 176.318,195.6 176.94,196.8 177.495,198 177.989,199.2 178.423,200.4 178.8,201.6 179.123,202.8 179.394,204 179.614,205.2 179.783,206.4 179.904,207.6 179.976,208.8 180,210 178.8,218.4 177.6,221.758 176.4,224.249 175.2,226.278 174,228 172.8,229.498 171.6,230.819 170.4,231.996 169.2,233.051 168,234 166.8,234.855 165.6,235.625 164.4,236.318 163.2,236.94 162,237.495 160.8,237.989 159.6,238.423 158.4,238.8 157.2,239.123 156,239.394 154.8,239.614 153.6,239.783 152.4,239.904 151.2,239.976 150,240 141.6,238.8 138.242,237.6 135.751,236.4 133.722,235.2 132,234 130.502,232.8 129.181,231.6 128.004,230.4 126.949,229.2 126,228 125.145,226.8 124.375,225.6 123.682,224.4 123.06,223.2 122.505,222 122.011,220.8 121.577,219.6 121.2,218.4 120.877,217.2 120.606,216 120.386,214.8 120.217,213.6 120.096,212.4 120.024,211.2 " stroke="black" fill="green" stroke-width="0.1" />
<polygon points="0,270 1.2,261.6 2.4,258.242 3.6,255.751 4.8,253.722 6,252 7.2,250.502 8.4,249.181 9.6,248.004 10.8,246.949 12,246 13.2,245.145 14.4,244.375 15.6,243.682 16.8,243.06 18,242.505 19.2,242.011 20.4,241.577 21.6,241.2 22.8,240.877 24,240.606 25.2,240.386 26.4,240.217 27.6,240.096 28.8,240.024 30,240 38.4,241.2 41.7576,242.4 44.2492,243.6 46.2776,244.8 48,246 49.4977,247.2 50.8192,248.4 51.9964,249.6 53.0512,250.8 54,252 54.8548,253.2 55.625,254.4 56.3181,255.6 56.9399,256.8 57.4955,258 57.9886,259.2 58.4225,260.4 58.8,261.6 59.1232,262.8 59.3939,264 59.6135,265.2 59.7832,266.4 59.9038,267.6 59.976,268.8 60,270 58.8,278.4 57.6,281.758 56.4,284.249 55.2,286.278 54,288 52.8,289.498 51.6,290.819 50.4,291.996 49.2,293.051 48,294 46.8,294.855 45.6,295.625 44.4,296.318 43.2,296.94 42,297.495 40.8,297.989 39.6,298.423 38.4,298.8 37.2,299.123 36,299.394 34.8,299.614 33.6,299.783 32.4,299.904 31.2,299.976 30,300 21.6,298.8 18.2424,297.6 15.7508,296.4 13.7224,295.2 12,294 10.5023,292.8 9.18078,291.6 8.00364,290.4 6.94875,289.2 6,288 5.14522,286.8 4.37501,285.6 3.68195,284.4 3.06007,283.2 2.50455,282 2.01143,280.8 1.57747,279.6 1.2,278.4 0.876813,277.2 0.606123,276 0.38649,274.8 0.216783,273.6 0.0961541,272.4 0.0240096,271.2 " stroke="black" fill="green" stroke-width="0.1" />
<polygon points="60,270 61.2,261.6 62.4,258.242 63.6,255.751 64.8,253.722 66,252 67.2,250.502 68.4,249.181 69.6,248.004 70.8,246.949 72,246 73.2,245.145 74.4,244.375 75.6,243.682 76.8,243.06 78,242.505 79.2,242.011 80.4,241.577 81.6,241.2 82.8,240.877 84,240.606 85.2,240.386 86.4,240.217 87.6,240.096 88.8,240.024 90,240 98.4,241.2 101.758,242.4 104.249,243.6 106.278,244.8 108,246 109.498,247.2 110.819,248.4 111.996,249.6 113.051,250.8 114,252 114.855,253.2 115.625,254.4 116.318,255.6 116.94,256.8 117.495,258 117.989,259.2 118.423,260.4 118.8,261.6 119.123,262.8 119.394,264 119.614,265.2 119.783,266.4 119.904,267.6 119.976,268.8 120,270 118.8,278.4 117.6,281.758 116.4,284.249 115.2,286.278 114,288 112.8,289.498 111.6,290.819 110.4,291.996 109.2,293.051 108,294 106.8,294.855 105.6,295.625 104.4,296.318 103.2,296.94 102,297.495 100.8,297.989 99.6,298.423 98.4,298.8 97.2,299.123 96,299.394 94.8,299.614 93.6,299.783 92.4,299.904 91.2,299.976 90,300 81.6,298.8 78.2424,297.6 75.7508,296.4 73.7224,295.2 72,294 70.5023,292.8 69.1808,291.6 68.0036,290.4 66.9488,289.2 66,288 65.1452,286.8 64.375,285.6 63.6819,284.4 63.0601,283.2 62.5045,282 62.0114,280.8 61.5775,279.6 61.2,278.4 60.8768,277.2 60.6061,276 60.3865,274.8 60.2168,273.6 60.0962,272.4 60.024,271.2 " stroke="black" fill="green" stroke-width="0.1" />
<polygon points="120,270 121.2,261.6 122.4,258.242 123.6,255.751 124.8,253.722 126,252 127.2,250.502 128.4,249.181 129.6,248.004 130.8,246.949 132,246 133.2,245.145 134.4,244.375 135.6,243.682 136.8,243.06 138,242.505 139.2,242.011 140.4,241.577 141.6,241.2 142.8,240.877 144,240.606 145.2,240.386 146.4,240.217 147.6,240.096 148.8,240.024 150,240 158.4,241.2 161.758,242.4 164.249,243.6 166.278,244.8 168,246 169.498,247.2 170.819,248.4 171.996,249.6 173.051,250.8 174,252 174.855,253.2 175.625,254.4 176.318,255.6 176.94,256.8 177.495,258 177.989,259.2 178.423,260.4 178.8,261.6 179.123,262.8 179.394,264 179.614,265.2 179.783,266.4 179.904,267.6 179.976,268.8 180,270 178.8,278.4 177.6,281.758 176.4,284.249 175.2,286.278 174,288 172.8,289.498 171.6,290.819 170.4,291.996 169.2,293.051 168,294 166.8,294.855 165.6,295.625 164.4,296.318 163.2,296.94 162,297.495 160.8,297.989 159.6,298.423 158.4,298.8 157.2,299.123 156,299.394 154.8,299.614 153.6,299.783 152.4,299.904 151.2,299.976 150,300 141.6,298.8 138.242,297.6 135.751,296.4 133.722,295.2 132,294 130.502,292.8 129.181,291.6 128.004,290.4 126.949,289.2 126,288 125.145,286.8 124.375,285.6 123.682,284.4 123.06,283.2 122.505,282 122.011,280.8 121.577,279.6 121.2,278.4 120.877,277.2 120.606,276 120.386,274.8 120.217,273.6 120.096,272.4 120.024,271.2 " stroke="black" fill="green" stroke-width="0.1" />
<polygon points="0,330 1.2,321.6 2.4,318.242 3.6,315.751 4.8,313.722 6,312 7.2,310.502 8.4,309.181 9.6,308.004 10.8,306.949 12,306 13.2,305.145 14.4,304.375 15.6,303.682 16.8,303.06 18,302.505 19.2,302.011 20.4,301.577 21.6,301.2 22.8,300.877 24,300.606 25.2,300.386 26.4,300.217 27.6,300.096 28.8,300.024 30,300 38.4,301.2 41.7576,302.4 44.2492,303.6 46.2776,304.8 48,306 49.4977,307.2 50.8192,308.4 51.9964,309.6 53.0512,310.8 54,312 54.8548,313.2 55.625,314.4 56.3181,315.6 56.9399,316.8 57.4955,318 57.9886,319.2 58.4225,320.4 58.8,321.6 59.1232,322.8 59.3939,324 59.6135,325.2 59.7832,326.4 59.9038,327.6 59.976,328.8 60,330 58.8,338.4 57.6,341.758 56.4,344.249 55.2,346.278 54,348 52.8,349.498 51.6,350.819 50.4,351.996 49.2,353.051 48,354 46.8,354.855 45.6,355.625 44.4,356.318 43.2,356.94 42,357.495 40.8,357.989 39.6,358.423 38.4,358.8 37.2,359.123 36,359.394 34.8,359.614 33.6,359.783 32.4,359.904 31.2,359.976 30,360 21.6,358.8 18.2424,357.6 15.7508,356.4 13.7224,355.2 12,354 10.5023,352.8 9.18078,351.6 8.00364,350.4 6.94875,349.2 6,348 5.14522,346.8 4.37501,345.6 3.68195,344.4 3.06007,343.2 2.50455,342 2.01143,340.8 1.57747,339.6 1.2,338.4 0.876813,337.2 0.606123,336 0.38649,334.8 0.216783,333.6 0.0961541,332.4 0.0240096,331.2 " stroke="black" fill="green" stroke-width="0.1" />
<polygon points="60,330 61.2,321.6 62.4,318.242 63.6,315.751 64.8,313.722 66,312 67.2,310.502 68.4,309.181 69.6,308.004 70.8,306.949 72,306 73.2,305.145 74.4,304.375 75.6,303.682 76.8,303.06 78,302.505 79.2,302.011 80.4,301.577 81.6,301.2 82.8,300.877 84,300.606 85.2,300.386 86.4,300.217 87.6,300.096 88.8,300.024 90,300 98.4,301.2 101.758,302.4 104.249,303.6 106.278,304.8 108,306 109.498,307.2 110.819,308.4 111.996,309.6 113.051,310.8 114,312 114.855,313.2 115.625,314.4 116.318,315.6 116.94,316.8 117.495,318 117.989,319.2 118.423,320.4 118.8,321.6 119.123,322.8 119.394,324 119.614,325.2 119.783,326.4 119.904,327.6 119.976,328.8 120,330 118.8,338.4 117.6,341.758 116.4,344.249 115.2,346.278 114,348 112.8,349.498 111.6,350.819 110.4,351.996 109.2,353.051 108,354 106.8,354.855 105.6,355.625 104.4,356.318 103.2,356.94 102,357.495 100.8,357.989 99.6,358.423 98.4,358.8 97.2,359.123 96,359.394 94.8,359.614 93.6,359.783 92.4,359.904 91.2,359.976 90,360 81.6,358.8 78.2424,357.6 75.7508,356.4 73.7224,355.2 72,354 70.5023,352.8 69.1808,351.6 68.0036,350.4 66.9488,349.2 66,348 65.1452,346.8 64.375,345.6 63.6819,344.4 63.0601,343.2 62.5045,342 62.0114,340.8 61.5775,339.6 61.2,338.4 60.8768,337.2 60.6061,336 60.3865,334.8 60.2168,333.6 60.0962,332.4 60.024,331.2 " stroke="black" fill="green" stroke-width="0.1" />
<polygon points="120,330 121.2,321.6 122.4,318.242 123.6,315.751 124.8,313.722 126,312 127.2,310.502 128.4,309.181 129.6,308.004 130.8,306.949 132,306 133.2,305.145 134.4,304.375 135.6,303.682 136.8,303.06 138,302.505 139.2,302.011 140.4,301.577 141.6,301.2 142.8,300.877 144,300.606 145.2,300.386 146.4,300.217 147.6,300.096 148.8,300.024 150,300 158.4,301.2 161.758,302.4 164.249,303.6 166.278,304.8 168,306 169.498,307.2 170.819,308.4 171.996,309.6 173.051,310.8 174,312 174.855,313.2 175.625,314.4 176.318,315.6 176.94,316.8 177.495,318 177.989,319.2 178.423,320.4 178.8,321.6 179.123,322.8 179.394,324 179.614,325.2 179.783,326.4 179.904,327.6 179.976,328.8 180,330 178.8,338.4 177.6,341.758 176.4,344.249 175.2,346.278 174,348 172.8,349.498 171.6,350.819 170.4,351.996 169.2,353.051 168,354 166.8,354.855 165.6,355.625 164.4,356.318 163.2,356.94 162,357.495 160.8,357.989 159.6,358.423 158.4,358.8 157.2,359.123 156,359.394 154.8,359.614 153.6,359.783 152.4,359.904 151.2,359.976 150,360 141.6,358.8 138.242,357.6 135.751,356.4 133.722,355.2 132,354 130.502,352.8 129.181,351.6 128.004,350.4 126.949,349.2 126,348 125.145,346.8 124.375,345.6 123.682,344.4 123.06,343.2 122.505,342 122.011,340.8 121.577,339.6 121.2,338.4 120.877,337.2 120.606,336 120.386,334.8 120.217,333.6 120.096,332.4 120.024,331.2 " stroke="black" fill="green" stroke-width="0.1" />
<polygon points="0,390 1.2,381.6 2.4,378.242 3.6,375.751 4.8,373.722 6,372 7.2,370.502 8.4,369.181 9.6,368.004 10.8,366.949 12,366 13.2,365.145 14.4,364.375 15.6,363.682 16.8,363.06 18,362.505 19.2,362.011 20.4,361.577 21.6,361.2 22.8,360.877 24,360.606 25.2,360.386 26.4,360.217 27.6,360.096 28.8,360.024 30,360 38.4,361.2 41.7576,362.4 44.2492,363.6 46.2776,364.8 48,366 49.4977,367.2 50.8192,368.4 51.9964,369.6 53.0512,370.8 54,372 54.8548,373.2 55.625,374.4 56.3181,375.6 56.9399,376.8 57.4955,378 57.9886,379.2 58.4225,380.4 58.8,381.6 59.1232,382.8 59.3939,384 59.6135,385.2 59.7832,386.4 59.9038,387.6 59.976,388.8 60,390 58.8,398.4 57.6,401.758 56.4,404.249 55.2,406.278 54,408 52.8,409.498 51.6,410.819 50.4,411.996 49.2,413.051 48,414 46.8,414.855 45.6,415.625 44.4,416.318 43.2,416.94 42,417.495 40.8,417.989 39.6,418.423 38.4,418.8 37.2,419.123 36,419.394 34.8,419.614 33.6,419.783 32.4,419.904 31.2,419.976 30,420 21.6,418.8 18.2424,417.6 15.7508,416.4 13.7224,415.2 12,414 10.5023,412.8 9.18078,411.6 8.00364,410.4 6.94875,409.2 6,408 5.14522,406.8 4.37501,405.6 3.68195,404.4 3.06007,403.2 2.50455,402 2.01143,400.8 1.57747,399.6 1.2,398.4 0.876813,397.2 0.606123,396 0.38649,394.8 0.216783,393.6 0.0961541,392.4 0.0240096,391.2 " stroke="black" fill="green" stroke-width="0.1" />
<polygon points="60,390 61.2,381.6 62.4,378.242 63.6,375.751 64.8,373.722 66,372 67.2,370.502 68.4,369.181 69.6,368.004 70.8,366.949 72,366 73.2,365.145 74.4,364.375 75.6,363.682 76.8,363.06 78,362.505 79.2,362.011 80.4,361.577 81.6,361.2 82.8,360.877 84,360.606 85.2,360.386 86.4,360.217 87.6,360.096 88.8,360.024 90,360 98.4,361.2 101.758,362.4 104.249,363.6 106.278,364.8 108,366 109.498,367.2 110.819,368.4 111.996,369.6 113.051,370.8 114,372 114.855,373.2 115.625,374.4 116.318,375.6 116.94,376.8 117.495,378 117.989,379.2 118.423,380.4 118.8,381.6 119.123,382.8 119.394,384 119.614,385.2 119.783,386.4 119.904,387.6 119.976,388.8 120,390 118.8,398.4 117.6,401.758 116.4,404.249 115.2,406.278 114,408 112.8,409.498 111.6,410.819 110.4,411.996 109.2,413.051 108,414 106.8,414.855 105.6,415.625 104.4,416.318 103.2,416.94 102,417.495 100.8,417.989 99.6,418.423 98.4,418.8 97.2,419.123 96,419.394 94.8,419.614 93.6,419.783 92.4,419.904 91.2,419.976 90,420 81.6,418.8 78.2424,417.6 75.7508,416.4 73.7224,415.2 72,414 70.5023,412.8 69.1808,411.6 68.0036,410.4 66.9488,409.2 66,408 65.1452,406.8 64.375,405.6 63.6819,404.4 63.0601,403.2 62.5045,402 62.0114,400.8 61.5775,399.6 61.2,398.4 60.8768,397.2 60.6061,396 60.3865,394.8 60.2168,393.6 60.0962,392.4 60.024,391.2 " stroke="black" fill="green" stroke-width="0.1" />
<polygon points="120,390 121.2,381.6 122.4,378.242 123.6,375.751 124.8,373.722 126,372 127.2,370.502 128.4,369.181 129.6,368.004 130.8,366.949 132,366 133.2,365.145 134.4,364.375 135.6,363.682 136.8,363.06 138,362.505 139.2,362.011 140.4,361.577 141.6,361.2 142.8,360.877 144,360.606 145.2,360.386 146.4,360.217 147.6,360.096 148.8,360.024 150,360 158.4,361.2 161.758,362.4 164.249,363.6 166.278,364.8 168,366 169.498,367.2 170.819,368.4 171.996,369.6 173.051,370.8 174,372 174.855,373.2 175.625,374.4 176.318,375.6 176.94,376.8 177.495,378 177.989,379.2 178.423,380.4 178.8,381.6 179.123,382.8 179.394,384 179.614,385.2 179.783,386.4 179.904,387.6 179.976,388.8 180,390 178.8,398.4 177.6,401.758 176.4,404.249 175.2,406.278 174,408 172.8,409.498 171.6,410.819 170.4,411.996 169.2,413.051 168,414 166.8,414.855 165.6,415.625 164.4,416.318 163.2,416.94 162,417.495 160.8,417.989 159.6,418.423 158.4,418.8 157.2,419.123 156,419.394 154.8,419.614 153.6,419.783 152.4,419.904 151.2,419.976 150,420 141.6,418.8 138.242,417.6 135.751,416.4 133.722,415.2 132,414 130.502,412.8 129.181,411.6 128.004,410.4 126.949,409.2 126,408 125.145,406.8 124.375,405.6 123.682,404.4 123.06,403.2 122.505,402 122.011,400.8 121.577,399.6 121.2,398.4 120.877,397.2 120.606,396 120.386,394.8 120.217,393.6 120.096,392.4 120.024,391.2 " stroke="black" fill="green" stroke-width="0.1" />
<polygon points="0,450 1.2,441.6 2.4,438.242 3.6,435.751 4.8,433.722 6,432 7.2,430.502 8.4,429.181 9.6,428.004 10.8,426.949 12,426 13.2,425.145 14.4,424.375 15.6,423.682 16.8,423.06 18,422.505 19.2,422.011 20.4,421.577 21.6,421.2 22.8,420.877 24,420.606 25.2,420.386 26.4,420.217 27.6,420.096 28.8,420.024 30,420 38.4,421.2 41.7576,422.4 44.2492,423.6 46.2776,424.8 48,426 49.4977,427.2 50.8192,428.4 51.9964,429.6 53.0512,430.8 54,432 54.8548,433.2 55.625,434.4 56.3181,435.6 56.9399,436.8 57.4955,438 57.9886,439.2 58.4225,440.4 58.8,441.6 59.1232,442.8 59.3939,444 59.6135,445.2 59.7832,446.4 59.9038,447.6 59.976,448.8 60,450 58.8,458.4 57.6,461.758 56.4,464.249 55.2,466.278 54,468 52.8,469.498 51.6,470.819 50.4,471.996 49.2,473.051 48,474 46.8,474.855 45.6,475.625 44.4,476.318 43.2,476.94 42,477.495 40.8,477.989 39.6,478.423 38.4,478.8 37.2,479.123 36,479.394 34.8,479.614 33.6,479.783 32.4,479.904 31.2,479.976 30,480 21.6,478.8 18.2424,477.6 15.7508,476.4 13.7224,475.2 12,474 10.5023,472.8 9.18078,471.6 8.00364,470.4 6.94875,469.2 6,468 5.14522,466.8 4.37501,465.6 3.68195,464.4 3.06007,463.2 2.50455,462 2.01143,460.8 1.57747,459.6 1.2,458.4 0.876813,457.2 0.606123,456 0.38649,454.8 0.216783,453.6 0.0961541,452.4 0.0240096,451.2 " stroke="black" fill="green" stroke-width="0.1" />
<polygon points="60,450 61.2,441.6 62.4,438.242 63.6,435.751 64.8,433.722 66,432 67.2,430.502 68.4,429.181 69.6,428.004 70.8,426.949 72,426 73.2,425.145 74.4,424.375 75.6,423.682 76.8,423.06 78,422.505 79.2,422.011 80.4,421.577 81.6,421.2 82.8,420.877 84,420.606 85.2,420.386 86.4,420.217 87.6,420.096 88.8,420.024 90,420 98.4,421.2 101.758,422.4 104.249,423.6 106.278,424.8 108,426 109.498,427.2 110.819,428.4 111.996,429.6 113.051,430.8 114,432 114.855,433.2 115.625,434.4 116.318,435.6 116.94,436.8 117.495,438 117.989,439.2 118.423,440.4 118.8,441.6 119.123,442.8 119.394,444 119.614,445.2 119.783,446.4 119.904,447.6 119.976,448.8 120,450 118.8,458.4 117.6,461.758 116.4,464.249 115.2,466.278 114,468 112.8,469.498 111.6,470.819 110.4,471.996 109.2,473.051 108,474 106.8,474.855 105.6,475.625 104.4,476.318 103.2,476.94 102,477.495 100.8,477.989 99.6,478.423 98.4,478.8 97.2,479.123 96,479.394 94.8,479.614 93.6,479.783 92.4,479.904 91.2,479.976 90,480 81.6,478.8 78.2424,477.6 75.7508,476.4 73.7224,475.2 72,474 70.5023,472.8 69.1808,471.6 68.0036,470.4 66.9488,469.2 66,468 65.1452,466.8 64.375,465.6 63.6819,464.4 63.0601,463.2 62.5045,462 62.0114,460.8 61.5775,459.6 61.2,458.4 60.8768,457.2 60.6061,456 60.3865,454.8 60.2168,453.6 60.0962,452.4 60.024,451.2 " stroke="black" fill="green" stroke-width="0.1" />
<polygon points="120,450 121.2,441.6 122.4,438.242 123.6,435.751 124.8,433.722 126,432 127.2,430.502 128.4,429.181 129.6,428.004 130.8,426.949 132,426 133.2,425.145 134.4,424.375 135.6,423.682 136.8,423.06 138,422.505 139.2,422.011 140.4,421.577 141.6,421.2 142.8,420.877 144,420.606 145.2,420.386 146.4,420.217 147.6,420.096 148.8,420.024 150,420 158.4,421.2 161.758,422.4 164.249,423.6 166.278,424.8 168,426 169.498,427.2 170.819,428.4 171.996,429.6 173.051,430.8 174,432 174.855,433.2 175.625,434.4 176.318,435.6 176.94,436.8 177.495,438 177.989,439.2 178.423,440.4 178.8,441.6 179.123,442.8 179.394,444 179.614,445.2 179.783,446.4 179.904,447.6 179.976,448.8 180,450 178.8,458.4 177.6,461.758 176.4,464.249 175.2,466.278 174,468 172.8,469.498 171.6,470.819 170.4,471.996 169.2,473.051 168,474 166.8,474.855 165.6,475.625 164.4,476.318 163.2,476.94 162,477.495 160.8,477.989 159.6,478.423 158.4,478.8 157.2,479.123 156,479.394 154.8,479.614 153.6,479.783 152.4,479.904 151.2,479.976 150,480 141.6,478.8 138.242,477.6 135.751,476.4 133.722,475.2 132,474 130.502,472.8 129.181,471.6 128.004,470.4 126.949,469.2 126,468 125.145,466.8 124.375,465.6 123.682,464.4 123.06,463.2 122.505,462 122.011,460.8 121.577,459.6 121.2,458.4 120.877,457.2 120.606,456 120.386,454.8 120.217,453.6 120.096,452.4 120.024,451.2 " stroke="black" fill="green" stroke-width="0.1" />
<polygon points="0,510 1.2,501.6 2.4,498.242 3.6,495.751 4.8,493.722 6,492 7.2,490.502 8.4,489.181 9.6,488.004 10.8,486.949 12,486 13.2,485.145 14.4,484.375 15.6,483.682 16.8,483.06 18,482.505 19.2,482.011 20.4,481.577 21.6,481.2 22.8,480.877 24,480.606 25.2,480.386 26.4,480.217 27.6,480.096 28.8,480.024 30,480 38.4,481.2 41.7576,482.4 44.2492,483.6 46.2776,484.8 48,486 49.4977,487.2 50.8192,488.4 51.9964,489.6 53.0512,490.8 54,492 54.8548,493.2 55.625,494.4 56.3181,495.6 56.9399,496.8 57.4955,498 57.9886,499.2 58.4225,500.4 58.8,501.6 59.1232,502.8 59.3939,504 59.6135,505.2 59.7832,506.4 59.9038,507.6 59.976,508.8 60,510 58.8,518.4 57.6,521.758 56.4,524.249 55.2,526.278 54,528 52.8,529.498 51.6,530.819 50.4,531.996 49.2,533.051 48,534 46.8,534.855 45.6,535.625 44.4,536.318 43.2,536.94 42,537.495 40.8,537.989 39.6,538.423 38.4,538.8 37.2,539.123 36,539.394 34.8,539.614 33.6,539.783 32.4,539.904 31.2,539.976 30,540 21.6,538.8 18.2424,537.6 15.7508,536.4 13.7224,535.2 12,534 10.5023,532.8 9.18078,531.6 8.00364,530.4 6.94875,529.2 6,528 5.14522,526.8 4.37501,525.6 3.68195,524.4 3.06007,523.2 2.50455,522 2.01143,520.8 1.57747,519.6 1.2,518.4 0.876813,517.2 0.606123,516 0.38649,514.8 0.216783,513.6 0.0961541,512.4 0.0240096,511.2 " stroke="black" fill="green" stroke-width="0.1" />
<polygon points="60,510 61.2,501.6 62.4,498.242 63.6,495.751 64.8,493.722 66,492 67.2,490.502 68.4,489.181 69.6,488.004 70.8,486.949 72,486 73.2,485.145 74.4,484.375 75.6,483.682 76.8,483.06 78,482.505 79.2,482.011 80.4,481.577 81.6,481.2 82.8,480.877 84,480.606 85.2,480.386 86.4,480.217 87.6,480.096 88.8,480.024 90,480 98.4,481.2 101.758,482.4 104.249,483.6 106.278,484.8 108,486 109.498,487.2 110.819,488.4 111.996,489.6 113.051,490.8 114,492 114.855,493.2 115.625,494.4 116.318,495.6 116.94,496.8 117.495,498 117.989,499.2 118.423,500.4 118.8,501.6 119.123,502.8 119.394,504 119.614,505.2 119.783,506.4 119.904,507.6 119.976,508.8 120,510 118.8,518.4 117.6,521.758 116.4,524.249 115.2,526.278 114,528 112.8,529.498 111.6,530.819 110.4,531.996 109.2,533.051 108,534 106.8,534.855 105.6,535.625 104.4,536.318 103.2,536.94 102,537.495 100.8,537.989 99.6,538.423 98.4,538.8 97.2,539.123 96,539.394 94.8,539.614 93.6,539.783 92.4,539.904 91.2,539.976 90,540 81.6,538.8 78.2424,537.6 75.7508,536.4 73.7224,535.2 72,534 70.5023,532.8 69.1808,531.6 68.0036,530.4 66.9488,529.2 66,528 65.1452,526.8 64.375,525.6 63.6819,524.4 63.0601,523.2 62.5045,522 62.0114,520.8 61.5775,519.6 61.2,518.4 60.8768,517.2 60.6061,516 60.3865,514.8 60.2168,513.6 60.0962,512.4 60.024,511.2 " stroke="black" fill="green" stroke-width="0.1" />
<polygon points="120,510 121.2,501.6 122.4,498.242 123.6,495.751 124.8,493.722 126,492 127.2,490.502 128.4,489.181 129.6,488.004 130.8,486.949 132,486 133.2,485.145 134.4,484.375 135.6,483.682 136.8,483.06 138,482.505 139.2,482.011 140.4,481.577 141.6,481.2 142.8,480.877 144,480.606 145.2,480.386 146.4,480.217 147.6,480.096 148.8,480.024 150,480 158.4,481.2 161.758,482.4 164.249,483.6 166.278,484.8 168,486 169.498,487.2 170.819,488.4 171.996,489.6 173.051,490.8 174,492 174.855,493.2 175.625,494.4 176.318,495.6 176.94,496.8 177.495,498 177.989,499.2 178.423,500.4 178.8,501.6 179.123,502.8 179.394,504 179.614,505.2 179.783,506.4 179.904,507.6 179.976,508.8 180,510 178.8,518.4 177.6,521.758 176.4,524.249 175.2,526.278 174,528 172.8,529.498 171.6,530.819 170.4,531.996 169.2,533.051 168,534 166.8,534.855 165.6,535.625 164.4,536.318 163.2,536.94 162,537.495 160.8,537.989 159.6,538.423 158.4,538.8 157.2,539.123 156,539.394 154.8,539.614 153.6,539.783 152.4,539.904 151.2,539.976 150,540 141.6,538.8 138.242,537.6 135.751,536.4 133.722,535.2 132,534 130.502,532.8 129.181,531.6 128.004,530.4 126.949,529.2 126,528 125.145,526.8 124.375,525.6 123.682,524.4 123.06,523.2 122.505,522 122.011,520.8 121.577,519.6 121.2,518.4 120.877,517.2 120.606,516 120.386,514.8 120.217,513.6 120.096,512.4 120.024,511.2 " stroke="black" fill="green" stroke-width="0.1" />
<polygon points="0,570 1.2,561.6 2.4,558.242 3.6,555.751 4.8,553.722 6,552 7.2,550.502 8.4,549.181 9.6,548.004 10.8,546.949 12,546 13.2,545.145 14.4,544.375 15.6,543.682 16.8,543.06 18,542.505 19.2,542.011 20.4,541.577 21.6,541.2 22.8,540.877 24,540.606 25.2,540.386 26.4,540.217 27.6,540.096 28.8,540.024 30,540 38.4,541.2 41.7576,542.4 44.2492,543.6 46.2776,544.8 48,546 49.4977,547.2 50.8192,548.4 51.9964,549.6 53.0512,550.8 54,552 54.8548,553.2 55.625,554.4 56.3181,555.6 56.9399,556.8 57.4955,558 57.9886,559.2 58.4225,560.4 58.8,561.6 59.1232,562.8 59.3939,564 59.6135,565.2 59.7832,566.4 59.9038,567.6 59.976,568.8 60,570 58.8,578.4 57.6,581.758 56.4,584.249 55.2,586.278 54,588 52.8,589.498 51.6,590.819 50.4,591.996 49.2,593.051 48,594 46.8,594.855 45.6,595.625 44.4,596.318 43.2,596.94 42,597.495 40.8,597.989 39.6,598.423 38.4,598.8 37.2,599.123 36,599.394 34.8,599.614 33.6,599.783 32.4,599.904 31.2,599.976 30,600 21.6,598.8 18.2424,597.6 15.7508,596.4 13.7224,595.2 12,594 10.5023,592.8 9.18078,591.6 8.00364,590.4 6.94875,589.2 6,588 5.14522,586.8 4.37501,585.6 3.68195,584.4 3.06007,583.2 2.50455,582 2.01143,580.8 1.57747,579.6 1.2,578.4 0.876813,577.2 0.606123,576 0.38649,574.8 0.216783,573.6 0.0961541,572.4 0.0240096,571.2 " stroke="black" fill="green" stroke-width="0.1" />
<polygon points="60,570 61.2,561.6 62.4,558.242 63.6,555.751 64.8,553.722 66,552 67.2,550.502 68.4,549.181 69.6,548.004 70.8,546.949 72,546 73.2,545.145 74.4,544.375 75.6,543.682 76.8,543.06 78,542.505 79.2,542.011 80.4,541.577 81.6,541.2 82.8,540.877 84,540.606 85.2,540.386 86.4,540.217 87.6,540.096 88.8,540.024 90,540 98.4,541.2 101.758,542.4 104.249,543.6 106.278,544.8 108,546 109.498,547.2 110.819,548.4 111.996,549.6 113.051,550.8 114,552 114.855,553.2 115.625,554.4 116.318,555.6 116.94,556.8 117.495,558 117.989,559.2 118.423,560.4 118.8,561.6 119.123,562.8 119.394,564 119.614,565.2 119.783,566.4 119.904,567.6 119.976,568.8 120,570 118.8,578.4 117.6,581.758 116.4,584.249 115.2,586.278 114,588 112.8,589.498 111.6,590.819 110.4,591.996 109.2,593.051 108,594 106.8,594.855 105.6,595.625 104.4,596.318 103.2,596.94 102,597.495 100.8,597.989 99.6,598.423 98.4,598.8 97.2,599.123 96,599.394 94.8,599.614 93.6,599.783 92.4,599.904 91.2,599.976 90,600 81.6,598.8 78.2424,597.6 75.7508,596.4 73.7224,595.2 72,594 70.5023,592.8 69.1808,591.6 68.0036,590.4 66.9488,589.2 66,588 65.1452,586.8 64.375,585.6 63.6819,584.4 63.0601,583.2 62.5045,582 62.0114,580.8 61.5775,579.6 61.2,578.4 60.8768,577.2 60.6061,576 60.3865,574.8 60.2168,573.6 60.0962,572.4 60.024,571.2 " stroke="black" fill="green" stroke-width="0.1" />
<polygon points="120,570 121.2,561.6 122.4,558.242 123.6,555.751 124.8,553.722 126,552 127.2,550.502 128.4,549.181 129.6,548.004 130.8,546.949 132,546 133.2,545.145 134.4,544.375 135.6,543.682 136.8,543.06 138,542.505 139.2,542.011 140.4,541.577 141.6,541.2 142.8,540.877 144,540.606 145.2,540.386 146.4,540.217 147.6,540.096 148.8,540.024 150,540 158.4,541.2 161.758,542.4 164.249,543.6 166.278,544.8 168,546 169.498,547.2 170.819,548.4 171.996,549.6 173.051,550.8 174,552 174.855,553.2 175.625,554.4 176.318,555.6 176.94,556.8 177.495,558 177.989,559.2 178.423,560.4 178.8,561.6 179.123,562.8 179.394,564 179.614,565.2 179.783,566.4 179.904,567.6 179.976,568.8 180,570 178.8,578.4 177.6,581.758 176.4,584.249 175.2,586.278 174,588 172.8,589.498 171.6,590.819 170.4,591.996 169.2,593.051 168,594 166.8,594.855 165.6,595.625 164.4,596.318 163.2,596.94 162,597.495 160.8,597.989 159.6,598.423 158.4,598.8 157.2,599.123 156,599.394 154.8,599.614 153.6,599.783 152.4,599.904 151.2,599.976 150,600 141.6,598.8 138.242,597.6 135.751,596.4 133.722,595.2 132,594 130.502,592.8 129.181,591.6 128.004,590.4 126.949,589.2 126,588 125.145,586.8 124.375,585.6 123.682,584.4 123.06,583.2 122.505,582 122.011,580.8 121.577,579.6 121.2,578.4 120.877,577.2 120.606,576 120.386,574.8 120.217,573.6 120.096,572.4 120.024,571.2 " stroke="black" fill="green" stroke-width="0.1" />
</svg>