<svg  version="1.1" xmlns="http://www.w3.org/2000/svg">
<polygon points="150,0 0,259.808 300,259.808 " stroke="black" fill="red" stroke-width="0.1" />
<polygon points="40.4145,189.808 87.4145,189.808 87.4145,259.808 40.4145,259.808 " stroke="black" fill="green" stroke-width="0.1" />
<polygon points="87.4145,189.808 134.415,189.808 134.415,259.808 87.4145,259.808 " stroke="black" fill="green" stroke-width="0.1" />
<polygon points="134.415,189.808 181.415,189.808 181.415,259.808 134.415,259.808 " stroke="black" fill="green" stroke-width="0.1" />
<polygon points="181.415,189.808 228.415,189.808 228.415,259.808 181.415,259.808 " stroke="black" fill="green" stroke-width="0.1" />
<polygon points="80,119.808 127,119.808 127,189.808 80,189.808 " stroke="black" fill="green" stroke-width="0.1" />
<polygon points="127,119.808 174,119.808 174,189.808 127,189.808 " stroke="black" fill="green" stroke-width="0.1" />
<polygon points="121,49.8076 168,49.8076 168,119.808 121,119.808 " stroke="black" fill="green" stroke-width="0.1" />
</svg>