<svg  version="1.1" xmlns="http://www.w3.org/2000/svg">
<polygon points="0,300 12,216 24,182.424 36,157.508 48,137.224 60,120 72,105.023 84,91.8078 96,80.0364 108,69.4875 120,60 132,51.4522 144,43.7501 156,36.8195 168,30.6007 180,25.0455 192,20.1143 204,15.7747 216,12 228,8.76813 240,6.06123 252,3.8649 264,2.16783 276,0.961541 288,0.240096 300,0 384,12 417.576,24 442.492,36 462.776,48 480,60 494.977,72 508.192,84 519.964,96 530.512,108 540,120 548.548,132 556.25,144 563.181,156 569.399,168 574.955,180 579.886,192 584.225,204 588,216 591.232,228 593.939,240 596.135,252 597.832,264 599.038,276 599.76,288 600,300 588,384 576,417.576 564,442.492 552,462.776 540,480 528,494.977 516,508.192 504,519.964 492,530.512 480,540 468,548.548 456,556.25 444,563.181 432,569.399 420,574.955 408,579.886 396,584.225 384,588 372,591.232 360,593.939 348,596.135 336,597.832 324,599.038 312,599.76 300,600 216,588 182.424,576 157.508,564 137.224,552 120,540 105.023,528 91.8078,516 80.0364,504 69.4875,492 60,480 51.4522,468 43.7501,456 36.8195,444 30.6007,432 25.0455,420 20.1143,408 15.7747,396 12,384 8.76813,372 6.06123,360 3.8649,348 2.16783,336 0.961541,324 0.240096,312 " stroke="black" fill="red" stroke-width="0.1" />
<polygon points="300,0 50,433.013 550,433.013 " stroke="black" fill="green" stroke-width="0.1" />
</svg>