<svg  version="1.1" xmlns="http://www.w3.org/2000/svg">
<polygon points="0,300 12,216 24,182.424 36,157.508 48,137.224 60,120 72,105.023 84,91.8078 96,80.0364 108,69.4875 120,60 132,51.4522 144,43.7501 156,36.8195 168,30.6007 180,25.0455 192,20.1143 204,15.7747 216,12 228,8.76813 240,6.06123 252,3.8649 264,2.16783 276,0.961541 288,0.240096 300,0 384,12 417.576,24 442.492,36 462.776,48 480,60 494.977,72 508.192,84 519.964,96 530.512,108 540,120 548.548,132 556.25,144 563.181,156 569.399,168 574.955,180 579.886,192 584.225,204 588,216 591.232,228 593.939,240 596.135,252 597.832,264 599.038,276 599.76,288 600,300 588,384 576,417.576 564,442.492 552,462.776 540,480 528,494.977 516,508.192 504,519.964 492,530.512 480,540 468,548.548 456,556.25 444,563.181 432,569.399 420,574.955 408,579.886 396,584.225 384,588 372,591.232 360,593.939 348,596.135 336,597.832 324,599.038 312,599.76 300,600 216,588 182.424,576 157.508,564 137.224,552 120,540 105.023,528 91.8078,516 80.0364,504 69.4875,492 60,480 51.4522,468 43.7501,456 36.8195,444 30.6007,432 25.0455,420 20.1143,408 15.7747,396 12,384 8.76813,372 6.06123,360 3.8649,348 2.16783,336 0.961541,324 0.240096,312 " stroke="black" fill="red" stroke-width="0.1" />
<polygon points="265,562.951 266.4,553.151 267.8,549.234 269.2,546.327 270.6,543.961 272,541.951 273.4,540.204 274.8,538.662 276.2,537.289 277.6,536.058 279,534.951 280.4,533.954 281.8,533.056 283.2,532.247 284.6,531.521 286,530.873 287.4,530.298 288.8,529.792 290.2,529.351 291.6,528.974 293,528.658 294.4,528.402 295.8,528.204 297.2,528.064 298.6,527.979 300,527.951 309.8,529.351 313.717,530.751 316.624,532.151 318.991,533.551 321,534.951 322.747,536.351 324.289,537.751 325.662,539.151 326.893,540.551 328,541.951 328.997,543.351 329.896,544.751 330.704,546.151 331.43,547.551 332.078,548.951 332.653,550.351 333.16,551.751 333.6,553.151 333.977,554.551 334.293,555.951 334.549,557.351 334.747,558.751 334.888,560.151 334.972,561.551 335,562.951 333.6,572.751 332.2,576.668 330.8,579.575 329.4,581.942 328,583.951 326.6,585.699 325.2,587.24 323.8,588.614 322.4,589.844 321,590.951 319.6,591.949 318.2,592.847 316.8,593.656 315.4,594.381 314,595.029 312.6,595.605 311.2,596.111 309.8,596.551 308.4,596.928 307,597.244 305.6,597.5 304.2,597.698 302.8,597.839 301.4,597.923 300,597.951 290.2,596.551 286.283,595.151 283.376,593.751 281.009,592.351 279,590.951 277.253,589.551 275.711,588.151 274.338,586.751 273.107,585.351 272,583.951 271.003,582.551 270.104,581.151 269.296,579.751 268.57,578.351 267.922,576.951 267.347,575.551 266.84,574.151 266.4,572.751 266.023,571.351 265.707,569.951 265.451,568.551 265.253,567.151 265.112,565.751 265.028,564.351 " stroke="black" fill="green" stroke-width="0.1" />
<polygon points="104.966,492.951 106.366,483.151 107.766,479.234 109.166,476.327 110.566,473.961 111.966,471.951 113.366,470.204 114.766,468.662 116.166,467.289 117.566,466.058 118.966,464.951 120.366,463.954 121.766,463.056 123.166,462.247 124.566,461.521 125.966,460.873 127.366,460.298 128.766,459.792 130.166,459.351 131.566,458.974 132.966,458.658 134.366,458.402 135.766,458.204 137.166,458.064 138.566,457.979 139.966,457.951 149.766,459.351 153.683,460.751 156.59,462.151 158.957,463.551 160.966,464.951 162.713,466.351 164.255,467.751 165.629,469.151 166.859,470.551 167.966,471.951 168.963,473.351 169.862,474.751 170.671,476.151 171.396,477.551 172.044,478.951 172.62,480.351 173.126,481.751 173.566,483.151 173.943,484.551 174.259,485.951 174.515,487.351 174.713,488.751 174.854,490.151 174.938,491.551 174.966,492.951 173.566,502.751 172.166,506.668 170.766,509.575 169.366,511.942 167.966,513.951 166.566,515.699 165.166,517.24 163.766,518.614 162.366,519.844 160.966,520.951 159.566,521.949 158.166,522.847 156.766,523.656 155.366,524.381 153.966,525.029 152.566,525.605 151.166,526.111 149.766,526.551 148.366,526.928 146.966,527.244 145.566,527.5 144.166,527.698 142.766,527.839 141.366,527.923 139.966,527.951 130.166,526.551 126.249,525.151 123.342,523.751 120.976,522.351 118.966,520.951 117.219,519.551 115.677,518.151 114.304,516.751 113.073,515.351 111.966,513.951 110.969,512.551 110.07,511.151 109.262,509.751 108.536,508.351 107.888,506.951 107.313,505.551 106.807,504.151 106.366,502.751 105.989,501.351 105.673,499.951 105.417,498.551 105.219,497.151 105.078,495.751 104.994,494.351 " stroke="black" fill="green" stroke-width="0.1" />
<polygon points="174.966,492.951 176.366,483.151 177.766,479.234 179.166,476.327 180.566,473.961 181.966,471.951 183.366,470.204 184.766,468.662 186.166,467.289 187.566,466.058 188.966,464.951 190.366,463.954 191.766,463.056 193.166,462.247 194.566,461.521 195.966,460.873 197.366,460.298 198.766,459.792 200.166,459.351 201.566,458.974 202.966,458.658 204.366,458.402 205.766,458.204 207.166,458.064 208.566,457.979 209.966,457.951 219.766,459.351 223.683,460.751 226.59,462.151 228.957,463.551 230.966,464.951 232.713,466.351 234.255,467.751 235.629,469.151 236.859,470.551 237.966,471.951 238.963,473.351 239.862,474.751 240.671,476.151 241.396,477.551 242.044,478.951 242.62,480.351 243.126,481.751 243.566,483.151 243.943,484.551 244.259,485.951 244.515,487.351 244.713,488.751 244.854,490.151 244.938,491.551 244.966,492.951 243.566,502.751 242.166,506.668 240.766,509.575 239.366,511.942 237.966,513.951 236.566,515.699 235.166,517.24 233.766,518.614 232.366,519.844 230.966,520.951 229.566,521.949 228.166,522.847 226.766,523.656 225.366,524.381 223.966,525.029 222.566,525.605 221.166,526.111 219.766,526.551 218.366,526.928 216.966,527.244 215.566,527.5 214.166,527.698 212.766,527.839 211.366,527.923 209.966,527.951 200.166,526.551 196.249,525.151 193.342,523.751 190.976,522.351 188.966,520.951 187.219,519.551 185.677,518.151 184.304,516.751 183.073,515.351 181.966,513.951 180.969,512.551 180.07,511.151 179.262,509.751 178.536,508.351 177.888,506.951 177.313,505.551 176.807,504.151 176.366,502.751 175.989,501.351 175.673,499.951 175.417,498.551 175.219,497.151 175.078,495.751 174.994,494.351 " stroke="black" fill="green" stroke-width="0.1" />
<polygon points="244.966,492.951 246.366,483.151 247.766,479.234 249.166,476.327 250.566,473.961 251.966,471.951 253.366,470.204 254.766,468.662 256.166,467.289 257.566,466.058 258.966,464.951 260.366,463.954 261.766,463.056 263.166,462.247 264.566,461.521 265.966,460.873 267.366,460.298 268.766,459.792 270.166,459.351 271.566,458.974 272.966,458.658 274.366,458.402 275.766,458.204 277.166,458.064 278.566,457.979 279.966,457.951 289.766,459.351 293.683,460.751 296.59,462.151 298.957,463.551 300.966,464.951 302.713,466.351 304.255,467.751 305.629,469.151 306.859,470.551 307.966,471.951 308.963,473.351 309.862,474.751 310.671,476.151 311.396,477.551 312.044,478.951 312.62,480.351 313.126,481.751 313.566,483.151 313.943,484.551 314.259,485.951 314.515,487.351 314.713,488.751 314.854,490.151 314.938,491.551 314.966,492.951 313.566,502.751 312.166,506.668 310.766,509.575 309.366,511.942 307.966,513.951 306.566,515.699 305.166,517.24 303.766,518.614 302.366,519.844 300.966,520.951 299.566,521.949 298.166,522.847 296.766,523.656 295.366,524.381 293.966,525.029 292.566,525.605 291.166,526.111 289.766,526.551 288.366,526.928 286.966,527.244 285.566,527.5 284.166,527.698 282.766,527.839 281.366,527.923 279.966,527.951 270.166,526.551 266.249,525.151 263.342,523.751 260.976,522.351 258.966,520.951 257.219,519.551 255.677,518.151 254.304,516.751 253.073,515.351 251.966,513.951 250.969,512.551 250.07,511.151 249.262,509.751 248.536,508.351 247.888,506.951 247.313,505.551 246.807,504.151 246.366,502.751 245.989,501.351 245.673,499.951 245.417,498.551 245.219,497.151 245.078,495.751 244.994,494.351 " stroke="black" fill="green" stroke-width="0.1" />
<polygon points="314.966,492.951 316.366,483.151 317.766,479.234 319.166,476.327 320.566,473.961 321.966,471.951 323.366,470.204 324.766,468.662 326.166,467.289 327.566,466.058 328.966,464.951 330.366,463.954 331.766,463.056 333.166,462.247 334.566,461.521 335.966,460.873 337.366,460.298 338.766,459.792 340.166,459.351 341.566,458.974 342.966,458.658 344.366,458.402 345.766,458.204 347.166,458.064 348.566,457.979 349.966,457.951 359.766,459.351 363.683,460.751 366.59,462.151 368.957,463.551 370.966,464.951 372.713,466.351 374.255,467.751 375.629,469.151 376.859,470.551 377.966,471.951 378.963,473.351 379.862,474.751 380.671,476.151 381.396,477.551 382.044,478.951 382.62,480.351 383.126,481.751 383.566,483.151 383.943,484.551 384.259,485.951 384.515,487.351 384.713,488.751 384.854,490.151 384.938,491.551 384.966,492.951 383.566,502.751 382.166,506.668 380.766,509.575 379.366,511.942 377.966,513.951 376.566,515.699 375.166,517.24 373.766,518.614 372.366,519.844 370.966,520.951 369.566,521.949 368.166,522.847 366.766,523.656 365.366,524.381 363.966,525.029 362.566,525.605 361.166,526.111 359.766,526.551 358.366,526.928 356.966,527.244 355.566,527.5 354.166,527.698 352.766,527.839 351.366,527.923 349.966,527.951 340.166,526.551 336.249,525.151 333.342,523.751 330.976,522.351 328.966,520.951 327.219,519.551 325.677,518.151 324.304,516.751 323.073,515.351 321.966,513.951 320.969,512.551 320.07,511.151 319.262,509.751 318.536,508.351 317.888,506.951 317.313,505.551 316.807,504.151 316.366,502.751 315.989,501.351 315.673,499.951 315.417,498.551 315.219,497.151 315.078,495.751 314.994,494.351 " stroke="black" fill="green" stroke-width="0.1" />
<polygon points="384.966,492.951 386.366,483.151 387.766,479.234 389.166,476.327 390.566,473.961 391.966,471.951 393.366,470.204 394.766,468.662 396.166,467.289 397.566,466.058 398.966,464.951 400.366,463.954 401.766,463.056 403.166,462.247 404.566,461.521 405.966,460.873 407.366,460.298 408.766,459.792 410.166,459.351 411.566,458.974 412.966,458.658 414.366,458.402 415.766,458.204 417.166,458.064 418.566,457.979 419.966,457.951 429.766,459.351 433.683,460.751 436.59,462.151 438.957,463.551 440.966,464.951 442.713,466.351 444.255,467.751 445.629,469.151 446.859,470.551 447.966,471.951 448.963,473.351 449.862,474.751 450.671,476.151 451.396,477.551 452.044,478.951 452.62,480.351 453.126,481.751 453.566,483.151 453.943,484.551 454.259,485.951 454.515,487.351 454.713,488.751 454.854,490.151 454.938,491.551 454.966,492.951 453.566,502.751 452.166,506.668 450.766,509.575 449.366,511.942 447.966,513.951 446.566,515.699 445.166,517.24 443.766,518.614 442.366,519.844 440.966,520.951 439.566,521.949 438.166,522.847 436.766,523.656 435.366,524.381 433.966,525.029 432.566,525.605 431.166,526.111 429.766,526.551 428.366,526.928 426.966,527.244 425.566,527.5 424.166,527.698 422.766,527.839 421.366,527.923 419.966,527.951 410.166,526.551 406.249,525.151 403.342,523.751 400.976,522.351 398.966,520.951 397.219,519.551 395.677,518.151 394.304,516.751 393.073,515.351 391.966,513.951 390.969,512.551 390.07,511.151 389.262,509.751 388.536,508.351 387.888,506.951 387.313,505.551 386.807,504.151 386.366,502.751 385.989,501.351 385.673,499.951 385.417,498.551 385.219,497.151 385.078,495.751 384.994,494.351 " stroke="black" fill="green" stroke-width="0.1" />
<polygon points="44.9483,422.951 46.3483,413.151 47.7483,409.234 49.1483,406.327 50.5483,403.961 51.9483,401.951 53.3483,400.204 54.7483,398.662 56.1483,397.289 57.5483,396.058 58.9483,394.951 60.3483,393.954 61.7483,393.056 63.1483,392.247 64.5483,391.521 65.9483,390.873 67.3483,390.298 68.7483,389.792 70.1483,389.351 71.5483,388.974 72.9483,388.658 74.3483,388.402 75.7483,388.204 77.1483,388.064 78.5483,387.979 79.9483,387.951 89.7483,389.351 93.6654,390.751 96.5724,392.151 98.9388,393.551 100.948,394.951 102.696,396.351 104.237,397.751 105.611,399.151 106.841,400.551 107.948,401.951 108.946,403.351 109.844,404.751 110.653,406.151 111.378,407.551 112.026,408.951 112.602,410.351 113.108,411.751 113.548,413.151 113.925,414.551 114.241,415.951 114.497,417.351 114.695,418.751 114.836,420.151 114.92,421.551 114.948,422.951 113.548,432.751 112.148,436.668 110.748,439.575 109.348,441.942 107.948,443.951 106.548,445.699 105.148,447.24 103.748,448.614 102.348,449.844 100.948,450.951 99.5483,451.949 98.1483,452.847 96.7483,453.656 95.3483,454.381 93.9483,455.029 92.5483,455.605 91.1483,456.111 89.7483,456.551 88.3483,456.928 86.9483,457.244 85.5483,457.5 84.1483,457.698 82.7483,457.839 81.3483,457.923 79.9483,457.951 70.1483,456.551 66.2311,455.151 63.3242,453.751 60.9578,452.351 58.9483,450.951 57.201,449.551 55.6592,448.151 54.2859,446.751 53.0552,445.351 51.9483,443.951 50.951,442.551 50.0525,441.151 49.2439,439.751 48.5184,438.351 47.8703,436.951 47.295,435.551 46.7887,434.151 46.3483,432.751 45.9712,431.351 45.6554,429.951 45.3992,428.551 45.2012,427.151 45.0605,425.751 44.9763,424.351 " stroke="black" fill="green" stroke-width="0.1" />
<polygon points="114.948,422.951 116.348,413.151 117.748,409.234 119.148,406.327 120.548,403.961 121.948,401.951 123.348,400.204 124.748,398.662 126.148,397.289 127.548,396.058 128.948,394.951 130.348,393.954 131.748,393.056 133.148,392.247 134.548,391.521 135.948,390.873 137.348,390.298 138.748,389.792 140.148,389.351 141.548,388.974 142.948,388.658 144.348,388.402 145.748,388.204 147.148,388.064 148.548,387.979 149.948,387.951 159.748,389.351 163.665,390.751 166.572,392.151 168.939,393.551 170.948,394.951 172.696,396.351 174.237,397.751 175.611,399.151 176.841,400.551 177.948,401.951 178.946,403.351 179.844,404.751 180.653,406.151 181.378,407.551 182.026,408.951 182.602,410.351 183.108,411.751 183.548,413.151 183.925,414.551 184.241,415.951 184.497,417.351 184.695,418.751 184.836,420.151 184.92,421.551 184.948,422.951 183.548,432.751 182.148,436.668 180.748,439.575 179.348,441.942 177.948,443.951 176.548,445.699 175.148,447.24 173.748,448.614 172.348,449.844 170.948,450.951 169.548,451.949 168.148,452.847 166.748,453.656 165.348,454.381 163.948,455.029 162.548,455.605 161.148,456.111 159.748,456.551 158.348,456.928 156.948,457.244 155.548,457.5 154.148,457.698 152.748,457.839 151.348,457.923 149.948,457.951 140.148,456.551 136.231,455.151 133.324,453.751 130.958,452.351 128.948,450.951 127.201,449.551 125.659,448.151 124.286,446.751 123.055,445.351 121.948,443.951 120.951,442.551 120.052,441.151 119.244,439.751 118.518,438.351 117.87,436.951 117.295,435.551 116.789,434.151 116.348,432.751 115.971,431.351 115.655,429.951 115.399,428.551 115.201,427.151 115.06,425.751 114.976,424.351 " stroke="black" fill="green" stroke-width="0.1" />
<polygon points="184.948,422.951 186.348,413.151 187.748,409.234 189.148,406.327 190.548,403.961 191.948,401.951 193.348,400.204 194.748,398.662 196.148,397.289 197.548,396.058 198.948,394.951 200.348,393.954 201.748,393.056 203.148,392.247 204.548,391.521 205.948,390.873 207.348,390.298 208.748,389.792 210.148,389.351 211.548,388.974 212.948,388.658 214.348,388.402 215.748,388.204 217.148,388.064 218.548,387.979 219.948,387.951 229.748,389.351 233.665,390.751 236.572,392.151 238.939,393.551 240.948,394.951 242.696,396.351 244.237,397.751 245.611,399.151 246.841,400.551 247.948,401.951 248.946,403.351 249.844,404.751 250.653,406.151 251.378,407.551 252.026,408.951 252.602,410.351 253.108,411.751 253.548,413.151 253.925,414.551 254.241,415.951 254.497,417.351 254.695,418.751 254.836,420.151 254.92,421.551 254.948,422.951 253.548,432.751 252.148,436.668 250.748,439.575 249.348,441.942 247.948,443.951 246.548,445.699 245.148,447.24 243.748,448.614 242.348,449.844 240.948,450.951 239.548,451.949 238.148,452.847 236.748,453.656 235.348,454.381 233.948,455.029 232.548,455.605 231.148,456.111 229.748,456.551 228.348,456.928 226.948,457.244 225.548,457.5 224.148,457.698 222.748,457.839 221.348,457.923 219.948,457.951 210.148,456.551 206.231,455.151 203.324,453.751 200.958,452.351 198.948,450.951 197.201,449.551 195.659,448.151 194.286,446.751 193.055,445.351 191.948,443.951 190.951,442.551 190.052,441.151 189.244,439.751 188.518,438.351 187.87,436.951 187.295,435.551 186.789,434.151 186.348,432.751 185.971,431.351 185.655,429.951 185.399,428.551 185.201,427.151 185.06,425.751 184.976,424.351 " stroke="black" fill="green" stroke-width="0.1" />
<polygon points="254.948,422.951 256.348,413.151 257.748,409.234 259.148,406.327 260.548,403.961 261.948,401.951 263.348,400.204 264.748,398.662 266.148,397.289 267.548,396.058 268.948,394.951 270.348,393.954 271.748,393.056 273.148,392.247 274.548,391.521 275.948,390.873 277.348,390.298 278.748,389.792 280.148,389.351 281.548,388.974 282.948,388.658 284.348,388.402 285.748,388.204 287.148,388.064 288.548,387.979 289.948,387.951 299.748,389.351 303.665,390.751 306.572,392.151 308.939,393.551 310.948,394.951 312.696,396.351 314.237,397.751 315.611,399.151 316.841,400.551 317.948,401.951 318.946,403.351 319.844,404.751 320.653,406.151 321.378,407.551 322.026,408.951 322.602,410.351 323.108,411.751 323.548,413.151 323.925,414.551 324.241,415.951 324.497,417.351 324.695,418.751 324.836,420.151 324.92,421.551 324.948,422.951 323.548,432.751 322.148,436.668 320.748,439.575 319.348,441.942 317.948,443.951 316.548,445.699 315.148,447.24 313.748,448.614 312.348,449.844 310.948,450.951 309.548,451.949 308.148,452.847 306.748,453.656 305.348,454.381 303.948,455.029 302.548,455.605 301.148,456.111 299.748,456.551 298.348,456.928 296.948,457.244 295.548,457.5 294.148,457.698 292.748,457.839 291.348,457.923 289.948,457.951 280.148,456.551 276.231,455.151 273.324,453.751 270.958,452.351 268.948,450.951 267.201,449.551 265.659,448.151 264.286,446.751 263.055,445.351 261.948,443.951 260.951,442.551 260.052,441.151 259.244,439.751 258.518,438.351 257.87,436.951 257.295,435.551 256.789,434.151 256.348,432.751 255.971,431.351 255.655,429.951 255.399,428.551 255.201,427.151 255.06,425.751 254.976,424.351 " stroke="black" fill="green" stroke-width="0.1" />
<polygon points="324.948,422.951 326.348,413.151 327.748,409.234 329.148,406.327 330.548,403.961 331.948,401.951 333.348,400.204 334.748,398.662 336.148,397.289 337.548,396.058 338.948,394.951 340.348,393.954 341.748,393.056 343.148,392.247 344.548,391.521 345.948,390.873 347.348,390.298 348.748,389.792 350.148,389.351 351.548,388.974 352.948,388.658 354.348,388.402 355.748,388.204 357.148,388.064 358.548,387.979 359.948,387.951 369.748,389.351 373.665,390.751 376.572,392.151 378.939,393.551 380.948,394.951 382.696,396.351 384.237,397.751 385.611,399.151 386.841,400.551 387.948,401.951 388.946,403.351 389.844,404.751 390.653,406.151 391.378,407.551 392.026,408.951 392.602,410.351 393.108,411.751 393.548,413.151 393.925,414.551 394.241,415.951 394.497,417.351 394.695,418.751 394.836,420.151 394.92,421.551 394.948,422.951 393.548,432.751 392.148,436.668 390.748,439.575 389.348,441.942 387.948,443.951 386.548,445.699 385.148,447.24 383.748,448.614 382.348,449.844 380.948,450.951 379.548,451.949 378.148,452.847 376.748,453.656 375.348,454.381 373.948,455.029 372.548,455.605 371.148,456.111 369.748,456.551 368.348,456.928 366.948,457.244 365.548,457.5 364.148,457.698 362.748,457.839 361.348,457.923 359.948,457.951 350.148,456.551 346.231,455.151 343.324,453.751 340.958,452.351 338.948,450.951 337.201,449.551 335.659,448.151 334.286,446.751 333.055,445.351 331.948,443.951 330.951,442.551 330.052,441.151 329.244,439.751 328.518,438.351 327.87,436.951 327.295,435.551 326.789,434.151 326.348,432.751 325.971,431.351 325.655,429.951 325.399,428.551 325.201,427.151 325.06,425.751 324.976,424.351 " stroke="black" fill="green" stroke-width="0.1" />
<polygon points="394.948,422.951 396.348,413.151 397.748,409.234 399.148,406.327 400.548,403.961 401.948,401.951 403.348,400.204 404.748,398.662 406.148,397.289 407.548,396.058 408.948,394.951 410.348,393.954 411.748,393.056 413.148,392.247 414.548,391.521 415.948,390.873 417.348,390.298 418.748,389.792 420.148,389.351 421.548,388.974 422.948,388.658 424.348,388.402 425.748,388.204 427.148,388.064 428.548,387.979 429.948,387.951 439.748,389.351 443.665,390.751 446.572,392.151 448.939,393.551 450.948,394.951 452.696,396.351 454.237,397.751 455.611,399.151 456.841,400.551 457.948,401.951 458.946,403.351 459.844,404.751 460.653,406.151 461.378,407.551 462.026,408.951 462.602,410.351 463.108,411.751 463.548,413.151 463.925,414.551 464.241,415.951 464.497,417.351 464.695,418.751 464.836,420.151 464.92,421.551 464.948,422.951 463.548,432.751 462.148,436.668 460.748,439.575 459.348,441.942 457.948,443.951 456.548,445.699 455.148,447.24 453.748,448.614 452.348,449.844 450.948,450.951 449.548,451.949 448.148,452.847 446.748,453.656 445.348,454.381 443.948,455.029 442.548,455.605 441.148,456.111 439.748,456.551 438.348,456.928 436.948,457.244 435.548,457.5 434.148,457.698 432.748,457.839 431.348,457.923 429.948,457.951 420.148,456.551 416.231,455.151 413.324,453.751 410.958,452.351 408.948,450.951 407.201,449.551 405.659,448.151 404.286,446.751 403.055,445.351 401.948,443.951 400.951,442.551 400.052,441.151 399.244,439.751 398.518,438.351 397.87,436.951 397.295,435.551 396.789,434.151 396.348,432.751 395.971,431.351 395.655,429.951 395.399,428.551 395.201,427.151 395.06,425.751 394.976,424.351 " stroke="black" fill="green" stroke-width="0.1" />
<polygon points="464.948,422.951 466.348,413.151 467.748,409.234 469.148,406.327 470.548,403.961 471.948,401.951 473.348,400.204 474.748,398.662 476.148,397.289 477.548,396.058 478.948,394.951 480.348,393.954 481.748,393.056 483.148,392.247 484.548,391.521 485.948,390.873 487.348,390.298 488.748,389.792 490.148,389.351 491.548,388.974 492.948,388.658 494.348,388.402 495.748,388.204 497.148,388.064 498.548,387.979 499.948,387.951 509.748,389.351 513.665,390.751 516.572,392.151 518.939,393.551 520.948,394.951 522.696,396.351 524.237,397.751 525.611,399.151 526.841,400.551 527.948,401.951 528.946,403.351 529.844,404.751 530.653,406.151 531.378,407.551 532.026,408.951 532.602,410.351 533.108,411.751 533.548,413.151 533.925,414.551 534.241,415.951 534.497,417.351 534.695,418.751 534.836,420.151 534.92,421.551 534.948,422.951 533.548,432.751 532.148,436.668 530.748,439.575 529.348,441.942 527.948,443.951 526.548,445.699 525.148,447.24 523.748,448.614 522.348,449.844 520.948,450.951 519.548,451.949 518.148,452.847 516.748,453.656 515.348,454.381 513.948,455.029 512.548,455.605 511.148,456.111 509.748,456.551 508.348,456.928 506.948,457.244 505.548,457.5 504.148,457.698 502.748,457.839 501.348,457.923 499.948,457.951 490.148,456.551 486.231,455.151 483.324,453.751 480.958,452.351 478.948,450.951 477.201,449.551 475.659,448.151 474.286,446.751 473.055,445.351 471.948,443.951 470.951,442.551 470.052,441.151 469.244,439.751 468.518,438.351 467.87,436.951 467.295,435.551 466.789,434.151 466.348,432.751 465.971,431.351 465.655,429.951 465.399,428.551 465.201,427.151 465.06,425.751 464.976,424.351 " stroke="black" fill="green" stroke-width="0.1" />
<polygon points="13.182,352.951 14.582,343.151 15.982,339.234 17.382,336.327 18.782,333.961 20.182,331.951 21.582,330.204 22.982,328.662 24.382,327.289 25.782,326.058 27.182,324.951 28.582,323.954 29.982,323.056 31.382,322.247 32.782,321.521 34.182,320.873 35.582,320.298 36.982,319.792 38.382,319.351 39.782,318.974 41.182,318.658 42.582,318.402 43.982,318.204 45.382,318.064 46.782,317.979 48.182,317.951 57.982,319.351 61.8991,320.751 64.8061,322.151 67.1725,323.551 69.182,324.951 70.9293,326.351 72.4711,327.751 73.8444,329.151 75.0751,330.551 76.182,331.951 77.1792,333.351 78.0778,334.751 78.8864,336.151 79.6119,337.551 80.26,338.951 80.8353,340.351 81.3416,341.751 81.782,343.151 82.1591,344.551 82.4749,345.951 82.7311,347.351 82.9291,348.751 83.0698,350.151 83.154,351.551 83.182,352.951 81.782,362.751 80.382,366.668 78.982,369.575 77.582,371.942 76.182,373.951 74.782,375.699 73.382,377.24 71.982,378.614 70.582,379.844 69.182,380.951 67.782,381.949 66.382,382.847 64.982,383.656 63.582,384.381 62.182,385.029 60.782,385.605 59.382,386.111 57.982,386.551 56.582,386.928 55.182,387.244 53.782,387.5 52.382,387.698 50.982,387.839 49.582,387.923 48.182,387.951 38.382,386.551 34.4649,385.151 31.5579,383.751 29.1915,382.351 27.182,380.951 25.4347,379.551 23.8929,378.151 22.5196,376.751 21.2889,375.351 20.182,373.951 19.1848,372.551 18.2862,371.151 17.4776,369.751 16.7521,368.351 16.104,366.951 15.5287,365.551 15.0224,364.151 14.582,362.751 14.205,361.351 13.8891,359.951 13.6329,358.551 13.4349,357.151 13.2942,355.751 13.21,354.351 " stroke="black" fill="green" stroke-width="0.1" />
<polygon points="83.182,352.951 84.582,343.151 85.982,339.234 87.382,336.327 88.782,333.961 90.182,331.951 91.582,330.204 92.982,328.662 94.382,327.289 95.782,326.058 97.182,324.951 98.582,323.954 99.982,323.056 101.382,322.247 102.782,321.521 104.182,320.873 105.582,320.298 106.982,319.792 108.382,319.351 109.782,318.974 111.182,318.658 112.582,318.402 113.982,318.204 115.382,318.064 116.782,317.979 118.182,317.951 127.982,319.351 131.899,320.751 134.806,322.151 137.173,323.551 139.182,324.951 140.929,326.351 142.471,327.751 143.844,329.151 145.075,330.551 146.182,331.951 147.179,333.351 148.078,334.751 148.886,336.151 149.612,337.551 150.26,338.951 150.835,340.351 151.342,341.751 151.782,343.151 152.159,344.551 152.475,345.951 152.731,347.351 152.929,348.751 153.07,350.151 153.154,351.551 153.182,352.951 151.782,362.751 150.382,366.668 148.982,369.575 147.582,371.942 146.182,373.951 144.782,375.699 143.382,377.24 141.982,378.614 140.582,379.844 139.182,380.951 137.782,381.949 136.382,382.847 134.982,383.656 133.582,384.381 132.182,385.029 130.782,385.605 129.382,386.111 127.982,386.551 126.582,386.928 125.182,387.244 123.782,387.5 122.382,387.698 120.982,387.839 119.582,387.923 118.182,387.951 108.382,386.551 104.465,385.151 101.558,383.751 99.1915,382.351 97.182,380.951 95.4347,379.551 93.8929,378.151 92.5196,376.751 91.2889,375.351 90.182,373.951 89.1848,372.551 88.2862,371.151 87.4776,369.751 86.7521,368.351 86.104,366.951 85.5287,365.551 85.0224,364.151 84.582,362.751 84.205,361.351 83.8891,359.951 83.6329,358.551 83.4349,357.151 83.2942,355.751 83.21,354.351 " stroke="black" fill="green" stroke-width="0.1" />
<polygon points="153.182,352.951 154.582,343.151 155.982,339.234 157.382,336.327 158.782,333.961 160.182,331.951 161.582,330.204 162.982,328.662 164.382,327.289 165.782,326.058 167.182,324.951 168.582,323.954 169.982,323.056 171.382,322.247 172.782,321.521 174.182,320.873 175.582,320.298 176.982,319.792 178.382,319.351 179.782,318.974 181.182,318.658 182.582,318.402 183.982,318.204 185.382,318.064 186.782,317.979 188.182,317.951 197.982,319.351 201.899,320.751 204.806,322.151 207.173,323.551 209.182,324.951 210.929,326.351 212.471,327.751 213.844,329.151 215.075,330.551 216.182,331.951 217.179,333.351 218.078,334.751 218.886,336.151 219.612,337.551 220.26,338.951 220.835,340.351 221.342,341.751 221.782,343.151 222.159,344.551 222.475,345.951 222.731,347.351 222.929,348.751 223.07,350.151 223.154,351.551 223.182,352.951 221.782,362.751 220.382,366.668 218.982,369.575 217.582,371.942 216.182,373.951 214.782,375.699 213.382,377.24 211.982,378.614 210.582,379.844 209.182,380.951 207.782,381.949 206.382,382.847 204.982,383.656 203.582,384.381 202.182,385.029 200.782,385.605 199.382,386.111 197.982,386.551 196.582,386.928 195.182,387.244 193.782,387.5 192.382,387.698 190.982,387.839 189.582,387.923 188.182,387.951 178.382,386.551 174.465,385.151 171.558,383.751 169.191,382.351 167.182,380.951 165.435,379.551 163.893,378.151 162.52,376.751 161.289,375.351 160.182,373.951 159.185,372.551 158.286,371.151 157.478,369.751 156.752,368.351 156.104,366.951 155.529,365.551 155.022,364.151 154.582,362.751 154.205,361.351 153.889,359.951 153.633,358.551 153.435,357.151 153.294,355.751 153.21,354.351 " stroke="black" fill="green" stroke-width="0.1" />
<polygon points="223.182,352.951 224.582,343.151 225.982,339.234 227.382,336.327 228.782,333.961 230.182,331.951 231.582,330.204 232.982,328.662 234.382,327.289 235.782,326.058 237.182,324.951 238.582,323.954 239.982,323.056 241.382,322.247 242.782,321.521 244.182,320.873 245.582,320.298 246.982,319.792 248.382,319.351 249.782,318.974 251.182,318.658 252.582,318.402 253.982,318.204 255.382,318.064 256.782,317.979 258.182,317.951 267.982,319.351 271.899,320.751 274.806,322.151 277.173,323.551 279.182,324.951 280.929,326.351 282.471,327.751 283.844,329.151 285.075,330.551 286.182,331.951 287.179,333.351 288.078,334.751 288.886,336.151 289.612,337.551 290.26,338.951 290.835,340.351 291.342,341.751 291.782,343.151 292.159,344.551 292.475,345.951 292.731,347.351 292.929,348.751 293.07,350.151 293.154,351.551 293.182,352.951 291.782,362.751 290.382,366.668 288.982,369.575 287.582,371.942 286.182,373.951 284.782,375.699 283.382,377.24 281.982,378.614 280.582,379.844 279.182,380.951 277.782,381.949 276.382,382.847 274.982,383.656 273.582,384.381 272.182,385.029 270.782,385.605 269.382,386.111 267.982,386.551 266.582,386.928 265.182,387.244 263.782,387.5 262.382,387.698 260.982,387.839 259.582,387.923 258.182,387.951 248.382,386.551 244.465,385.151 241.558,383.751 239.191,382.351 237.182,380.951 235.435,379.551 233.893,378.151 232.52,376.751 231.289,375.351 230.182,373.951 229.185,372.551 228.286,371.151 227.478,369.751 226.752,368.351 226.104,366.951 225.529,365.551 225.022,364.151 224.582,362.751 224.205,361.351 223.889,359.951 223.633,358.551 223.435,357.151 223.294,355.751 223.21,354.351 " stroke="black" fill="green" stroke-width="0.1" />
<polygon points="293.182,352.951 294.582,343.151 295.982,339.234 297.382,336.327 298.782,333.961 300.182,331.951 301.582,330.204 302.982,328.662 304.382,327.289 305.782,326.058 307.182,324.951 308.582,323.954 309.982,323.056 311.382,322.247 312.782,321.521 314.182,320.873 315.582,320.298 316.982,319.792 318.382,319.351 319.782,318.974 321.182,318.658 322.582,318.402 323.982,318.204 325.382,318.064 326.782,317.979 328.182,317.951 337.982,319.351 341.899,320.751 344.806,322.151 347.173,323.551 349.182,324.951 350.929,326.351 352.471,327.751 353.844,329.151 355.075,330.551 356.182,331.951 357.179,333.351 358.078,334.751 358.886,336.151 359.612,337.551 360.26,338.951 360.835,340.351 361.342,341.751 361.782,343.151 362.159,344.551 362.475,345.951 362.731,347.351 362.929,348.751 363.07,350.151 363.154,351.551 363.182,352.951 361.782,362.751 360.382,366.668 358.982,369.575 357.582,371.942 356.182,373.951 354.782,375.699 353.382,377.24 351.982,378.614 350.582,379.844 349.182,380.951 347.782,381.949 346.382,382.847 344.982,383.656 343.582,384.381 342.182,385.029 340.782,385.605 339.382,386.111 337.982,386.551 336.582,386.928 335.182,387.244 333.782,387.5 332.382,387.698 330.982,387.839 329.582,387.923 328.182,387.951 318.382,386.551 314.465,385.151 311.558,383.751 309.191,382.351 307.182,380.951 305.435,379.551 303.893,378.151 302.52,376.751 301.289,375.351 300.182,373.951 299.185,372.551 298.286,371.151 297.478,369.751 296.752,368.351 296.104,366.951 295.529,365.551 295.022,364.151 294.582,362.751 294.205,361.351 293.889,359.951 293.633,358.551 293.435,357.151 293.294,355.751 293.21,354.351 " stroke="black" fill="green" stroke-width="0.1" />
<polygon points="363.182,352.951 364.582,343.151 365.982,339.234 367.382,336.327 368.782,333.961 370.182,331.951 371.582,330.204 372.982,328.662 374.382,327.289 375.782,326.058 377.182,324.951 378.582,323.954 379.982,323.056 381.382,322.247 382.782,321.521 384.182,320.873 385.582,320.298 386.982,319.792 388.382,319.351 389.782,318.974 391.182,318.658 392.582,318.402 393.982,318.204 395.382,318.064 396.782,317.979 398.182,317.951 407.982,319.351 411.899,320.751 414.806,322.151 417.173,323.551 419.182,324.951 420.929,326.351 422.471,327.751 423.844,329.151 425.075,330.551 426.182,331.951 427.179,333.351 428.078,334.751 428.886,336.151 429.612,337.551 430.26,338.951 430.835,340.351 431.342,341.751 431.782,343.151 432.159,344.551 432.475,345.951 432.731,347.351 432.929,348.751 433.07,350.151 433.154,351.551 433.182,352.951 431.782,362.751 430.382,366.668 428.982,369.575 427.582,371.942 426.182,373.951 424.782,375.699 423.382,377.24 421.982,378.614 420.582,379.844 419.182,380.951 417.782,381.949 416.382,382.847 414.982,383.656 413.582,384.381 412.182,385.029 410.782,385.605 409.382,386.111 407.982,386.551 406.582,386.928 405.182,387.244 403.782,387.5 402.382,387.698 400.982,387.839 399.582,387.923 398.182,387.951 388.382,386.551 384.465,385.151 381.558,383.751 379.191,382.351 377.182,380.951 375.435,379.551 373.893,378.151 372.52,376.751 371.289,375.351 370.182,373.951 369.185,372.551 368.286,371.151 367.478,369.751 366.752,368.351 366.104,366.951 365.529,365.551 365.022,364.151 364.582,362.751 364.205,361.351 363.889,359.951 363.633,358.551 363.435,357.151 363.294,355.751 363.21,354.351 " stroke="black" fill="green" stroke-width="0.1" />
<polygon points="433.182,352.951 434.582,343.151 435.982,339.234 437.382,336.327 438.782,333.961 440.182,331.951 441.582,330.204 442.982,328.662 444.382,327.289 445.782,326.058 447.182,324.951 448.582,323.954 449.982,323.056 451.382,322.247 452.782,321.521 454.182,320.873 455.582,320.298 456.982,319.792 458.382,319.351 459.782,318.974 461.182,318.658 462.582,318.402 463.982,318.204 465.382,318.064 466.782,317.979 468.182,317.951 477.982,319.351 481.899,320.751 484.806,322.151 487.173,323.551 489.182,324.951 490.929,326.351 492.471,327.751 493.844,329.151 495.075,330.551 496.182,331.951 497.179,333.351 498.078,334.751 498.886,336.151 499.612,337.551 500.26,338.951 500.835,340.351 501.342,341.751 501.782,343.151 502.159,344.551 502.475,345.951 502.731,347.351 502.929,348.751 503.07,350.151 503.154,351.551 503.182,352.951 501.782,362.751 500.382,366.668 498.982,369.575 497.582,371.942 496.182,373.951 494.782,375.699 493.382,377.24 491.982,378.614 490.582,379.844 489.182,380.951 487.782,381.949 486.382,382.847 484.982,383.656 483.582,384.381 482.182,385.029 480.782,385.605 479.382,386.111 477.982,386.551 476.582,386.928 475.182,387.244 473.782,387.5 472.382,387.698 470.982,387.839 469.582,387.923 468.182,387.951 458.382,386.551 454.465,385.151 451.558,383.751 449.191,382.351 447.182,380.951 445.435,379.551 443.893,378.151 442.52,376.751 441.289,375.351 440.182,373.951 439.185,372.551 438.286,371.151 437.478,369.751 436.752,368.351 436.104,366.951 435.529,365.551 435.022,364.151 434.582,362.751 434.205,361.351 433.889,359.951 433.633,358.551 433.435,357.151 433.294,355.751 433.21,354.351 " stroke="black" fill="green" stroke-width="0.1" />
<polygon points="503.182,352.951 504.582,343.151 505.982,339.234 507.382,336.327 508.782,333.961 510.182,331.951 511.582,330.204 512.982,328.662 514.382,327.289 515.782,326.058 517.182,324.951 518.582,323.954 519.982,323.056 521.382,322.247 522.782,321.521 524.182,320.873 525.582,320.298 526.982,319.792 528.382,319.351 529.782,318.974 531.182,318.658 532.582,318.402 533.982,318.204 535.382,318.064 536.782,317.979 538.182,317.951 547.982,319.351 551.899,320.751 554.806,322.151 557.173,323.551 559.182,324.951 560.929,326.351 562.471,327.751 563.844,329.151 565.075,330.551 566.182,331.951 567.179,333.351 568.078,334.751 568.886,336.151 569.612,337.551 570.26,338.951 570.835,340.351 571.342,341.751 571.782,343.151 572.159,344.551 572.475,345.951 572.731,347.351 572.929,348.751 573.07,350.151 573.154,351.551 573.182,352.951 571.782,362.751 570.382,366.668 568.982,369.575 567.582,371.942 566.182,373.951 564.782,375.699 563.382,377.24 561.982,378.614 560.582,379.844 559.182,380.951 557.782,381.949 556.382,382.847 554.982,383.656 553.582,384.381 552.182,385.029 550.782,385.605 549.382,386.111 547.982,386.551 546.582,386.928 545.182,387.244 543.782,387.5 542.382,387.698 540.982,387.839 539.582,387.923 538.182,387.951 528.382,386.551 524.465,385.151 521.558,383.751 519.191,382.351 517.182,380.951 515.435,379.551 513.893,378.151 512.52,376.751 511.289,375.351 510.182,373.951 509.185,372.551 508.286,371.151 507.478,369.751 506.752,368.351 506.104,366.951 505.529,365.551 505.022,364.151 504.582,362.751 504.205,361.351 503.889,359.951 503.633,358.551 503.435,357.151 503.294,355.751 503.21,354.351 " stroke="black" fill="green" stroke-width="0.1" />
<polygon points="0.537566,282.951 1.93757,273.151 3.33757,269.234 4.73757,266.327 6.13757,263.961 7.53757,261.951 8.93757,260.204 10.3376,258.662 11.7376,257.289 13.1376,256.058 14.5376,254.951 15.9376,253.954 17.3376,253.056 18.7376,252.247 20.1376,251.521 21.5376,250.873 22.9376,250.298 24.3376,249.792 25.7376,249.351 27.1376,248.974 28.5376,248.658 29.9376,248.402 31.3376,248.204 32.7376,248.064 34.1376,247.979 35.5376,247.951 45.3376,249.351 49.2547,250.751 52.1616,252.151 54.5281,253.551 56.5376,254.951 58.2849,256.351 59.8267,257.751 61.2,259.151 62.4307,260.551 63.5376,261.951 64.5348,263.351 65.4334,264.751 66.242,266.151 66.9675,267.551 67.6156,268.951 68.1909,270.351 68.6972,271.751 69.1376,273.151 69.5146,274.551 69.8304,275.951 70.0867,277.351 70.2847,278.751 70.4254,280.151 70.5096,281.551 70.5376,282.951 69.1376,292.751 67.7376,296.668 66.3376,299.575 64.9376,301.942 63.5376,303.951 62.1376,305.699 60.7376,307.24 59.3376,308.614 57.9376,309.844 56.5376,310.951 55.1376,311.949 53.7376,312.847 52.3376,313.656 50.9376,314.381 49.5376,315.029 48.1376,315.605 46.7376,316.111 45.3376,316.551 43.9376,316.928 42.5376,317.244 41.1376,317.5 39.7376,317.698 38.3376,317.839 36.9376,317.923 35.5376,317.951 25.7376,316.551 21.8204,315.151 18.9135,313.751 16.547,312.351 14.5376,310.951 12.7903,309.551 11.2485,308.151 9.87514,306.751 8.64444,305.351 7.53757,303.951 6.54032,302.551 5.64175,301.151 4.83317,299.751 4.10764,298.351 3.45954,296.951 2.88424,295.551 2.37795,294.151 1.93757,292.751 1.56051,291.351 1.24471,289.951 0.98847,288.551 0.79048,287.151 0.649746,285.751 0.565577,284.351 " stroke="black" fill="green" stroke-width="0.1" />
<polygon points="70.5376,282.951 71.9376,273.151 73.3376,269.234 74.7376,266.327 76.1376,263.961 77.5376,261.951 78.9376,260.204 80.3376,258.662 81.7376,257.289 83.1376,256.058 84.5376,254.951 85.9376,253.954 87.3376,253.056 88.7376,252.247 90.1376,251.521 91.5376,250.873 92.9376,250.298 94.3376,249.792 95.7376,249.351 97.1376,248.974 98.5376,248.658 99.9376,248.402 101.338,248.204 102.738,248.064 104.138,247.979 105.538,247.951 115.338,249.351 119.255,250.751 122.162,252.151 124.528,253.551 126.538,254.951 128.285,256.351 129.827,257.751 131.2,259.151 132.431,260.551 133.538,261.951 134.535,263.351 135.433,264.751 136.242,266.151 136.967,267.551 137.616,268.951 138.191,270.351 138.697,271.751 139.138,273.151 139.515,274.551 139.83,275.951 140.087,277.351 140.285,278.751 140.425,280.151 140.51,281.551 140.538,282.951 139.138,292.751 137.738,296.668 136.338,299.575 134.938,301.942 133.538,303.951 132.138,305.699 130.738,307.24 129.338,308.614 127.938,309.844 126.538,310.951 125.138,311.949 123.738,312.847 122.338,313.656 120.938,314.381 119.538,315.029 118.138,315.605 116.738,316.111 115.338,316.551 113.938,316.928 112.538,317.244 111.138,317.5 109.738,317.698 108.338,317.839 106.938,317.923 105.538,317.951 95.7376,316.551 91.8204,315.151 88.9135,313.751 86.547,312.351 84.5376,310.951 82.7903,309.551 81.2485,308.151 79.8751,306.751 78.6444,305.351 77.5376,303.951 76.5403,302.551 75.6417,301.151 74.8332,299.751 74.1076,298.351 73.4595,296.951 72.8842,295.551 72.378,294.151 71.9376,292.751 71.5605,291.351 71.2447,289.951 70.9885,288.551 70.7905,287.151 70.6497,285.751 70.5656,284.351 " stroke="black" fill="green" stroke-width="0.1" />
<polygon points="140.538,282.951 141.938,273.151 143.338,269.234 144.738,266.327 146.138,263.961 147.538,261.951 148.938,260.204 150.338,258.662 151.738,257.289 153.138,256.058 154.538,254.951 155.938,253.954 157.338,253.056 158.738,252.247 160.138,251.521 161.538,250.873 162.938,250.298 164.338,249.792 165.738,249.351 167.138,248.974 168.538,248.658 169.938,248.402 171.338,248.204 172.738,248.064 174.138,247.979 175.538,247.951 185.338,249.351 189.255,250.751 192.162,252.151 194.528,253.551 196.538,254.951 198.285,256.351 199.827,257.751 201.2,259.151 202.431,260.551 203.538,261.951 204.535,263.351 205.433,264.751 206.242,266.151 206.967,267.551 207.616,268.951 208.191,270.351 208.697,271.751 209.138,273.151 209.515,274.551 209.83,275.951 210.087,277.351 210.285,278.751 210.425,280.151 210.51,281.551 210.538,282.951 209.138,292.751 207.738,296.668 206.338,299.575 204.938,301.942 203.538,303.951 202.138,305.699 200.738,307.24 199.338,308.614 197.938,309.844 196.538,310.951 195.138,311.949 193.738,312.847 192.338,313.656 190.938,314.381 189.538,315.029 188.138,315.605 186.738,316.111 185.338,316.551 183.938,316.928 182.538,317.244 181.138,317.5 179.738,317.698 178.338,317.839 176.938,317.923 175.538,317.951 165.738,316.551 161.82,315.151 158.913,313.751 156.547,312.351 154.538,310.951 152.79,309.551 151.248,308.151 149.875,306.751 148.644,305.351 147.538,303.951 146.54,302.551 145.642,301.151 144.833,299.751 144.108,298.351 143.46,296.951 142.884,295.551 142.378,294.151 141.938,292.751 141.561,291.351 141.245,289.951 140.988,288.551 140.79,287.151 140.65,285.751 140.566,284.351 " stroke="black" fill="green" stroke-width="0.1" />
<polygon points="210.538,282.951 211.938,273.151 213.338,269.234 214.738,266.327 216.138,263.961 217.538,261.951 218.938,260.204 220.338,258.662 221.738,257.289 223.138,256.058 224.538,254.951 225.938,253.954 227.338,253.056 228.738,252.247 230.138,251.521 231.538,250.873 232.938,250.298 234.338,249.792 235.738,249.351 237.138,248.974 238.538,248.658 239.938,248.402 241.338,248.204 242.738,248.064 244.138,247.979 245.538,247.951 255.338,249.351 259.255,250.751 262.162,252.151 264.528,253.551 266.538,254.951 268.285,256.351 269.827,257.751 271.2,259.151 272.431,260.551 273.538,261.951 274.535,263.351 275.433,264.751 276.242,266.151 276.967,267.551 277.616,268.951 278.191,270.351 278.697,271.751 279.138,273.151 279.515,274.551 279.83,275.951 280.087,277.351 280.285,278.751 280.425,280.151 280.51,281.551 280.538,282.951 279.138,292.751 277.738,296.668 276.338,299.575 274.938,301.942 273.538,303.951 272.138,305.699 270.738,307.24 269.338,308.614 267.938,309.844 266.538,310.951 265.138,311.949 263.738,312.847 262.338,313.656 260.938,314.381 259.538,315.029 258.138,315.605 256.738,316.111 255.338,316.551 253.938,316.928 252.538,317.244 251.138,317.5 249.738,317.698 248.338,317.839 246.938,317.923 245.538,317.951 235.738,316.551 231.82,315.151 228.913,313.751 226.547,312.351 224.538,310.951 222.79,309.551 221.248,308.151 219.875,306.751 218.644,305.351 217.538,303.951 216.54,302.551 215.642,301.151 214.833,299.751 214.108,298.351 213.46,296.951 212.884,295.551 212.378,294.151 211.938,292.751 211.561,291.351 211.245,289.951 210.988,288.551 210.79,287.151 210.65,285.751 210.566,284.351 " stroke="black" fill="green" stroke-width="0.1" />
<polygon points="280.538,282.951 281.938,273.151 283.338,269.234 284.738,266.327 286.138,263.961 287.538,261.951 288.938,260.204 290.338,258.662 291.738,257.289 293.138,256.058 294.538,254.951 295.938,253.954 297.338,253.056 298.738,252.247 300.138,251.521 301.538,250.873 302.938,250.298 304.338,249.792 305.738,249.351 307.138,248.974 308.538,248.658 309.938,248.402 311.338,248.204 312.738,248.064 314.138,247.979 315.538,247.951 325.338,249.351 329.255,250.751 332.162,252.151 334.528,253.551 336.538,254.951 338.285,256.351 339.827,257.751 341.2,259.151 342.431,260.551 343.538,261.951 344.535,263.351 345.433,264.751 346.242,266.151 346.967,267.551 347.616,268.951 348.191,270.351 348.697,271.751 349.138,273.151 349.515,274.551 349.83,275.951 350.087,277.351 350.285,278.751 350.425,280.151 350.51,281.551 350.538,282.951 349.138,292.751 347.738,296.668 346.338,299.575 344.938,301.942 343.538,303.951 342.138,305.699 340.738,307.24 339.338,308.614 337.938,309.844 336.538,310.951 335.138,311.949 333.738,312.847 332.338,313.656 330.938,314.381 329.538,315.029 328.138,315.605 326.738,316.111 325.338,316.551 323.938,316.928 322.538,317.244 321.138,317.5 319.738,317.698 318.338,317.839 316.938,317.923 315.538,317.951 305.738,316.551 301.82,315.151 298.913,313.751 296.547,312.351 294.538,310.951 292.79,309.551 291.248,308.151 289.875,306.751 288.644,305.351 287.538,303.951 286.54,302.551 285.642,301.151 284.833,299.751 284.108,298.351 283.46,296.951 282.884,295.551 282.378,294.151 281.938,292.751 281.561,291.351 281.245,289.951 280.988,288.551 280.79,287.151 280.65,285.751 280.566,284.351 " stroke="black" fill="green" stroke-width="0.1" />
<polygon points="350.538,282.951 351.938,273.151 353.338,269.234 354.738,266.327 356.138,263.961 357.538,261.951 358.938,260.204 360.338,258.662 361.738,257.289 363.138,256.058 364.538,254.951 365.938,253.954 367.338,253.056 368.738,252.247 370.138,251.521 371.538,250.873 372.938,250.298 374.338,249.792 375.738,249.351 377.138,248.974 378.538,248.658 379.938,248.402 381.338,248.204 382.738,248.064 384.138,247.979 385.538,247.951 395.338,249.351 399.255,250.751 402.162,252.151 404.528,253.551 406.538,254.951 408.285,256.351 409.827,257.751 411.2,259.151 412.431,260.551 413.538,261.951 414.535,263.351 415.433,264.751 416.242,266.151 416.967,267.551 417.616,268.951 418.191,270.351 418.697,271.751 419.138,273.151 419.515,274.551 419.83,275.951 420.087,277.351 420.285,278.751 420.425,280.151 420.51,281.551 420.538,282.951 419.138,292.751 417.738,296.668 416.338,299.575 414.938,301.942 413.538,303.951 412.138,305.699 410.738,307.24 409.338,308.614 407.938,309.844 406.538,310.951 405.138,311.949 403.738,312.847 402.338,313.656 400.938,314.381 399.538,315.029 398.138,315.605 396.738,316.111 395.338,316.551 393.938,316.928 392.538,317.244 391.138,317.5 389.738,317.698 388.338,317.839 386.938,317.923 385.538,317.951 375.738,316.551 371.82,315.151 368.913,313.751 366.547,312.351 364.538,310.951 362.79,309.551 361.248,308.151 359.875,306.751 358.644,305.351 357.538,303.951 356.54,302.551 355.642,301.151 354.833,299.751 354.108,298.351 353.46,296.951 352.884,295.551 352.378,294.151 351.938,292.751 351.561,291.351 351.245,289.951 350.988,288.551 350.79,287.151 350.65,285.751 350.566,284.351 " stroke="black" fill="green" stroke-width="0.1" />
<polygon points="420.538,282.951 421.938,273.151 423.338,269.234 424.738,266.327 426.138,263.961 427.538,261.951 428.938,260.204 430.338,258.662 431.738,257.289 433.138,256.058 434.538,254.951 435.938,253.954 437.338,253.056 438.738,252.247 440.138,251.521 441.538,250.873 442.938,250.298 444.338,249.792 445.738,249.351 447.138,248.974 448.538,248.658 449.938,248.402 451.338,248.204 452.738,248.064 454.138,247.979 455.538,247.951 465.338,249.351 469.255,250.751 472.162,252.151 474.528,253.551 476.538,254.951 478.285,256.351 479.827,257.751 481.2,259.151 482.431,260.551 483.538,261.951 484.535,263.351 485.433,264.751 486.242,266.151 486.967,267.551 487.616,268.951 488.191,270.351 488.697,271.751 489.138,273.151 489.515,274.551 489.83,275.951 490.087,277.351 490.285,278.751 490.425,280.151 490.51,281.551 490.538,282.951 489.138,292.751 487.738,296.668 486.338,299.575 484.938,301.942 483.538,303.951 482.138,305.699 480.738,307.24 479.338,308.614 477.938,309.844 476.538,310.951 475.138,311.949 473.738,312.847 472.338,313.656 470.938,314.381 469.538,315.029 468.138,315.605 466.738,316.111 465.338,316.551 463.938,316.928 462.538,317.244 461.138,317.5 459.738,317.698 458.338,317.839 456.938,317.923 455.538,317.951 445.738,316.551 441.82,315.151 438.913,313.751 436.547,312.351 434.538,310.951 432.79,309.551 431.248,308.151 429.875,306.751 428.644,305.351 427.538,303.951 426.54,302.551 425.642,301.151 424.833,299.751 424.108,298.351 423.46,296.951 422.884,295.551 422.378,294.151 421.938,292.751 421.561,291.351 421.245,289.951 420.988,288.551 420.79,287.151 420.65,285.751 420.566,284.351 " stroke="black" fill="green" stroke-width="0.1" />
<polygon points="490.538,282.951 491.938,273.151 493.338,269.234 494.738,266.327 496.138,263.961 497.538,261.951 498.938,260.204 500.338,258.662 501.738,257.289 503.138,256.058 504.538,254.951 505.938,253.954 507.338,253.056 508.738,252.247 510.138,251.521 511.538,250.873 512.938,250.298 514.338,249.792 515.738,249.351 517.138,248.974 518.538,248.658 519.938,248.402 521.338,248.204 522.738,248.064 524.138,247.979 525.538,247.951 535.338,249.351 539.255,250.751 542.162,252.151 544.528,253.551 546.538,254.951 548.285,256.351 549.827,257.751 551.2,259.151 552.431,260.551 553.538,261.951 554.535,263.351 555.433,264.751 556.242,266.151 556.967,267.551 557.616,268.951 558.191,270.351 558.697,271.751 559.138,273.151 559.515,274.551 559.83,275.951 560.087,277.351 560.285,278.751 560.425,280.151 560.51,281.551 560.538,282.951 559.138,292.751 557.738,296.668 556.338,299.575 554.938,301.942 553.538,303.951 552.138,305.699 550.738,307.24 549.338,308.614 547.938,309.844 546.538,310.951 545.138,311.949 543.738,312.847 542.338,313.656 540.938,314.381 539.538,315.029 538.138,315.605 536.738,316.111 535.338,316.551 533.938,316.928 532.538,317.244 531.138,317.5 529.738,317.698 528.338,317.839 526.938,317.923 525.538,317.951 515.738,316.551 511.82,315.151 508.913,313.751 506.547,312.351 504.538,310.951 502.79,309.551 501.248,308.151 499.875,306.751 498.644,305.351 497.538,303.951 496.54,302.551 495.642,301.151 494.833,299.751 494.108,298.351 493.46,296.951 492.884,295.551 492.378,294.151 491.938,292.751 491.561,291.351 491.245,289.951 490.988,288.551 490.79,287.151 490.65,285.751 490.566,284.351 " stroke="black" fill="green" stroke-width="0.1" />
<polygon points="12.9068,212.951 14.3068,203.151 15.7068,199.234 17.1068,196.327 18.5068,193.961 19.9068,191.951 21.3068,190.204 22.7068,188.662 24.1068,187.289 25.5068,186.058 26.9068,184.951 28.3068,183.954 29.7068,183.056 31.1068,182.247 32.5068,181.521 33.9068,180.873 35.3068,180.298 36.7068,179.792 38.1068,179.351 39.5068,178.974 40.9068,178.658 42.3068,178.402 43.7068,178.204 45.1068,178.064 46.5068,177.979 47.9068,177.951 57.7068,179.351 61.6239,180.751 64.5308,182.151 66.8973,183.551 68.9068,184.951 70.6541,186.351 72.1958,187.751 73.5692,189.151 74.7999,190.551 75.9068,191.951 76.904,193.351 77.8026,194.751 78.6112,196.151 79.3367,197.551 79.9848,198.951 80.5601,200.351 81.0664,201.751 81.5068,203.151 81.8838,204.551 82.1996,205.951 82.4559,207.351 82.6538,208.751 82.7946,210.151 82.8787,211.551 82.9068,212.951 81.5068,222.751 80.1068,226.668 78.7068,229.575 77.3068,231.942 75.9068,233.951 74.5068,235.699 73.1068,237.24 71.7068,238.614 70.3068,239.844 68.9068,240.951 67.5068,241.949 66.1068,242.847 64.7068,243.656 63.3068,244.381 61.9068,245.029 60.5068,245.605 59.1068,246.111 57.7068,246.551 56.3068,246.928 54.9068,247.244 53.5068,247.5 52.1068,247.698 50.7068,247.839 49.3068,247.923 47.9068,247.951 38.1068,246.551 34.1896,245.151 31.2827,243.751 28.9162,242.351 26.9068,240.951 25.1594,239.551 23.6177,238.151 22.2443,236.751 21.0136,235.351 19.9068,233.951 18.9095,232.551 18.0109,231.151 17.2024,229.751 16.4768,228.351 15.8287,226.951 15.2534,225.551 14.7471,224.151 14.3068,222.751 13.9297,221.351 13.6139,219.951 13.3577,218.551 13.1597,217.151 13.0189,215.751 12.9348,214.351 " stroke="black" fill="green" stroke-width="0.1" />
<polygon points="82.9068,212.951 84.3068,203.151 85.7068,199.234 87.1068,196.327 88.5068,193.961 89.9068,191.951 91.3068,190.204 92.7068,188.662 94.1068,187.289 95.5068,186.058 96.9068,184.951 98.3068,183.954 99.7068,183.056 101.107,182.247 102.507,181.521 103.907,180.873 105.307,180.298 106.707,179.792 108.107,179.351 109.507,178.974 110.907,178.658 112.307,178.402 113.707,178.204 115.107,178.064 116.507,177.979 117.907,177.951 127.707,179.351 131.624,180.751 134.531,182.151 136.897,183.551 138.907,184.951 140.654,186.351 142.196,187.751 143.569,189.151 144.8,190.551 145.907,191.951 146.904,193.351 147.803,194.751 148.611,196.151 149.337,197.551 149.985,198.951 150.56,200.351 151.066,201.751 151.507,203.151 151.884,204.551 152.2,205.951 152.456,207.351 152.654,208.751 152.795,210.151 152.879,211.551 152.907,212.951 151.507,222.751 150.107,226.668 148.707,229.575 147.307,231.942 145.907,233.951 144.507,235.699 143.107,237.24 141.707,238.614 140.307,239.844 138.907,240.951 137.507,241.949 136.107,242.847 134.707,243.656 133.307,244.381 131.907,245.029 130.507,245.605 129.107,246.111 127.707,246.551 126.307,246.928 124.907,247.244 123.507,247.5 122.107,247.698 120.707,247.839 119.307,247.923 117.907,247.951 108.107,246.551 104.19,245.151 101.283,243.751 98.9162,242.351 96.9068,240.951 95.1594,239.551 93.6177,238.151 92.2443,236.751 91.0136,235.351 89.9068,233.951 88.9095,232.551 88.0109,231.151 87.2024,229.751 86.4768,228.351 85.8287,226.951 85.2534,225.551 84.7471,224.151 84.3068,222.751 83.9297,221.351 83.6139,219.951 83.3577,218.551 83.1597,217.151 83.0189,215.751 82.9348,214.351 " stroke="black" fill="green" stroke-width="0.1" />
<polygon points="152.907,212.951 154.307,203.151 155.707,199.234 157.107,196.327 158.507,193.961 159.907,191.951 161.307,190.204 162.707,188.662 164.107,187.289 165.507,186.058 166.907,184.951 168.307,183.954 169.707,183.056 171.107,182.247 172.507,181.521 173.907,180.873 175.307,180.298 176.707,179.792 178.107,179.351 179.507,178.974 180.907,178.658 182.307,178.402 183.707,178.204 185.107,178.064 186.507,177.979 187.907,177.951 197.707,179.351 201.624,180.751 204.531,182.151 206.897,183.551 208.907,184.951 210.654,186.351 212.196,187.751 213.569,189.151 214.8,190.551 215.907,191.951 216.904,193.351 217.803,194.751 218.611,196.151 219.337,197.551 219.985,198.951 220.56,200.351 221.066,201.751 221.507,203.151 221.884,204.551 222.2,205.951 222.456,207.351 222.654,208.751 222.795,210.151 222.879,211.551 222.907,212.951 221.507,222.751 220.107,226.668 218.707,229.575 217.307,231.942 215.907,233.951 214.507,235.699 213.107,237.24 211.707,238.614 210.307,239.844 208.907,240.951 207.507,241.949 206.107,242.847 204.707,243.656 203.307,244.381 201.907,245.029 200.507,245.605 199.107,246.111 197.707,246.551 196.307,246.928 194.907,247.244 193.507,247.5 192.107,247.698 190.707,247.839 189.307,247.923 187.907,247.951 178.107,246.551 174.19,245.151 171.283,243.751 168.916,242.351 166.907,240.951 165.159,239.551 163.618,238.151 162.244,236.751 161.014,235.351 159.907,233.951 158.91,232.551 158.011,231.151 157.202,229.751 156.477,228.351 155.829,226.951 155.253,225.551 154.747,224.151 154.307,222.751 153.93,221.351 153.614,219.951 153.358,218.551 153.16,217.151 153.019,215.751 152.935,214.351 " stroke="black" fill="green" stroke-width="0.1" />
<polygon points="222.907,212.951 224.307,203.151 225.707,199.234 227.107,196.327 228.507,193.961 229.907,191.951 231.307,190.204 232.707,188.662 234.107,187.289 235.507,186.058 236.907,184.951 238.307,183.954 239.707,183.056 241.107,182.247 242.507,181.521 243.907,180.873 245.307,180.298 246.707,179.792 248.107,179.351 249.507,178.974 250.907,178.658 252.307,178.402 253.707,178.204 255.107,178.064 256.507,177.979 257.907,177.951 267.707,179.351 271.624,180.751 274.531,182.151 276.897,183.551 278.907,184.951 280.654,186.351 282.196,187.751 283.569,189.151 284.8,190.551 285.907,191.951 286.904,193.351 287.803,194.751 288.611,196.151 289.337,197.551 289.985,198.951 290.56,200.351 291.066,201.751 291.507,203.151 291.884,204.551 292.2,205.951 292.456,207.351 292.654,208.751 292.795,210.151 292.879,211.551 292.907,212.951 291.507,222.751 290.107,226.668 288.707,229.575 287.307,231.942 285.907,233.951 284.507,235.699 283.107,237.24 281.707,238.614 280.307,239.844 278.907,240.951 277.507,241.949 276.107,242.847 274.707,243.656 273.307,244.381 271.907,245.029 270.507,245.605 269.107,246.111 267.707,246.551 266.307,246.928 264.907,247.244 263.507,247.5 262.107,247.698 260.707,247.839 259.307,247.923 257.907,247.951 248.107,246.551 244.19,245.151 241.283,243.751 238.916,242.351 236.907,240.951 235.159,239.551 233.618,238.151 232.244,236.751 231.014,235.351 229.907,233.951 228.91,232.551 228.011,231.151 227.202,229.751 226.477,228.351 225.829,226.951 225.253,225.551 224.747,224.151 224.307,222.751 223.93,221.351 223.614,219.951 223.358,218.551 223.16,217.151 223.019,215.751 222.935,214.351 " stroke="black" fill="green" stroke-width="0.1" />
<polygon points="292.907,212.951 294.307,203.151 295.707,199.234 297.107,196.327 298.507,193.961 299.907,191.951 301.307,190.204 302.707,188.662 304.107,187.289 305.507,186.058 306.907,184.951 308.307,183.954 309.707,183.056 311.107,182.247 312.507,181.521 313.907,180.873 315.307,180.298 316.707,179.792 318.107,179.351 319.507,178.974 320.907,178.658 322.307,178.402 323.707,178.204 325.107,178.064 326.507,177.979 327.907,177.951 337.707,179.351 341.624,180.751 344.531,182.151 346.897,183.551 348.907,184.951 350.654,186.351 352.196,187.751 353.569,189.151 354.8,190.551 355.907,191.951 356.904,193.351 357.803,194.751 358.611,196.151 359.337,197.551 359.985,198.951 360.56,200.351 361.066,201.751 361.507,203.151 361.884,204.551 362.2,205.951 362.456,207.351 362.654,208.751 362.795,210.151 362.879,211.551 362.907,212.951 361.507,222.751 360.107,226.668 358.707,229.575 357.307,231.942 355.907,233.951 354.507,235.699 353.107,237.24 351.707,238.614 350.307,239.844 348.907,240.951 347.507,241.949 346.107,242.847 344.707,243.656 343.307,244.381 341.907,245.029 340.507,245.605 339.107,246.111 337.707,246.551 336.307,246.928 334.907,247.244 333.507,247.5 332.107,247.698 330.707,247.839 329.307,247.923 327.907,247.951 318.107,246.551 314.19,245.151 311.283,243.751 308.916,242.351 306.907,240.951 305.159,239.551 303.618,238.151 302.244,236.751 301.014,235.351 299.907,233.951 298.91,232.551 298.011,231.151 297.202,229.751 296.477,228.351 295.829,226.951 295.253,225.551 294.747,224.151 294.307,222.751 293.93,221.351 293.614,219.951 293.358,218.551 293.16,217.151 293.019,215.751 292.935,214.351 " stroke="black" fill="green" stroke-width="0.1" />
<polygon points="362.907,212.951 364.307,203.151 365.707,199.234 367.107,196.327 368.507,193.961 369.907,191.951 371.307,190.204 372.707,188.662 374.107,187.289 375.507,186.058 376.907,184.951 378.307,183.954 379.707,183.056 381.107,182.247 382.507,181.521 383.907,180.873 385.307,180.298 386.707,179.792 388.107,179.351 389.507,178.974 390.907,178.658 392.307,178.402 393.707,178.204 395.107,178.064 396.507,177.979 397.907,177.951 407.707,179.351 411.624,180.751 414.531,182.151 416.897,183.551 418.907,184.951 420.654,186.351 422.196,187.751 423.569,189.151 424.8,190.551 425.907,191.951 426.904,193.351 427.803,194.751 428.611,196.151 429.337,197.551 429.985,198.951 430.56,200.351 431.066,201.751 431.507,203.151 431.884,204.551 432.2,205.951 432.456,207.351 432.654,208.751 432.795,210.151 432.879,211.551 432.907,212.951 431.507,222.751 430.107,226.668 428.707,229.575 427.307,231.942 425.907,233.951 424.507,235.699 423.107,237.24 421.707,238.614 420.307,239.844 418.907,240.951 417.507,241.949 416.107,242.847 414.707,243.656 413.307,244.381 411.907,245.029 410.507,245.605 409.107,246.111 407.707,246.551 406.307,246.928 404.907,247.244 403.507,247.5 402.107,247.698 400.707,247.839 399.307,247.923 397.907,247.951 388.107,246.551 384.19,245.151 381.283,243.751 378.916,242.351 376.907,240.951 375.159,239.551 373.618,238.151 372.244,236.751 371.014,235.351 369.907,233.951 368.91,232.551 368.011,231.151 367.202,229.751 366.477,228.351 365.829,226.951 365.253,225.551 364.747,224.151 364.307,222.751 363.93,221.351 363.614,219.951 363.358,218.551 363.16,217.151 363.019,215.751 362.935,214.351 " stroke="black" fill="green" stroke-width="0.1" />
<polygon points="432.907,212.951 434.307,203.151 435.707,199.234 437.107,196.327 438.507,193.961 439.907,191.951 441.307,190.204 442.707,188.662 444.107,187.289 445.507,186.058 446.907,184.951 448.307,183.954 449.707,183.056 451.107,182.247 452.507,181.521 453.907,180.873 455.307,180.298 456.707,179.792 458.107,179.351 459.507,178.974 460.907,178.658 462.307,178.402 463.707,178.204 465.107,178.064 466.507,177.979 467.907,177.951 477.707,179.351 481.624,180.751 484.531,182.151 486.897,183.551 488.907,184.951 490.654,186.351 492.196,187.751 493.569,189.151 494.8,190.551 495.907,191.951 496.904,193.351 497.803,194.751 498.611,196.151 499.337,197.551 499.985,198.951 500.56,200.351 501.066,201.751 501.507,203.151 501.884,204.551 502.2,205.951 502.456,207.351 502.654,208.751 502.795,210.151 502.879,211.551 502.907,212.951 501.507,222.751 500.107,226.668 498.707,229.575 497.307,231.942 495.907,233.951 494.507,235.699 493.107,237.24 491.707,238.614 490.307,239.844 488.907,240.951 487.507,241.949 486.107,242.847 484.707,243.656 483.307,244.381 481.907,245.029 480.507,245.605 479.107,246.111 477.707,246.551 476.307,246.928 474.907,247.244 473.507,247.5 472.107,247.698 470.707,247.839 469.307,247.923 467.907,247.951 458.107,246.551 454.19,245.151 451.283,243.751 448.916,242.351 446.907,240.951 445.159,239.551 443.618,238.151 442.244,236.751 441.014,235.351 439.907,233.951 438.91,232.551 438.011,231.151 437.202,229.751 436.477,228.351 435.829,226.951 435.253,225.551 434.747,224.151 434.307,222.751 433.93,221.351 433.614,219.951 433.358,218.551 433.16,217.151 433.019,215.751 432.935,214.351 " stroke="black" fill="green" stroke-width="0.1" />
<polygon points="502.907,212.951 504.307,203.151 505.707,199.234 507.107,196.327 508.507,193.961 509.907,191.951 511.307,190.204 512.707,188.662 514.107,187.289 515.507,186.058 516.907,184.951 518.307,183.954 519.707,183.056 521.107,182.247 522.507,181.521 523.907,180.873 525.307,180.298 526.707,179.792 528.107,179.351 529.507,178.974 530.907,178.658 532.307,178.402 533.707,178.204 535.107,178.064 536.507,177.979 537.907,177.951 547.707,179.351 551.624,180.751 554.531,182.151 556.897,183.551 558.907,184.951 560.654,186.351 562.196,187.751 563.569,189.151 564.8,190.551 565.907,191.951 566.904,193.351 567.803,194.751 568.611,196.151 569.337,197.551 569.985,198.951 570.56,200.351 571.066,201.751 571.507,203.151 571.884,204.551 572.2,205.951 572.456,207.351 572.654,208.751 572.795,210.151 572.879,211.551 572.907,212.951 571.507,222.751 570.107,226.668 568.707,229.575 567.307,231.942 565.907,233.951 564.507,235.699 563.107,237.24 561.707,238.614 560.307,239.844 558.907,240.951 557.507,241.949 556.107,242.847 554.707,243.656 553.307,244.381 551.907,245.029 550.507,245.605 549.107,246.111 547.707,246.551 546.307,246.928 544.907,247.244 543.507,247.5 542.107,247.698 540.707,247.839 539.307,247.923 537.907,247.951 528.107,246.551 524.19,245.151 521.283,243.751 518.916,242.351 516.907,240.951 515.159,239.551 513.618,238.151 512.244,236.751 511.014,235.351 509.907,233.951 508.91,232.551 508.011,231.151 507.202,229.751 506.477,228.351 505.829,226.951 505.253,225.551 504.747,224.151 504.307,222.751 503.93,221.351 503.614,219.951 503.358,218.551 503.16,217.151 503.019,215.751 502.935,214.351 " stroke="black" fill="green" stroke-width="0.1" />
<polygon points="44.3915,142.951 45.7915,133.151 47.1915,129.234 48.5915,126.327 49.9915,123.961 51.3915,121.951 52.7915,120.204 54.1915,118.662 55.5915,117.289 56.9915,116.058 58.3915,114.951 59.7915,113.954 61.1915,113.056 62.5915,112.247 63.9915,111.521 65.3915,110.873 66.7915,110.298 68.1915,109.792 69.5915,109.351 70.9915,108.974 72.3915,108.658 73.7915,108.402 75.1915,108.204 76.5915,108.064 77.9915,107.979 79.3915,107.951 89.1915,109.351 93.1086,110.751 96.0156,112.151 98.382,113.551 100.391,114.951 102.139,116.351 103.681,117.751 105.054,119.151 106.285,120.551 107.391,121.951 108.389,123.351 109.287,124.751 110.096,126.151 110.821,127.551 111.47,128.951 112.045,130.351 112.551,131.751 112.991,133.151 113.369,134.551 113.684,135.951 113.941,137.351 114.139,138.751 114.279,140.151 114.363,141.551 114.391,142.951 112.991,152.751 111.591,156.668 110.191,159.575 108.791,161.942 107.391,163.951 105.991,165.699 104.591,167.24 103.191,168.614 101.791,169.844 100.391,170.951 98.9915,171.949 97.5915,172.847 96.1915,173.656 94.7915,174.381 93.3915,175.029 91.9915,175.605 90.5915,176.111 89.1915,176.551 87.7915,176.928 86.3915,177.244 84.9915,177.5 83.5915,177.698 82.1915,177.839 80.7915,177.923 79.3915,177.951 69.5915,176.551 65.6743,175.151 62.7674,173.751 60.401,172.351 58.3915,170.951 56.6442,169.551 55.1024,168.151 53.7291,166.751 52.4984,165.351 51.3915,163.951 50.3942,162.551 49.4957,161.151 48.6871,159.751 47.9616,158.351 47.3134,156.951 46.7381,155.551 46.2319,154.151 45.7915,152.751 45.4144,151.351 45.0986,149.951 44.8424,148.551 44.6444,147.151 44.5037,145.751 44.4195,144.351 " stroke="black" fill="green" stroke-width="0.1" />
<polygon points="114.391,142.951 115.791,133.151 117.191,129.234 118.591,126.327 119.991,123.961 121.391,121.951 122.791,120.204 124.191,118.662 125.591,117.289 126.991,116.058 128.391,114.951 129.791,113.954 131.191,113.056 132.591,112.247 133.991,111.521 135.391,110.873 136.791,110.298 138.191,109.792 139.591,109.351 140.991,108.974 142.391,108.658 143.791,108.402 145.191,108.204 146.591,108.064 147.991,107.979 149.391,107.951 159.191,109.351 163.109,110.751 166.016,112.151 168.382,113.551 170.391,114.951 172.139,116.351 173.681,117.751 175.054,119.151 176.285,120.551 177.391,121.951 178.389,123.351 179.287,124.751 180.096,126.151 180.821,127.551 181.47,128.951 182.045,130.351 182.551,131.751 182.991,133.151 183.369,134.551 183.684,135.951 183.941,137.351 184.139,138.751 184.279,140.151 184.363,141.551 184.391,142.951 182.991,152.751 181.591,156.668 180.191,159.575 178.791,161.942 177.391,163.951 175.991,165.699 174.591,167.24 173.191,168.614 171.791,169.844 170.391,170.951 168.991,171.949 167.591,172.847 166.191,173.656 164.791,174.381 163.391,175.029 161.991,175.605 160.591,176.111 159.191,176.551 157.791,176.928 156.391,177.244 154.991,177.5 153.591,177.698 152.191,177.839 150.791,177.923 149.391,177.951 139.591,176.551 135.674,175.151 132.767,173.751 130.401,172.351 128.391,170.951 126.644,169.551 125.102,168.151 123.729,166.751 122.498,165.351 121.391,163.951 120.394,162.551 119.496,161.151 118.687,159.751 117.962,158.351 117.313,156.951 116.738,155.551 116.232,154.151 115.791,152.751 115.414,151.351 115.099,149.951 114.842,148.551 114.644,147.151 114.504,145.751 114.419,144.351 " stroke="black" fill="green" stroke-width="0.1" />
<polygon points="184.391,142.951 185.791,133.151 187.191,129.234 188.591,126.327 189.991,123.961 191.391,121.951 192.791,120.204 194.191,118.662 195.591,117.289 196.991,116.058 198.391,114.951 199.791,113.954 201.191,113.056 202.591,112.247 203.991,111.521 205.391,110.873 206.791,110.298 208.191,109.792 209.591,109.351 210.991,108.974 212.391,108.658 213.791,108.402 215.191,108.204 216.591,108.064 217.991,107.979 219.391,107.951 229.191,109.351 233.109,110.751 236.016,112.151 238.382,113.551 240.391,114.951 242.139,116.351 243.681,117.751 245.054,119.151 246.285,120.551 247.391,121.951 248.389,123.351 249.287,124.751 250.096,126.151 250.821,127.551 251.47,128.951 252.045,130.351 252.551,131.751 252.991,133.151 253.369,134.551 253.684,135.951 253.941,137.351 254.139,138.751 254.279,140.151 254.363,141.551 254.391,142.951 252.991,152.751 251.591,156.668 250.191,159.575 248.791,161.942 247.391,163.951 245.991,165.699 244.591,167.24 243.191,168.614 241.791,169.844 240.391,170.951 238.991,171.949 237.591,172.847 236.191,173.656 234.791,174.381 233.391,175.029 231.991,175.605 230.591,176.111 229.191,176.551 227.791,176.928 226.391,177.244 224.991,177.5 223.591,177.698 222.191,177.839 220.791,177.923 219.391,177.951 209.591,176.551 205.674,175.151 202.767,173.751 200.401,172.351 198.391,170.951 196.644,169.551 195.102,168.151 193.729,166.751 192.498,165.351 191.391,163.951 190.394,162.551 189.496,161.151 188.687,159.751 187.962,158.351 187.313,156.951 186.738,155.551 186.232,154.151 185.791,152.751 185.414,151.351 185.099,149.951 184.842,148.551 184.644,147.151 184.504,145.751 184.419,144.351 " stroke="black" fill="green" stroke-width="0.1" />
<polygon points="254.391,142.951 255.791,133.151 257.191,129.234 258.591,126.327 259.991,123.961 261.391,121.951 262.791,120.204 264.191,118.662 265.591,117.289 266.991,116.058 268.391,114.951 269.791,113.954 271.191,113.056 272.591,112.247 273.991,111.521 275.391,110.873 276.791,110.298 278.191,109.792 279.591,109.351 280.991,108.974 282.391,108.658 283.791,108.402 285.191,108.204 286.591,108.064 287.991,107.979 289.391,107.951 299.191,109.351 303.109,110.751 306.016,112.151 308.382,113.551 310.391,114.951 312.139,116.351 313.681,117.751 315.054,119.151 316.285,120.551 317.391,121.951 318.389,123.351 319.287,124.751 320.096,126.151 320.821,127.551 321.47,128.951 322.045,130.351 322.551,131.751 322.991,133.151 323.369,134.551 323.684,135.951 323.941,137.351 324.139,138.751 324.279,140.151 324.363,141.551 324.391,142.951 322.991,152.751 321.591,156.668 320.191,159.575 318.791,161.942 317.391,163.951 315.991,165.699 314.591,167.24 313.191,168.614 311.791,169.844 310.391,170.951 308.991,171.949 307.591,172.847 306.191,173.656 304.791,174.381 303.391,175.029 301.991,175.605 300.591,176.111 299.191,176.551 297.791,176.928 296.391,177.244 294.991,177.5 293.591,177.698 292.191,177.839 290.791,177.923 289.391,177.951 279.591,176.551 275.674,175.151 272.767,173.751 270.401,172.351 268.391,170.951 266.644,169.551 265.102,168.151 263.729,166.751 262.498,165.351 261.391,163.951 260.394,162.551 259.496,161.151 258.687,159.751 257.962,158.351 257.313,156.951 256.738,155.551 256.232,154.151 255.791,152.751 255.414,151.351 255.099,149.951 254.842,148.551 254.644,147.151 254.504,145.751 254.419,144.351 " stroke="black" fill="green" stroke-width="0.1" />
<polygon points="324.391,142.951 325.791,133.151 327.191,129.234 328.591,126.327 329.991,123.961 331.391,121.951 332.791,120.204 334.191,118.662 335.591,117.289 336.991,116.058 338.391,114.951 339.791,113.954 341.191,113.056 342.591,112.247 343.991,111.521 345.391,110.873 346.791,110.298 348.191,109.792 349.591,109.351 350.991,108.974 352.391,108.658 353.791,108.402 355.191,108.204 356.591,108.064 357.991,107.979 359.391,107.951 369.191,109.351 373.109,110.751 376.016,112.151 378.382,113.551 380.391,114.951 382.139,116.351 383.681,117.751 385.054,119.151 386.285,120.551 387.391,121.951 388.389,123.351 389.287,124.751 390.096,126.151 390.821,127.551 391.47,128.951 392.045,130.351 392.551,131.751 392.991,133.151 393.369,134.551 393.684,135.951 393.941,137.351 394.139,138.751 394.279,140.151 394.363,141.551 394.391,142.951 392.991,152.751 391.591,156.668 390.191,159.575 388.791,161.942 387.391,163.951 385.991,165.699 384.591,167.24 383.191,168.614 381.791,169.844 380.391,170.951 378.991,171.949 377.591,172.847 376.191,173.656 374.791,174.381 373.391,175.029 371.991,175.605 370.591,176.111 369.191,176.551 367.791,176.928 366.391,177.244 364.991,177.5 363.591,177.698 362.191,177.839 360.791,177.923 359.391,177.951 349.591,176.551 345.674,175.151 342.767,173.751 340.401,172.351 338.391,170.951 336.644,169.551 335.102,168.151 333.729,166.751 332.498,165.351 331.391,163.951 330.394,162.551 329.496,161.151 328.687,159.751 327.962,158.351 327.313,156.951 326.738,155.551 326.232,154.151 325.791,152.751 325.414,151.351 325.099,149.951 324.842,148.551 324.644,147.151 324.504,145.751 324.419,144.351 " stroke="black" fill="green" stroke-width="0.1" />
<polygon points="394.391,142.951 395.791,133.151 397.191,129.234 398.591,126.327 399.991,123.961 401.391,121.951 402.791,120.204 404.191,118.662 405.591,117.289 406.991,116.058 408.391,114.951 409.791,113.954 411.191,113.056 412.591,112.247 413.991,111.521 415.391,110.873 416.791,110.298 418.191,109.792 419.591,109.351 420.991,108.974 422.391,108.658 423.791,108.402 425.191,108.204 426.591,108.064 427.991,107.979 429.391,107.951 439.191,109.351 443.109,110.751 446.016,112.151 448.382,113.551 450.391,114.951 452.139,116.351 453.681,117.751 455.054,119.151 456.285,120.551 457.391,121.951 458.389,123.351 459.287,124.751 460.096,126.151 460.821,127.551 461.47,128.951 462.045,130.351 462.551,131.751 462.991,133.151 463.369,134.551 463.684,135.951 463.941,137.351 464.139,138.751 464.279,140.151 464.363,141.551 464.391,142.951 462.991,152.751 461.591,156.668 460.191,159.575 458.791,161.942 457.391,163.951 455.991,165.699 454.591,167.24 453.191,168.614 451.791,169.844 450.391,170.951 448.991,171.949 447.591,172.847 446.191,173.656 444.791,174.381 443.391,175.029 441.991,175.605 440.591,176.111 439.191,176.551 437.791,176.928 436.391,177.244 434.991,177.5 433.591,177.698 432.191,177.839 430.791,177.923 429.391,177.951 419.591,176.551 415.674,175.151 412.767,173.751 410.401,172.351 408.391,170.951 406.644,169.551 405.102,168.151 403.729,166.751 402.498,165.351 401.391,163.951 400.394,162.551 399.496,161.151 398.687,159.751 397.962,158.351 397.313,156.951 396.738,155.551 396.232,154.151 395.791,152.751 395.414,151.351 395.099,149.951 394.842,148.551 394.644,147.151 394.504,145.751 394.419,144.351 " stroke="black" fill="green" stroke-width="0.1" />
<polygon points="464.391,142.951 465.791,133.151 467.191,129.234 468.591,126.327 469.991,123.961 471.391,121.951 472.791,120.204 474.191,118.662 475.591,117.289 476.991,116.058 478.391,114.951 479.791,113.954 481.191,113.056 482.591,112.247 483.991,111.521 485.391,110.873 486.791,110.298 488.191,109.792 489.591,109.351 490.991,108.974 492.391,108.658 493.791,108.402 495.191,108.204 496.591,108.064 497.991,107.979 499.391,107.951 509.191,109.351 513.109,110.751 516.016,112.151 518.382,113.551 520.391,114.951 522.139,116.351 523.681,117.751 525.054,119.151 526.285,120.551 527.391,121.951 528.389,123.351 529.287,124.751 530.096,126.151 530.821,127.551 531.47,128.951 532.045,130.351 532.551,131.751 532.991,133.151 533.369,134.551 533.684,135.951 533.941,137.351 534.139,138.751 534.279,140.151 534.363,141.551 534.391,142.951 532.991,152.751 531.591,156.668 530.191,159.575 528.791,161.942 527.391,163.951 525.991,165.699 524.591,167.24 523.191,168.614 521.791,169.844 520.391,170.951 518.991,171.949 517.591,172.847 516.191,173.656 514.791,174.381 513.391,175.029 511.991,175.605 510.591,176.111 509.191,176.551 507.791,176.928 506.391,177.244 504.991,177.5 503.591,177.698 502.191,177.839 500.791,177.923 499.391,177.951 489.591,176.551 485.674,175.151 482.767,173.751 480.401,172.351 478.391,170.951 476.644,169.551 475.102,168.151 473.729,166.751 472.498,165.351 471.391,163.951 470.394,162.551 469.496,161.151 468.687,159.751 467.962,158.351 467.313,156.951 466.738,155.551 466.232,154.151 465.791,152.751 465.414,151.351 465.099,149.951 464.842,148.551 464.644,147.151 464.504,145.751 464.419,144.351 " stroke="black" fill="green" stroke-width="0.1" />
<polygon points="103.916,72.9513 105.316,63.1513 106.716,59.2342 108.116,56.3273 109.516,53.9608 110.916,51.9513 112.316,50.204 113.716,48.6622 115.116,47.2889 116.516,46.0582 117.916,44.9513 119.316,43.9541 120.716,43.0555 122.116,42.2469 123.516,41.5214 124.916,40.8733 126.316,40.298 127.716,39.7917 129.116,39.3513 130.516,38.9743 131.916,38.6585 133.316,38.4022 134.716,38.2043 136.116,38.0635 137.516,37.9793 138.916,37.9513 148.716,39.3513 152.633,40.7513 155.54,42.1513 157.907,43.5513 159.916,44.9513 161.663,46.3513 163.205,47.7513 164.578,49.1513 165.809,50.5513 166.916,51.9513 167.913,53.3513 168.812,54.7513 169.62,56.1513 170.346,57.5513 170.994,58.9513 171.569,60.3513 172.076,61.7513 172.516,63.1513 172.893,64.5513 173.209,65.9513 173.465,67.3513 173.663,68.7513 173.804,70.1513 173.888,71.5513 173.916,72.9513 172.516,82.7513 171.116,86.6685 169.716,89.5754 168.316,91.9419 166.916,93.9513 165.516,95.6986 164.116,97.2404 162.716,98.6138 161.316,99.8445 159.916,100.951 158.516,101.949 157.116,102.847 155.716,103.656 154.316,104.381 152.916,105.029 151.516,105.605 150.116,106.111 148.716,106.551 147.316,106.928 145.916,107.244 144.516,107.5 143.116,107.698 141.716,107.839 140.316,107.923 138.916,107.951 129.116,106.551 125.199,105.151 122.292,103.751 119.926,102.351 117.916,100.951 116.169,99.5513 114.627,98.1513 113.254,96.7513 112.023,95.3513 110.916,93.9513 109.919,92.5513 109.02,91.1513 108.212,89.7513 107.486,88.3513 106.838,86.9513 106.263,85.5513 105.756,84.1513 105.316,82.7513 104.939,81.3513 104.623,79.9513 104.367,78.5513 104.169,77.1513 104.028,75.7513 103.944,74.3513 " stroke="black" fill="green" stroke-width="0.1" />
<polygon points="173.916,72.9513 175.316,63.1513 176.716,59.2342 178.116,56.3273 179.516,53.9608 180.916,51.9513 182.316,50.204 183.716,48.6622 185.116,47.2889 186.516,46.0582 187.916,44.9513 189.316,43.9541 190.716,43.0555 192.116,42.2469 193.516,41.5214 194.916,40.8733 196.316,40.298 197.716,39.7917 199.116,39.3513 200.516,38.9743 201.916,38.6585 203.316,38.4022 204.716,38.2043 206.116,38.0635 207.516,37.9793 208.916,37.9513 218.716,39.3513 222.633,40.7513 225.54,42.1513 227.907,43.5513 229.916,44.9513 231.663,46.3513 233.205,47.7513 234.578,49.1513 235.809,50.5513 236.916,51.9513 237.913,53.3513 238.812,54.7513 239.62,56.1513 240.346,57.5513 240.994,58.9513 241.569,60.3513 242.076,61.7513 242.516,63.1513 242.893,64.5513 243.209,65.9513 243.465,67.3513 243.663,68.7513 243.804,70.1513 243.888,71.5513 243.916,72.9513 242.516,82.7513 241.116,86.6685 239.716,89.5754 238.316,91.9419 236.916,93.9513 235.516,95.6986 234.116,97.2404 232.716,98.6138 231.316,99.8445 229.916,100.951 228.516,101.949 227.116,102.847 225.716,103.656 224.316,104.381 222.916,105.029 221.516,105.605 220.116,106.111 218.716,106.551 217.316,106.928 215.916,107.244 214.516,107.5 213.116,107.698 211.716,107.839 210.316,107.923 208.916,107.951 199.116,106.551 195.199,105.151 192.292,103.751 189.926,102.351 187.916,100.951 186.169,99.5513 184.627,98.1513 183.254,96.7513 182.023,95.3513 180.916,93.9513 179.919,92.5513 179.02,91.1513 178.212,89.7513 177.486,88.3513 176.838,86.9513 176.263,85.5513 175.756,84.1513 175.316,82.7513 174.939,81.3513 174.623,79.9513 174.367,78.5513 174.169,77.1513 174.028,75.7513 173.944,74.3513 " stroke="black" fill="green" stroke-width="0.1" />
<polygon points="243.916,72.9513 245.316,63.1513 246.716,59.2342 248.116,56.3273 249.516,53.9608 250.916,51.9513 252.316,50.204 253.716,48.6622 255.116,47.2889 256.516,46.0582 257.916,44.9513 259.316,43.9541 260.716,43.0555 262.116,42.2469 263.516,41.5214 264.916,40.8733 266.316,40.298 267.716,39.7917 269.116,39.3513 270.516,38.9743 271.916,38.6585 273.316,38.4022 274.716,38.2043 276.116,38.0635 277.516,37.9793 278.916,37.9513 288.716,39.3513 292.633,40.7513 295.54,42.1513 297.907,43.5513 299.916,44.9513 301.663,46.3513 303.205,47.7513 304.578,49.1513 305.809,50.5513 306.916,51.9513 307.913,53.3513 308.812,54.7513 309.62,56.1513 310.346,57.5513 310.994,58.9513 311.569,60.3513 312.076,61.7513 312.516,63.1513 312.893,64.5513 313.209,65.9513 313.465,67.3513 313.663,68.7513 313.804,70.1513 313.888,71.5513 313.916,72.9513 312.516,82.7513 311.116,86.6685 309.716,89.5754 308.316,91.9419 306.916,93.9513 305.516,95.6986 304.116,97.2404 302.716,98.6138 301.316,99.8445 299.916,100.951 298.516,101.949 297.116,102.847 295.716,103.656 294.316,104.381 292.916,105.029 291.516,105.605 290.116,106.111 288.716,106.551 287.316,106.928 285.916,107.244 284.516,107.5 283.116,107.698 281.716,107.839 280.316,107.923 278.916,107.951 269.116,106.551 265.199,105.151 262.292,103.751 259.926,102.351 257.916,100.951 256.169,99.5513 254.627,98.1513 253.254,96.7513 252.023,95.3513 250.916,93.9513 249.919,92.5513 249.02,91.1513 248.212,89.7513 247.486,88.3513 246.838,86.9513 246.263,85.5513 245.756,84.1513 245.316,82.7513 244.939,81.3513 244.623,79.9513 244.367,78.5513 244.169,77.1513 244.028,75.7513 243.944,74.3513 " stroke="black" fill="green" stroke-width="0.1" />
<polygon points="313.916,72.9513 315.316,63.1513 316.716,59.2342 318.116,56.3273 319.516,53.9608 320.916,51.9513 322.316,50.204 323.716,48.6622 325.116,47.2889 326.516,46.0582 327.916,44.9513 329.316,43.9541 330.716,43.0555 332.116,42.2469 333.516,41.5214 334.916,40.8733 336.316,40.298 337.716,39.7917 339.116,39.3513 340.516,38.9743 341.916,38.6585 343.316,38.4022 344.716,38.2043 346.116,38.0635 347.516,37.9793 348.916,37.9513 358.716,39.3513 362.633,40.7513 365.54,42.1513 367.907,43.5513 369.916,44.9513 371.663,46.3513 373.205,47.7513 374.578,49.1513 375.809,50.5513 376.916,51.9513 377.913,53.3513 378.812,54.7513 379.62,56.1513 380.346,57.5513 380.994,58.9513 381.569,60.3513 382.076,61.7513 382.516,63.1513 382.893,64.5513 383.209,65.9513 383.465,67.3513 383.663,68.7513 383.804,70.1513 383.888,71.5513 383.916,72.9513 382.516,82.7513 381.116,86.6685 379.716,89.5754 378.316,91.9419 376.916,93.9513 375.516,95.6986 374.116,97.2404 372.716,98.6138 371.316,99.8445 369.916,100.951 368.516,101.949 367.116,102.847 365.716,103.656 364.316,104.381 362.916,105.029 361.516,105.605 360.116,106.111 358.716,106.551 357.316,106.928 355.916,107.244 354.516,107.5 353.116,107.698 351.716,107.839 350.316,107.923 348.916,107.951 339.116,106.551 335.199,105.151 332.292,103.751 329.926,102.351 327.916,100.951 326.169,99.5513 324.627,98.1513 323.254,96.7513 322.023,95.3513 320.916,93.9513 319.919,92.5513 319.02,91.1513 318.212,89.7513 317.486,88.3513 316.838,86.9513 316.263,85.5513 315.756,84.1513 315.316,82.7513 314.939,81.3513 314.623,79.9513 314.367,78.5513 314.169,77.1513 314.028,75.7513 313.944,74.3513 " stroke="black" fill="green" stroke-width="0.1" />
<polygon points="383.916,72.9513 385.316,63.1513 386.716,59.2342 388.116,56.3273 389.516,53.9608 390.916,51.9513 392.316,50.204 393.716,48.6622 395.116,47.2889 396.516,46.0582 397.916,44.9513 399.316,43.9541 400.716,43.0555 402.116,42.2469 403.516,41.5214 404.916,40.8733 406.316,40.298 407.716,39.7917 409.116,39.3513 410.516,38.9743 411.916,38.6585 413.316,38.4022 414.716,38.2043 416.116,38.0635 417.516,37.9793 418.916,37.9513 428.716,39.3513 432.633,40.7513 435.54,42.1513 437.907,43.5513 439.916,44.9513 441.663,46.3513 443.205,47.7513 444.578,49.1513 445.809,50.5513 446.916,51.9513 447.913,53.3513 448.812,54.7513 449.62,56.1513 450.346,57.5513 450.994,58.9513 451.569,60.3513 452.076,61.7513 452.516,63.1513 452.893,64.5513 453.209,65.9513 453.465,67.3513 453.663,68.7513 453.804,70.1513 453.888,71.5513 453.916,72.9513 452.516,82.7513 451.116,86.6685 449.716,89.5754 448.316,91.9419 446.916,93.9513 445.516,95.6986 444.116,97.2404 442.716,98.6138 441.316,99.8445 439.916,100.951 438.516,101.949 437.116,102.847 435.716,103.656 434.316,104.381 432.916,105.029 431.516,105.605 430.116,106.111 428.716,106.551 427.316,106.928 425.916,107.244 424.516,107.5 423.116,107.698 421.716,107.839 420.316,107.923 418.916,107.951 409.116,106.551 405.199,105.151 402.292,103.751 399.926,102.351 397.916,100.951 396.169,99.5513 394.627,98.1513 393.254,96.7513 392.023,95.3513 390.916,93.9513 389.919,92.5513 389.02,91.1513 388.212,89.7513 387.486,88.3513 386.838,86.9513 386.263,85.5513 385.756,84.1513 385.316,82.7513 384.939,81.3513 384.623,79.9513 384.367,78.5513 384.169,77.1513 384.028,75.7513 383.944,74.3513 " stroke="black" fill="green" stroke-width="0.1" />
</svg>