<svg  version="1.1" xmlns="http://www.w3.org/2000/svg">
<polygon points="0,0 300,0 300,500 0,500 " stroke="black" fill="red" stroke-width="0.1" />
<polygon points="0,0 20,0 20,40 0,40 " stroke="black" fill="green" stroke-width="0.1" />
<polygon points="20,0 40,0 40,40 20,40 " stroke="black" fill="green" stroke-width="0.1" />
<polygon points="40,0 60,0 60,40 40,40 " stroke="black" fill="green" stroke-width="0.1" />
<polygon points="60,0 80,0 80,40 60,40 " stroke="black" fill="green" stroke-width="0.1" />
<polygon points="80,0 100,0 100,40 80,40 " stroke="black" fill="green" stroke-width="0.1" />
<polygon points="100,0 120,0 120,40 100,40 " stroke="black" fill="green" stroke-width="0.1" />
<polygon points="120,0 140,0 140,40 120,40 " stroke="black" fill="green" stroke-width="0.1" />
<polygon points="140,0 160,0 160,40 140,40 " stroke="black" fill="green" stroke-width="0.1" />
<polygon points="160,0 180,0 180,40 160,40 " stroke="black" fill="green" stroke-width="0.1" />
<polygon points="180,0 200,0 200,40 180,40 " stroke="black" fill="green" stroke-width="0.1" />
<polygon points="200,0 220,0 220,40 200,40 " stroke="black" fill="green" stroke-width="0.1" />
<polygon points="220,0 240,0 240,40 220,40 " stroke="black" fill="green" stroke-width="0.1" />
<polygon points="240,0 260,0 260,40 240,40 " stroke="black" fill="green" stroke-width="0.1" />
<polygon points="260,0 280,0 280,40 260,40 " stroke="black" fill="green" stroke-width="0.1" />
<polygon points="280,0 300,0 300,40 280,40 " stroke="black" fill="green" stroke-width="0.1" />
<polygon points="0,40 20,40 20,80 0,80 " stroke="black" fill="green" stroke-width="0.1" />
<polygon points="20,40 40,40 40,80 20,80 " stroke="black" fill="green" stroke-width="0.1" />
<polygon points="40,40 60,40 60,80 40,80 " stroke="black" fill="green" stroke-width="0.1" />
<polygon points="60,40 80,40 80,80 60,80 " stroke="black" fill="green" stroke-width="0.1" />
<polygon points="80,40 100,40 100,80 80,80 " stroke="black" fill="green" stroke-width="0.1" />
<polygon points="100,40 120,40 120,80 100,80 " stroke="black" fill="green" stroke-width="0.1" />
<polygon points="120,40 140,40 140,80 120,80 " stroke="black" fill="green" stroke-width="0.1" />
<polygon points="140,40 160,40 160,80 140,80 " stroke="black" fill="green" stroke-width="0.1" />
<polygon points="160,40 180,40 180,80 160,80 " stroke="black" fill="green" stroke-width="0.1" />
<polygon points="180,40 200,40 200,80 180,80 " stroke="black" fill="green" stroke-width="0.1" />
<polygon points="200,40 220,40 220,80 200,80 " stroke="black" fill="green" stroke-width="0.1" />
<polygon points="220,40 240,40 240,80 220,80 " stroke="black" fill="green" stroke-width="0.1" />
<polygon points="240,40 260,40 260,80 240,80 " stroke="black" fill="green" stroke-width="0.1" />
<polygon points="260,40 280,40 280,80 260,80 " stroke="black" fill="green" stroke-width="0.1" />
<polygon points="280,40 300,40 300,80 280,80 " stroke="black" fill="green" stroke-width="0.1" />
<polygon points="0,80 20,80 20,120 0,120 " stroke="black" fill="green" stroke-width="0.1" />
<polygon points="20,80 40,80 40,120 20,120 " stroke="black" fill="green" stroke-width="0.1" />
<polygon points="40,80 60,80 60,120 40,120 " stroke="black" fill="green" stroke-width="0.1" />
<polygon points="60,80 80,80 80,120 60,120 " stroke="black" fill="green" stroke-width="0.1" />
<polygon points="80,80 100,80 100,120 80,120 " stroke="black" fill="green" stroke-width="0.1" />
<polygon points="100,80 120,80 120,120 100,120 " stroke="black" fill="green" stroke-width="0.1" />
<polygon points="120,80 140,80 140,120 120,120 " stroke="black" fill="green" stroke-width="0.1" />
<polygon points="140,80 160,80 160,120 140,120 " stroke="black" fill="green" stroke-width="0.1" />
<polygon points="160,80 180,80 180,120 160,120 " stroke="black" fill="green" stroke-width="0.1" />
<polygon points="180,80 200,80 200,120 180,120 " stroke="black" fill="green" stroke-width="0.1" />
<polygon points="200,80 220,80 220,120 200,120 " stroke="black" fill="green" stroke-width="0.1" />
<polygon points="220,80 240,80 240,120 220,120 " stroke="black" fill="green" stroke-width="0.1" />
<polygon points="240,80 260,80 260,120 240,120 " stroke="black" fill="green" stroke-width="0.1" />
<polygon points="260,80 280,80 280,120 260,120 " stroke="black" fill="green" stroke-width="0.1" />
<polygon points="280,80 300,80 300,120 280,120 " stroke="black" fill="green" stroke-width="0.1" />
<polygon points="0,120 20,120 20,160 0,160 " stroke="black" fill="green" stroke-width="0.1" />
<polygon points="20,120 40,120 40,160 20,160 " stroke="black" fill="green" stroke-width="0.1" />
<polygon points="40,120 60,120 60,160 40,160 " stroke="black" fill="green" stroke-width="0.1" />
<polygon points="60,120 80,120 80,160 60,160 " stroke="black" fill="green" stroke-width="0.1" />
<polygon points="80,120 100,120 100,160 80,160 " stroke="black" fill="green" stroke-width="0.1" />
<polygon points="100,120 120,120 120,160 100,160 " stroke="black" fill="green" stroke-width="0.1" />
<polygon points="120,120 140,120 140,160 120,160 " stroke="black" fill="green" stroke-width="0.1" />
<polygon points="140,120 160,120 160,160 140,160 " stroke="black" fill="green" stroke-width="0.1" />
<polygon points="160,120 180,120 180,160 160,160 " stroke="black" fill="green" stroke-width="0.1" />
<polygon points="180,120 200,120 200,160 180,160 " stroke="black" fill="green" stroke-width="0.1" />
<polygon points="200,120 220,120 220,160 200,160 " stroke="black" fill="green" stroke-width="0.1" />
<polygon points="220,120 240,120 240,160 220,160 " stroke="black" fill="green" stroke-width="0.1" />
<polygon points="240,120 260,120 260,160 240,160 " stroke="black" fill="green" stroke-width="0.1" />
<polygon points="260,120 280,120 280,160 260,160 " stroke="black" fill="green" stroke-width="0.1" />
<polygon points="280,120 300,120 300,160 280,160 " stroke="black" fill="green" stroke-width="0.1" />
<polygon points="0,160 20,160 20,200 0,200 " stroke="black" fill="green" stroke-width="0.1" />
<polygon points="20,160 40,160 40,200 20,200 " stroke="black" fill="green" stroke-width="0.1" />
<polygon points="40,160 60,160 60,200 40,200 " stroke="black" fill="green" stroke-width="0.1" />
<polygon points="60,160 80,160 80,200 60,200 " stroke="black" fill="green" stroke-width="0.1" />
<polygon points="80,160 100,160 100,200 80,200 " stroke="black" fill="green" stroke-width="0.1" />
<polygon points="100,160 120,160 120,200 100,200 " stroke="black" fill="green" stroke-width="0.1" />
<polygon points="120,160 140,160 140,200 120,200 " stroke="black" fill="green" stroke-width="0.1" />
<polygon points="140,160 160,160 160,200 140,200 " stroke="black" fill="green" stroke-width="0.1" />
<polygon points="160,160 180,160 180,200 160,200 " stroke="black" fill="green" stroke-width="0.1" />
<polygon points="180,160 200,160 200,200 180,200 " stroke="black" fill="green" stroke-width="0.1" />
<polygon points="200,160 220,160 220,200 200,200 " stroke="black" fill="green" stroke-width="0.1" />
<polygon points="220,160 240,160 240,200 220,200 " stroke="black" fill="green" stroke-width="0.1" />
<polygon points="240,160 260,160 260,200 240,200 " stroke="black" fill="green" stroke-width="0.1" />
<polygon points="260,160 280,160 280,200 260,200 " stroke="black" fill="green" stroke-width="0.1" />
<polygon points="280,160 300,160 300,200 280,200 " stroke="black" fill="green" stroke-width="0.1" />
<polygon points="0,200 20,200 20,240 0,240 " stroke="black" fill="green" stroke-width="0.1" />
<polygon points="20,200 40,200 40,240 20,240 " stroke="black" fill="green" stroke-width="0.1" />
<polygon points="40,200 60,200 60,240 40,240 " stroke="black" fill="green" stroke-width="0.1" />
<polygon points="60,200 80,200 80,240 60,240 " stroke="black" fill="green" stroke-width="0.1" />
<polygon points="80,200 100,200 100,240 80,240 " stroke="black" fill="green" stroke-width="0.1" />
<polygon points="100,200 120,200 120,240 100,240 " stroke="black" fill="green" stroke-width="0.1" />
<polygon points="120,200 140,200 140,240 120,240 " stroke="black" fill="green" stroke-width="0.1" />
<polygon points="140,200 160,200 160,240 140,240 " stroke="black" fill="green" stroke-width="0.1" />
<polygon points="160,200 180,200 180,240 160,240 " stroke="black" fill="green" stroke-width="0.1" />
<polygon points="180,200 200,200 200,240 180,240 " stroke="black" fill="green" stroke-width="0.1" />
<polygon points="200,200 220,200 220,240 200,240 " stroke="black" fill="green" stroke-width="0.1" />
<polygon points="220,200 240,200 240,240 220,240 " stroke="black" fill="green" stroke-width="0.1" />
<polygon points="240,200 260,200 260,240 240,240 " stroke="black" fill="green" stroke-width="0.1" />
<polygon points="260,200 280,200 280,240 260,240 " stroke="black" fill="green" stroke-width="0.1" />
<polygon points="280,200 300,200 300,240 280,240 " stroke="black" fill="green" stroke-width="0.1" />
<polygon points="0,240 20,240 20,280 0,280 " stroke="black" fill="green" stroke-width="0.1" />
<polygon points="20,240 40,240 40,280 20,280 " stroke="black" fill="green" stroke-width="0.1" />
<polygon points="40,240 60,240 60,280 40,280 " stroke="black" fill="green" stroke-width="0.1" />
<polygon points="60,240 80,240 80,280 60,280 " stroke="black" fill="green" stroke-width="0.1" />
<polygon points="80,240 100,240 100,280 80,280 " stroke="black" fill="green" stroke-width="0.1" />
<polygon points="100,240 120,240 120,280 100,280 " stroke="black" fill="green" stroke-width="0.1" />
<polygon points="120,240 140,240 140,280 120,280 " stroke="black" fill="green" stroke-width="0.1" />
<polygon points="140,240 160,240 160,280 140,280 " stroke="black" fill="green" stroke-width="0.1" />
<polygon points="160,240 180,240 180,280 160,280 " stroke="black" fill="green" stroke-width="0.1" />
<polygon points="180,240 200,240 200,280 180,280 " stroke="black" fill="green" stroke-width="0.1" />
<polygon points="200,240 220,240 220,280 200,280 " stroke="black" fill="green" stroke-width="0.1" />
<polygon points="220,240 240,240 240,280 220,280 " stroke="black" fill="green" stroke-width="0.1" />
<polygon points="240,240 260,240 260,280 240,280 " stroke="black" fill="green" stroke-width="0.1" />
<polygon points="260,240 280,240 280,280 260,280 " stroke="black" fill="green" stroke-width="0.1" />
<polygon points="280,240 300,240 300,280 280,280 " stroke="black" fill="green" stroke-width="0.1" />
<polygon points="0,280 20,280 20,320 0,320 " stroke="black" fill="green" stroke-width="0.1" />
<polygon points="20,280 40,280 40,320 20,320 " stroke="black" fill="green" stroke-width="0.1" />
<polygon points="40,280 60,280 60,320 40,320 " stroke="black" fill="green" stroke-width="0.1" />
<polygon points="60,280 80,280 80,320 60,320 " stroke="black" fill="green" stroke-width="0.1" />
<polygon points="80,280 100,280 100,320 80,320 " stroke="black" fill="green" stroke-width="0.1" />
<polygon points="100,280 120,280 120,320 100,320 " stroke="black" fill="green" stroke-width="0.1" />
<polygon points="120,280 140,280 140,320 120,320 " stroke="black" fill="green" stroke-width="0.1" />
<polygon points="140,280 160,280 160,320 140,320 " stroke="black" fill="green" stroke-width="0.1" />
<polygon points="160,280 180,280 180,320 160,320 " stroke="black" fill="green" stroke-width="0.1" />
<polygon points="180,280 200,280 200,320 180,320 " stroke="black" fill="green" stroke-width="0.1" />
<polygon points="200,280 220,280 220,320 200,320 " stroke="black" fill="green" stroke-width="0.1" />
<polygon points="220,280 240,280 240,320 220,320 " stroke="black" fill="green" stroke-width="0.1" />
<polygon points="240,280 260,280 260,320 240,320 " stroke="black" fill="green" stroke-width="0.1" />
<polygon points="260,280 280,280 280,320 260,320 " stroke="black" fill="green" stroke-width="0.1" />
<polygon points="280,280 300,280 300,320 280,320 " stroke="black" fill="green" stroke-width="0.1" />
<polygon points="0,320 20,320 20,360 0,360 " stroke="black" fill="green" stroke-width="0.1" />
<polygon points="20,320 40,320 40,360 20,360 " stroke="black" fill="green" stroke-width="0.1" />
<polygon points="40,320 60,320 60,360 40,360 " stroke="black" fill="green" stroke-width="0.1" />
<polygon points="60,320 80,320 80,360 60,360 " stroke="black" fill="green" stroke-width="0.1" />
<polygon points="80,320 100,320 100,360 80,360 " stroke="black" fill="green" stroke-width="0.1" />
<polygon points="100,320 120,320 120,360 100,360 " stroke="black" fill="green" stroke-width="0.1" />
<polygon points="120,320 140,320 140,360 120,360 " stroke="black" fill="green" stroke-width="0.1" />
<polygon points="140,320 160,320 160,360 140,360 " stroke="black" fill="green" stroke-width="0.1" />
<polygon points="160,320 180,320 180,360 160,360 " stroke="black" fill="green" stroke-width="0.1" />
<polygon points="180,320 200,320 200,360 180,360 " stroke="black" fill="green" stroke-width="0.1" />
<polygon points="200,320 220,320 220,360 200,360 " stroke="black" fill="green" stroke-width="0.1" />
<polygon points="220,320 240,320 240,360 220,360 " stroke="black" fill="green" stroke-width="0.1" />
<polygon points="240,320 260,320 260,360 240,360 " stroke="black" fill="green" stroke-width="0.1" />
<polygon points="260,320 280,320 280,360 260,360 " stroke="black" fill="green" stroke-width="0.1" />
<polygon points="280,320 300,320 300,360 280,360 " stroke="black" fill="green" stroke-width="0.1" />
<polygon points="0,360 20,360 20,400 0,400 " stroke="black" fill="green" stroke-width="0.1" />
<polygon points="20,360 40,360 40,400 20,400 " stroke="black" fill="green" stroke-width="0.1" />
<polygon points="40,360 60,360 60,400 40,400 " stroke="black" fill="green" stroke-width="0.1" />
<polygon points="60,360 80,360 80,400 60,400 " stroke="black" fill="green" stroke-width="0.1" />
<polygon points="80,360 100,360 100,400 80,400 " stroke="black" fill="green" stroke-width="0.1" />
<polygon points="100,360 120,360 120,400 100,400 " stroke="black" fill="green" stroke-width="0.1" />
<polygon points="120,360 140,360 140,400 120,400 " stroke="black" fill="green" stroke-width="0.1" />
<polygon points="140,360 160,360 160,400 140,400 " stroke="black" fill="green" stroke-width="0.1" />
<polygon points="160,360 180,360 180,400 160,400 " stroke="black" fill="green" stroke-width="0.1" />
<polygon points="180,360 200,360 200,400 180,400 " stroke="black" fill="green" stroke-width="0.1" />
<polygon points="200,360 220,360 220,400 200,400 " stroke="black" fill="green" stroke-width="0.1" />
<polygon points="220,360 240,360 240,400 220,400 " stroke="black" fill="green" stroke-width="0.1" />
<polygon points="240,360 260,360 260,400 240,400 " stroke="black" fill="green" stroke-width="0.1" />
<polygon points="260,360 280,360 280,400 260,400 " stroke="black" fill="green" stroke-width="0.1" />
<polygon points="280,360 300,360 300,400 280,400 " stroke="black" fill="green" stroke-width="0.1" />
<polygon points="0,400 20,400 20,440 0,440 " stroke="black" fill="green" stroke-width="0.1" />
<polygon points="20,400 40,400 40,440 20,440 " stroke="black" fill="green" stroke-width="0.1" />
<polygon points="40,400 60,400 60,440 40,440 " stroke="black" fill="green" stroke-width="0.1" />
<polygon points="60,400 80,400 80,440 60,440 " stroke="black" fill="green" stroke-width="0.1" />
<polygon points="80,400 100,400 100,440 80,440 " stroke="black" fill="green" stroke-width="0.1" />
<polygon points="100,400 120,400 120,440 100,440 " stroke="black" fill="green" stroke-width="0.1" />
<polygon points="120,400 140,400 140,440 120,440 " stroke="black" fill="green" stroke-width="0.1" />
<polygon points="140,400 160,400 160,440 140,440 " stroke="black" fill="green" stroke-width="0.1" />
<polygon points="160,400 180,400 180,440 160,440 " stroke="black" fill="green" stroke-width="0.1" />
<polygon points="180,400 200,400 200,440 180,440 " stroke="black" fill="green" stroke-width="0.1" />
<polygon points="200,400 220,400 220,440 200,440 " stroke="black" fill="green" stroke-width="0.1" />
<polygon points="220,400 240,400 240,440 220,440 " stroke="black" fill="green" stroke-width="0.1" />
<polygon points="240,400 260,400 260,440 240,440 " stroke="black" fill="green" stroke-width="0.1" />
<polygon points="260,400 280,400 280,440 260,440 " stroke="black" fill="green" stroke-width="0.1" />
<polygon points="280,400 300,400 300,440 280,440 " stroke="black" fill="green" stroke-width="0.1" />
<polygon points="0,440 20,440 20,480 0,480 " stroke="black" fill="green" stroke-width="0.1" />
<polygon points="20,440 40,440 40,480 20,480 " stroke="black" fill="green" stroke-width="0.1" />
<polygon points="40,440 60,440 60,480 40,480 " stroke="black" fill="green" stroke-width="0.1" />
<polygon points="60,440 80,440 80,480 60,480 " stroke="black" fill="green" stroke-width="0.1" />
<polygon points="80,440 100,440 100,480 80,480 " stroke="black" fill="green" stroke-width="0.1" />
<polygon points="100,440 120,440 120,480 100,480 " stroke="black" fill="green" stroke-width="0.1" />
<polygon points="120,440 140,440 140,480 120,480 " stroke="black" fill="green" stroke-width="0.1" />
<polygon points="140,440 160,440 160,480 140,480 " stroke="black" fill="green" stroke-width="0.1" />
<polygon points="160,440 180,440 180,480 160,480 " stroke="black" fill="green" stroke-width="0.1" />
<polygon points="180,440 200,440 200,480 180,480 " stroke="black" fill="green" stroke-width="0.1" />
<polygon points="200,440 220,440 220,480 200,480 " stroke="black" fill="green" stroke-width="0.1" />
<polygon points="220,440 240,440 240,480 220,480 " stroke="black" fill="green" stroke-width="0.1" />
<polygon points="240,440 260,440 260,480 240,480 " stroke="black" fill="green" stroke-width="0.1" />
<polygon points="260,440 280,440 280,480 260,480 " stroke="black" fill="green" stroke-width="0.1" />
<polygon points="280,440 300,440 300,480 280,480 " stroke="black" fill="green" stroke-width="0.1" />
</svg>