<svg  version="1.1" xmlns="http://www.w3.org/2000/svg">
<polygon points="0,200 8,144 16,121.616 24,105.005 32,91.4827 40,80 48,70.0154 56,61.2052 64,53.3576 72,46.325 80,40 88,34.3015 96,29.1667 104,24.5463 112,20.4004 120,16.697 128,13.4095 136,10.5165 144,8 152,5.84542 160,4.04082 168,2.5766 176,1.44522 184,0.641027 192,0.160064 200,0 256,8 278.384,16 294.995,24 308.517,32 320,40 329.985,48 338.795,56 346.642,64 353.675,72 360,80 365.699,88 370.833,96 375.454,104 379.6,112 383.303,120 386.59,128 389.484,136 392,144 394.155,152 395.959,160 397.423,168 398.555,176 399.359,184 399.84,192 400,200 392,256 384,278.384 376,294.995 368,308.517 360,320 352,329.985 344,338.795 336,346.642 328,353.675 320,360 312,365.699 304,370.833 296,375.454 288,379.6 280,383.303 272,386.59 264,389.484 256,392 248,394.155 240,395.959 232,397.423 224,398.555 216,399.359 208,399.84 200,400 144,392 121.616,384 105.005,376 91.4827,368 80,360 70.0154,352 61.2052,344 53.3576,336 46.325,328 40,320 34.3015,312 29.1667,304 24.5463,296 20.4004,288 16.697,280 13.4095,272 10.5165,264 8,256 5.84542,248 4.04082,240 2.5766,232 1.44522,224 0.641027,216 0.160064,208 " stroke="black" fill="red" stroke-width="0.1" />
<polygon points="190,369.75 210,369.75 210,399.75 190,399.75 " stroke="black" fill="green" stroke-width="0.1" />
<polygon points="94.2409,339.75 114.241,339.75 114.241,369.75 94.2409,369.75 " stroke="black" fill="green" stroke-width="0.1" />
<polygon points="114.241,339.75 134.241,339.75 134.241,369.75 114.241,369.75 " stroke="black" fill="green" stroke-width="0.1" />
<polygon points="134.241,339.75 154.241,339.75 154.241,369.75 134.241,369.75 " stroke="black" fill="green" stroke-width="0.1" />
<polygon points="154.241,339.75 174.241,339.75 174.241,369.75 154.241,369.75 " stroke="black" fill="green" stroke-width="0.1" />
<polygon points="174.241,339.75 194.241,339.75 194.241,369.75 174.241,369.75 " stroke="black" fill="green" stroke-width="0.1" />
<polygon points="194.241,339.75 214.241,339.75 214.241,369.75 194.241,369.75 " stroke="black" fill="green" stroke-width="0.1" />
<polygon points="214.241,339.75 234.241,339.75 234.241,369.75 214.241,369.75 " stroke="black" fill="green" stroke-width="0.1" />
<polygon points="234.241,339.75 254.241,339.75 254.241,369.75 234.241,369.75 " stroke="black" fill="green" stroke-width="0.1" />
<polygon points="254.241,339.75 274.241,339.75 274.241,369.75 254.241,369.75 " stroke="black" fill="green" stroke-width="0.1" />
<polygon points="274.241,339.75 294.241,339.75 294.241,369.75 274.241,369.75 " stroke="black" fill="green" stroke-width="0.1" />
<polygon points="56.9267,309.75 76.9267,309.75 76.9267,339.75 56.9267,339.75 " stroke="black" fill="green" stroke-width="0.1" />
<polygon points="76.9267,309.75 96.9267,309.75 96.9267,339.75 76.9267,339.75 " stroke="black" fill="green" stroke-width="0.1" />
<polygon points="96.9267,309.75 116.927,309.75 116.927,339.75 96.9267,339.75 " stroke="black" fill="green" stroke-width="0.1" />
<polygon points="116.927,309.75 136.927,309.75 136.927,339.75 116.927,339.75 " stroke="black" fill="green" stroke-width="0.1" />
<polygon points="136.927,309.75 156.927,309.75 156.927,339.75 136.927,339.75 " stroke="black" fill="green" stroke-width="0.1" />
<polygon points="156.927,309.75 176.927,309.75 176.927,339.75 156.927,339.75 " stroke="black" fill="green" stroke-width="0.1" />
<polygon points="176.927,309.75 196.927,309.75 196.927,339.75 176.927,339.75 " stroke="black" fill="green" stroke-width="0.1" />
<polygon points="196.927,309.75 216.927,309.75 216.927,339.75 196.927,339.75 " stroke="black" fill="green" stroke-width="0.1" />
<polygon points="216.927,309.75 236.927,309.75 236.927,339.75 216.927,339.75 " stroke="black" fill="green" stroke-width="0.1" />
<polygon points="236.927,309.75 256.927,309.75 256.927,339.75 236.927,339.75 " stroke="black" fill="green" stroke-width="0.1" />
<polygon points="256.927,309.75 276.927,309.75 276.927,339.75 256.927,339.75 " stroke="black" fill="green" stroke-width="0.1" />
<polygon points="276.927,309.75 296.927,309.75 296.927,339.75 276.927,339.75 " stroke="black" fill="green" stroke-width="0.1" />
<polygon points="296.927,309.75 316.927,309.75 316.927,339.75 296.927,339.75 " stroke="black" fill="green" stroke-width="0.1" />
<polygon points="316.927,309.75 336.927,309.75 336.927,339.75 316.927,339.75 " stroke="black" fill="green" stroke-width="0.1" />
<polygon points="32.8026,279.75 52.8026,279.75 52.8026,309.75 32.8026,309.75 " stroke="black" fill="green" stroke-width="0.1" />
<polygon points="52.8026,279.75 72.8026,279.75 72.8026,309.75 52.8026,309.75 " stroke="black" fill="green" stroke-width="0.1" />
<polygon points="72.8026,279.75 92.8026,279.75 92.8026,309.75 72.8026,309.75 " stroke="black" fill="green" stroke-width="0.1" />
<polygon points="92.8026,279.75 112.803,279.75 112.803,309.75 92.8026,309.75 " stroke="black" fill="green" stroke-width="0.1" />
<polygon points="112.803,279.75 132.803,279.75 132.803,309.75 112.803,309.75 " stroke="black" fill="green" stroke-width="0.1" />
<polygon points="132.803,279.75 152.803,279.75 152.803,309.75 132.803,309.75 " stroke="black" fill="green" stroke-width="0.1" />
<polygon points="152.803,279.75 172.803,279.75 172.803,309.75 152.803,309.75 " stroke="black" fill="green" stroke-width="0.1" />
<polygon points="172.803,279.75 192.803,279.75 192.803,309.75 172.803,309.75 " stroke="black" fill="green" stroke-width="0.1" />
<polygon points="192.803,279.75 212.803,279.75 212.803,309.75 192.803,309.75 " stroke="black" fill="green" stroke-width="0.1" />
<polygon points="212.803,279.75 232.803,279.75 232.803,309.75 212.803,309.75 " stroke="black" fill="green" stroke-width="0.1" />
<polygon points="232.803,279.75 252.803,279.75 252.803,309.75 232.803,309.75 " stroke="black" fill="green" stroke-width="0.1" />
<polygon points="252.803,279.75 272.803,279.75 272.803,309.75 252.803,309.75 " stroke="black" fill="green" stroke-width="0.1" />
<polygon points="272.803,279.75 292.803,279.75 292.803,309.75 272.803,309.75 " stroke="black" fill="green" stroke-width="0.1" />
<polygon points="292.803,279.75 312.803,279.75 312.803,309.75 292.803,309.75 " stroke="black" fill="green" stroke-width="0.1" />
<polygon points="312.803,279.75 332.803,279.75 332.803,309.75 312.803,309.75 " stroke="black" fill="green" stroke-width="0.1" />
<polygon points="332.803,279.75 352.803,279.75 352.803,309.75 332.803,309.75 " stroke="black" fill="green" stroke-width="0.1" />
<polygon points="16.588,249.75 36.588,249.75 36.588,279.75 16.588,279.75 " stroke="black" fill="green" stroke-width="0.1" />
<polygon points="36.588,249.75 56.588,249.75 56.588,279.75 36.588,279.75 " stroke="black" fill="green" stroke-width="0.1" />
<polygon points="56.588,249.75 76.588,249.75 76.588,279.75 56.588,279.75 " stroke="black" fill="green" stroke-width="0.1" />
<polygon points="76.588,249.75 96.588,249.75 96.588,279.75 76.588,279.75 " stroke="black" fill="green" stroke-width="0.1" />
<polygon points="96.588,249.75 116.588,249.75 116.588,279.75 96.588,279.75 " stroke="black" fill="green" stroke-width="0.1" />
<polygon points="116.588,249.75 136.588,249.75 136.588,279.75 116.588,279.75 " stroke="black" fill="green" stroke-width="0.1" />
<polygon points="136.588,249.75 156.588,249.75 156.588,279.75 136.588,279.75 " stroke="black" fill="green" stroke-width="0.1" />
<polygon points="156.588,249.75 176.588,249.75 176.588,279.75 156.588,279.75 " stroke="black" fill="green" stroke-width="0.1" />
<polygon points="176.588,249.75 196.588,249.75 196.588,279.75 176.588,279.75 " stroke="black" fill="green" stroke-width="0.1" />
<polygon points="196.588,249.75 216.588,249.75 216.588,279.75 196.588,279.75 " stroke="black" fill="green" stroke-width="0.1" />
<polygon points="216.588,249.75 236.588,249.75 236.588,279.75 216.588,279.75 " stroke="black" fill="green" stroke-width="0.1" />
<polygon points="236.588,249.75 256.588,249.75 256.588,279.75 236.588,279.75 " stroke="black" fill="green" stroke-width="0.1" />
<polygon points="256.588,249.75 276.588,249.75 276.588,279.75 256.588,279.75 " stroke="black" fill="green" stroke-width="0.1" />
<polygon points="276.588,249.75 296.588,249.75 296.588,279.75 276.588,279.75 " stroke="black" fill="green" stroke-width="0.1" />
<polygon points="296.588,249.75 316.588,249.75 316.588,279.75 296.588,279.75 " stroke="black" fill="green" stroke-width="0.1" />
<polygon points="316.588,249.75 336.588,249.75 336.588,279.75 316.588,279.75 " stroke="black" fill="green" stroke-width="0.1" />
<polygon points="336.588,249.75 356.588,249.75 356.588,279.75 336.588,279.75 " stroke="black" fill="green" stroke-width="0.1" />
<polygon points="356.588,249.75 376.588,249.75 376.588,279.75 356.588,279.75 " stroke="black" fill="green" stroke-width="0.1" />
<polygon points="6.28641,219.75 26.2864,219.75 26.2864,249.75 6.28641,249.75 " stroke="black" fill="green" stroke-width="0.1" />
<polygon points="26.2864,219.75 46.2864,219.75 46.2864,249.75 26.2864,249.75 " stroke="black" fill="green" stroke-width="0.1" />
<polygon points="46.2864,219.75 66.2864,219.75 66.2864,249.75 46.2864,249.75 " stroke="black" fill="green" stroke-width="0.1" />
<polygon points="66.2864,219.75 86.2864,219.75 86.2864,249.75 66.2864,249.75 " stroke="black" fill="green" stroke-width="0.1" />
<polygon points="86.2864,219.75 106.286,219.75 106.286,249.75 86.2864,249.75 " stroke="black" fill="green" stroke-width="0.1" />
<polygon points="106.286,219.75 126.286,219.75 126.286,249.75 106.286,249.75 " stroke="black" fill="green" stroke-width="0.1" />
<polygon points="126.286,219.75 146.286,219.75 146.286,249.75 126.286,249.75 " stroke="black" fill="green" stroke-width="0.1" />
<polygon points="146.286,219.75 166.286,219.75 166.286,249.75 146.286,249.75 " stroke="black" fill="green" stroke-width="0.1" />
<polygon points="166.286,219.75 186.286,219.75 186.286,249.75 166.286,249.75 " stroke="black" fill="green" stroke-width="0.1" />
<polygon points="186.286,219.75 206.286,219.75 206.286,249.75 186.286,249.75 " stroke="black" fill="green" stroke-width="0.1" />
<polygon points="206.286,219.75 226.286,219.75 226.286,249.75 206.286,249.75 " stroke="black" fill="green" stroke-width="0.1" />
<polygon points="226.286,219.75 246.286,219.75 246.286,249.75 226.286,249.75 " stroke="black" fill="green" stroke-width="0.1" />
<polygon points="246.286,219.75 266.286,219.75 266.286,249.75 246.286,249.75 " stroke="black" fill="green" stroke-width="0.1" />
<polygon points="266.286,219.75 286.286,219.75 286.286,249.75 266.286,249.75 " stroke="black" fill="green" stroke-width="0.1" />
<polygon points="286.286,219.75 306.286,219.75 306.286,249.75 286.286,249.75 " stroke="black" fill="green" stroke-width="0.1" />
<polygon points="306.286,219.75 326.286,219.75 326.286,249.75 306.286,249.75 " stroke="black" fill="green" stroke-width="0.1" />
<polygon points="326.286,219.75 346.286,219.75 346.286,249.75 326.286,249.75 " stroke="black" fill="green" stroke-width="0.1" />
<polygon points="346.286,219.75 366.286,219.75 366.286,249.75 346.286,249.75 " stroke="black" fill="green" stroke-width="0.1" />
<polygon points="366.286,219.75 386.286,219.75 386.286,249.75 366.286,249.75 " stroke="black" fill="green" stroke-width="0.1" />
<polygon points="0.97753,189.75 20.9775,189.75 20.9775,219.75 0.97753,219.75 " stroke="black" fill="green" stroke-width="0.1" />
<polygon points="20.9775,189.75 40.9775,189.75 40.9775,219.75 20.9775,219.75 " stroke="black" fill="green" stroke-width="0.1" />
<polygon points="40.9775,189.75 60.9775,189.75 60.9775,219.75 40.9775,219.75 " stroke="black" fill="green" stroke-width="0.1" />
<polygon points="60.9775,189.75 80.9775,189.75 80.9775,219.75 60.9775,219.75 " stroke="black" fill="green" stroke-width="0.1" />
<polygon points="80.9775,189.75 100.978,189.75 100.978,219.75 80.9775,219.75 " stroke="black" fill="green" stroke-width="0.1" />
<polygon points="100.978,189.75 120.978,189.75 120.978,219.75 100.978,219.75 " stroke="black" fill="green" stroke-width="0.1" />
<polygon points="120.978,189.75 140.978,189.75 140.978,219.75 120.978,219.75 " stroke="black" fill="green" stroke-width="0.1" />
<polygon points="140.978,189.75 160.978,189.75 160.978,219.75 140.978,219.75 " stroke="black" fill="green" stroke-width="0.1" />
<polygon points="160.978,189.75 180.978,189.75 180.978,219.75 160.978,219.75 " stroke="black" fill="green" stroke-width="0.1" />
<polygon points="180.978,189.75 200.978,189.75 200.978,219.75 180.978,219.75 " stroke="black" fill="green" stroke-width="0.1" />
<polygon points="200.978,189.75 220.978,189.75 220.978,219.75 200.978,219.75 " stroke="black" fill="green" stroke-width="0.1" />
<polygon points="220.978,189.75 240.978,189.75 240.978,219.75 220.978,219.75 " stroke="black" fill="green" stroke-width="0.1" />
<polygon points="240.978,189.75 260.978,189.75 260.978,219.75 240.978,219.75 " stroke="black" fill="green" stroke-width="0.1" />
<polygon points="260.978,189.75 280.978,189.75 280.978,219.75 260.978,219.75 " stroke="black" fill="green" stroke-width="0.1" />
<polygon points="280.978,189.75 300.978,189.75 300.978,219.75 280.978,219.75 " stroke="black" fill="green" stroke-width="0.1" />
<polygon points="300.978,189.75 320.978,189.75 320.978,219.75 300.978,219.75 " stroke="black" fill="green" stroke-width="0.1" />
<polygon points="320.978,189.75 340.978,189.75 340.978,219.75 320.978,219.75 " stroke="black" fill="green" stroke-width="0.1" />
<polygon points="340.978,189.75 360.978,189.75 360.978,219.75 340.978,219.75 " stroke="black" fill="green" stroke-width="0.1" />
<polygon points="360.978,189.75 380.978,189.75 380.978,219.75 360.978,219.75 " stroke="black" fill="green" stroke-width="0.1" />
<polygon points="4.09205,159.75 24.092,159.75 24.092,189.75 4.09205,189.75 " stroke="black" fill="green" stroke-width="0.1" />
<polygon points="24.092,159.75 44.092,159.75 44.092,189.75 24.092,189.75 " stroke="black" fill="green" stroke-width="0.1" />
<polygon points="44.092,159.75 64.092,159.75 64.092,189.75 44.092,189.75 " stroke="black" fill="green" stroke-width="0.1" />
<polygon points="64.092,159.75 84.092,159.75 84.092,189.75 64.092,189.75 " stroke="black" fill="green" stroke-width="0.1" />
<polygon points="84.092,159.75 104.092,159.75 104.092,189.75 84.092,189.75 " stroke="black" fill="green" stroke-width="0.1" />
<polygon points="104.092,159.75 124.092,159.75 124.092,189.75 104.092,189.75 " stroke="black" fill="green" stroke-width="0.1" />
<polygon points="124.092,159.75 144.092,159.75 144.092,189.75 124.092,189.75 " stroke="black" fill="green" stroke-width="0.1" />
<polygon points="144.092,159.75 164.092,159.75 164.092,189.75 144.092,189.75 " stroke="black" fill="green" stroke-width="0.1" />
<polygon points="164.092,159.75 184.092,159.75 184.092,189.75 164.092,189.75 " stroke="black" fill="green" stroke-width="0.1" />
<polygon points="184.092,159.75 204.092,159.75 204.092,189.75 184.092,189.75 " stroke="black" fill="green" stroke-width="0.1" />
<polygon points="204.092,159.75 224.092,159.75 224.092,189.75 204.092,189.75 " stroke="black" fill="green" stroke-width="0.1" />
<polygon points="224.092,159.75 244.092,159.75 244.092,189.75 224.092,189.75 " stroke="black" fill="green" stroke-width="0.1" />
<polygon points="244.092,159.75 264.092,159.75 264.092,189.75 244.092,189.75 " stroke="black" fill="green" stroke-width="0.1" />
<polygon points="264.092,159.75 284.092,159.75 284.092,189.75 264.092,189.75 " stroke="black" fill="green" stroke-width="0.1" />
<polygon points="284.092,159.75 304.092,159.75 304.092,189.75 284.092,189.75 " stroke="black" fill="green" stroke-width="0.1" />
<polygon points="304.092,159.75 324.092,159.75 324.092,189.75 304.092,189.75 " stroke="black" fill="green" stroke-width="0.1" />
<polygon points="324.092,159.75 344.092,159.75 344.092,189.75 324.092,189.75 " stroke="black" fill="green" stroke-width="0.1" />
<polygon points="344.092,159.75 364.092,159.75 364.092,189.75 344.092,189.75 " stroke="black" fill="green" stroke-width="0.1" />
<polygon points="364.092,159.75 384.092,159.75 384.092,189.75 364.092,189.75 " stroke="black" fill="green" stroke-width="0.1" />
<polygon points="12.7437,129.75 32.7437,129.75 32.7437,159.75 12.7437,159.75 " stroke="black" fill="green" stroke-width="0.1" />
<polygon points="32.7437,129.75 52.7437,129.75 52.7437,159.75 32.7437,159.75 " stroke="black" fill="green" stroke-width="0.1" />
<polygon points="52.7437,129.75 72.7437,129.75 72.7437,159.75 52.7437,159.75 " stroke="black" fill="green" stroke-width="0.1" />
<polygon points="72.7437,129.75 92.7437,129.75 92.7437,159.75 72.7437,159.75 " stroke="black" fill="green" stroke-width="0.1" />
<polygon points="92.7437,129.75 112.744,129.75 112.744,159.75 92.7437,159.75 " stroke="black" fill="green" stroke-width="0.1" />
<polygon points="112.744,129.75 132.744,129.75 132.744,159.75 112.744,159.75 " stroke="black" fill="green" stroke-width="0.1" />
<polygon points="132.744,129.75 152.744,129.75 152.744,159.75 132.744,159.75 " stroke="black" fill="green" stroke-width="0.1" />
<polygon points="152.744,129.75 172.744,129.75 172.744,159.75 152.744,159.75 " stroke="black" fill="green" stroke-width="0.1" />
<polygon points="172.744,129.75 192.744,129.75 192.744,159.75 172.744,159.75 " stroke="black" fill="green" stroke-width="0.1" />
<polygon points="192.744,129.75 212.744,129.75 212.744,159.75 192.744,159.75 " stroke="black" fill="green" stroke-width="0.1" />
<polygon points="212.744,129.75 232.744,129.75 232.744,159.75 212.744,159.75 " stroke="black" fill="green" stroke-width="0.1" />
<polygon points="232.744,129.75 252.744,129.75 252.744,159.75 232.744,159.75 " stroke="black" fill="green" stroke-width="0.1" />
<polygon points="252.744,129.75 272.744,129.75 272.744,159.75 252.744,159.75 " stroke="black" fill="green" stroke-width="0.1" />
<polygon points="272.744,129.75 292.744,129.75 292.744,159.75 272.744,159.75 " stroke="black" fill="green" stroke-width="0.1" />
<polygon points="292.744,129.75 312.744,129.75 312.744,159.75 292.744,159.75 " stroke="black" fill="green" stroke-width="0.1" />
<polygon points="312.744,129.75 332.744,129.75 332.744,159.75 312.744,159.75 " stroke="black" fill="green" stroke-width="0.1" />
<polygon points="332.744,129.75 352.744,129.75 352.744,159.75 332.744,159.75 " stroke="black" fill="green" stroke-width="0.1" />
<polygon points="352.744,129.75 372.744,129.75 372.744,159.75 352.744,159.75 " stroke="black" fill="green" stroke-width="0.1" />
<polygon points="26.9396,99.7498 46.9396,99.7498 46.9396,129.75 26.9396,129.75 " stroke="black" fill="green" stroke-width="0.1" />
<polygon points="46.9396,99.7498 66.9396,99.7498 66.9396,129.75 46.9396,129.75 " stroke="black" fill="green" stroke-width="0.1" />
<polygon points="66.9396,99.7498 86.9396,99.7498 86.9396,129.75 66.9396,129.75 " stroke="black" fill="green" stroke-width="0.1" />
<polygon points="86.9396,99.7498 106.94,99.7498 106.94,129.75 86.9396,129.75 " stroke="black" fill="green" stroke-width="0.1" />
<polygon points="106.94,99.7498 126.94,99.7498 126.94,129.75 106.94,129.75 " stroke="black" fill="green" stroke-width="0.1" />
<polygon points="126.94,99.7498 146.94,99.7498 146.94,129.75 126.94,129.75 " stroke="black" fill="green" stroke-width="0.1" />
<polygon points="146.94,99.7498 166.94,99.7498 166.94,129.75 146.94,129.75 " stroke="black" fill="green" stroke-width="0.1" />
<polygon points="166.94,99.7498 186.94,99.7498 186.94,129.75 166.94,129.75 " stroke="black" fill="green" stroke-width="0.1" />
<polygon points="186.94,99.7498 206.94,99.7498 206.94,129.75 186.94,129.75 " stroke="black" fill="green" stroke-width="0.1" />
<polygon points="206.94,99.7498 226.94,99.7498 226.94,129.75 206.94,129.75 " stroke="black" fill="green" stroke-width="0.1" />
<polygon points="226.94,99.7498 246.94,99.7498 246.94,129.75 226.94,129.75 " stroke="black" fill="green" stroke-width="0.1" />
<polygon points="246.94,99.7498 266.94,99.7498 266.94,129.75 246.94,129.75 " stroke="black" fill="green" stroke-width="0.1" />
<polygon points="266.94,99.7498 286.94,99.7498 286.94,129.75 266.94,129.75 " stroke="black" fill="green" stroke-width="0.1" />
<polygon points="286.94,99.7498 306.94,99.7498 306.94,129.75 286.94,129.75 " stroke="black" fill="green" stroke-width="0.1" />
<polygon points="306.94,99.7498 326.94,99.7498 326.94,129.75 306.94,129.75 " stroke="black" fill="green" stroke-width="0.1" />
<polygon points="326.94,99.7498 346.94,99.7498 346.94,129.75 326.94,129.75 " stroke="black" fill="green" stroke-width="0.1" />
<polygon points="346.94,99.7498 366.94,99.7498 366.94,129.75 346.94,129.75 " stroke="black" fill="green" stroke-width="0.1" />
<polygon points="48.2275,69.7498 68.2275,69.7498 68.2275,99.7498 48.2275,99.7498 " stroke="black" fill="green" stroke-width="0.1" />
<polygon points="68.2275,69.7498 88.2275,69.7498 88.2275,99.7498 68.2275,99.7498 " stroke="black" fill="green" stroke-width="0.1" />
<polygon points="88.2275,69.7498 108.227,69.7498 108.227,99.7498 88.2275,99.7498 " stroke="black" fill="green" stroke-width="0.1" />
<polygon points="108.227,69.7498 128.227,69.7498 128.227,99.7498 108.227,99.7498 " stroke="black" fill="green" stroke-width="0.1" />
<polygon points="128.227,69.7498 148.227,69.7498 148.227,99.7498 128.227,99.7498 " stroke="black" fill="green" stroke-width="0.1" />
<polygon points="148.227,69.7498 168.227,69.7498 168.227,99.7498 148.227,99.7498 " stroke="black" fill="green" stroke-width="0.1" />
<polygon points="168.227,69.7498 188.227,69.7498 188.227,99.7498 168.227,99.7498 " stroke="black" fill="green" stroke-width="0.1" />
<polygon points="188.227,69.7498 208.227,69.7498 208.227,99.7498 188.227,99.7498 " stroke="black" fill="green" stroke-width="0.1" />
<polygon points="208.227,69.7498 228.227,69.7498 228.227,99.7498 208.227,99.7498 " stroke="black" fill="green" stroke-width="0.1" />
<polygon points="228.227,69.7498 248.227,69.7498 248.227,99.7498 228.227,99.7498 " stroke="black" fill="green" stroke-width="0.1" />
<polygon points="248.227,69.7498 268.227,69.7498 268.227,99.7498 248.227,99.7498 " stroke="black" fill="green" stroke-width="0.1" />
<polygon points="268.227,69.7498 288.227,69.7498 288.227,99.7498 268.227,99.7498 " stroke="black" fill="green" stroke-width="0.1" />
<polygon points="288.227,69.7498 308.227,69.7498 308.227,99.7498 288.227,99.7498 " stroke="black" fill="green" stroke-width="0.1" />
<polygon points="308.227,69.7498 328.227,69.7498 328.227,99.7498 308.227,99.7498 " stroke="black" fill="green" stroke-width="0.1" />
<polygon points="328.227,69.7498 348.227,69.7498 348.227,99.7498 328.227,99.7498 " stroke="black" fill="green" stroke-width="0.1" />
<polygon points="80.3343,39.7498 100.334,39.7498 100.334,69.7498 80.3343,69.7498 " stroke="black" fill="green" stroke-width="0.1" />
<polygon points="100.334,39.7498 120.334,39.7498 120.334,69.7498 100.334,69.7498 " stroke="black" fill="green" stroke-width="0.1" />
<polygon points="120.334,39.7498 140.334,39.7498 140.334,69.7498 120.334,69.7498 " stroke="black" fill="green" stroke-width="0.1" />
<polygon points="140.334,39.7498 160.334,39.7498 160.334,69.7498 140.334,69.7498 " stroke="black" fill="green" stroke-width="0.1" />
<polygon points="160.334,39.7498 180.334,39.7498 180.334,69.7498 160.334,69.7498 " stroke="black" fill="green" stroke-width="0.1" />
<polygon points="180.334,39.7498 200.334,39.7498 200.334,69.7498 180.334,69.7498 " stroke="black" fill="green" stroke-width="0.1" />
<polygon points="200.334,39.7498 220.334,39.7498 220.334,69.7498 200.334,69.7498 " stroke="black" fill="green" stroke-width="0.1" />
<polygon points="220.334,39.7498 240.334,39.7498 240.334,69.7498 220.334,69.7498 " stroke="black" fill="green" stroke-width="0.1" />
<polygon points="240.334,39.7498 260.334,39.7498 260.334,69.7498 240.334,69.7498 " stroke="black" fill="green" stroke-width="0.1" />
<polygon points="260.334,39.7498 280.334,39.7498 280.334,69.7498 260.334,69.7498 " stroke="black" fill="green" stroke-width="0.1" />
<polygon points="280.334,39.7498 300.334,39.7498 300.334,69.7498 280.334,69.7498 " stroke="black" fill="green" stroke-width="0.1" />
<polygon points="138.316,9.74984 158.316,9.74984 158.316,39.7498 138.316,39.7498 " stroke="black" fill="green" stroke-width="0.1" />
<polygon points="158.316,9.74984 178.316,9.74984 178.316,39.7498 158.316,39.7498 " stroke="black" fill="green" stroke-width="0.1" />
<polygon points="178.316,9.74984 198.316,9.74984 198.316,39.7498 178.316,39.7498 " stroke="black" fill="green" stroke-width="0.1" />
<polygon points="198.316,9.74984 218.316,9.74984 218.316,39.7498 198.316,39.7498 " stroke="black" fill="green" stroke-width="0.1" />
<polygon points="218.316,9.74984 238.316,9.74984 238.316,39.7498 218.316,39.7498 " stroke="black" fill="green" stroke-width="0.1" />
<polygon points="238.316,9.74984 258.316,9.74984 258.316,39.7498 238.316,39.7498 " stroke="black" fill="green" stroke-width="0.1" />
</svg>