<svg  version="1.1" xmlns="http://www.w3.org/2000/svg">
<polygon points="150,0 0,259.808 300,259.808 " stroke="black" fill="red" stroke-width="0.1" />
<polygon points="36.6025,209.808 38.6025,195.808 40.6025,190.212 42.6025,186.059 44.6025,182.678 46.6025,179.808 48.6025,177.311 50.6025,175.109 52.6025,173.147 54.6025,171.389 56.6025,169.808 58.6025,168.383 60.6025,167.099 62.6025,165.944 64.6025,164.908 66.6025,163.982 68.6025,163.16 70.6025,162.437 72.6025,161.808 74.6025,161.269 76.6025,160.818 78.6025,160.452 80.6025,160.169 82.6025,159.968 84.6025,159.848 86.6025,159.808 100.603,161.808 106.198,163.808 110.351,165.808 113.732,167.808 116.603,169.808 119.099,171.808 121.301,173.808 123.263,175.808 125.021,177.808 126.603,179.808 128.027,181.808 129.311,183.808 130.466,185.808 131.502,187.808 132.428,189.808 133.25,191.808 133.973,193.808 134.603,195.808 135.141,197.808 135.592,199.808 135.958,201.808 136.241,203.808 136.442,205.808 136.563,207.808 136.603,209.808 134.603,223.808 132.603,229.404 130.603,233.556 128.603,236.937 126.603,239.808 124.603,242.304 122.603,244.506 120.603,246.468 118.603,248.226 116.603,249.808 114.603,251.232 112.603,252.516 110.603,253.671 108.603,254.708 106.603,255.633 104.603,256.455 102.603,257.178 100.603,257.808 98.6025,258.346 96.6025,258.797 94.6025,259.163 92.6025,259.446 90.6025,259.647 88.6025,259.768 86.6025,259.808 72.6025,257.808 67.0066,255.808 62.8539,253.808 59.4732,251.808 56.6025,249.808 54.1064,247.808 51.9038,245.808 49.9419,243.808 48.1838,241.808 46.6025,239.808 45.1779,237.808 43.8942,235.808 42.7391,233.808 41.7027,231.808 40.7768,229.808 39.9549,227.808 39.2317,225.808 38.6025,223.808 38.0639,221.808 37.6127,219.808 37.2467,217.808 36.9638,215.808 36.7628,213.808 36.6426,211.808 " stroke="black" fill="green" stroke-width="0.1" />
<polygon points="136.603,209.808 138.603,195.808 140.603,190.212 142.603,186.059 144.603,182.678 146.603,179.808 148.603,177.311 150.603,175.109 152.603,173.147 154.603,171.389 156.603,169.808 158.603,168.383 160.603,167.099 162.603,165.944 164.603,164.908 166.603,163.982 168.603,163.16 170.603,162.437 172.603,161.808 174.603,161.269 176.603,160.818 178.603,160.452 180.603,160.169 182.603,159.968 184.603,159.848 186.603,159.808 200.603,161.808 206.198,163.808 210.351,165.808 213.732,167.808 216.603,169.808 219.099,171.808 221.301,173.808 223.263,175.808 225.021,177.808 226.603,179.808 228.027,181.808 229.311,183.808 230.466,185.808 231.502,187.808 232.428,189.808 233.25,191.808 233.973,193.808 234.603,195.808 235.141,197.808 235.592,199.808 235.958,201.808 236.241,203.808 236.442,205.808 236.563,207.808 236.603,209.808 234.603,223.808 232.603,229.404 230.603,233.556 228.603,236.937 226.603,239.808 224.603,242.304 222.603,244.506 220.603,246.468 218.603,248.226 216.603,249.808 214.603,251.232 212.603,252.516 210.603,253.671 208.603,254.708 206.603,255.633 204.603,256.455 202.603,257.178 200.603,257.808 198.603,258.346 196.603,258.797 194.603,259.163 192.603,259.446 190.603,259.647 188.603,259.768 186.603,259.808 172.603,257.808 167.007,255.808 162.854,253.808 159.473,251.808 156.603,249.808 154.106,247.808 151.904,245.808 149.942,243.808 148.184,241.808 146.603,239.808 145.178,237.808 143.894,235.808 142.739,233.808 141.703,231.808 140.777,229.808 139.955,227.808 139.232,225.808 138.603,223.808 138.064,221.808 137.613,219.808 137.247,217.808 136.964,215.808 136.763,213.808 136.643,211.808 " stroke="black" fill="green" stroke-width="0.1" />
<polygon points="86.6025,123.205 88.6025,109.205 90.6025,103.609 92.6025,99.4564 94.6025,96.0758 96.6025,93.2051 98.6025,90.7089 100.603,88.5064 102.603,86.5445 104.603,84.7863 106.603,83.2051 108.603,81.7805 110.603,80.4968 112.603,79.3417 114.603,78.3052 116.603,77.3793 118.603,76.5575 120.603,75.8342 122.603,75.2051 124.603,74.6664 126.603,74.2153 128.603,73.8492 130.603,73.5664 132.603,73.3653 134.603,73.2451 136.603,73.2051 150.603,75.2051 156.198,77.2051 160.351,79.2051 163.732,81.2051 166.603,83.2051 169.099,85.2051 171.301,87.2051 173.263,89.2051 175.021,91.2051 176.603,93.2051 178.027,95.2051 179.311,97.2051 180.466,99.2051 181.502,101.205 182.428,103.205 183.25,105.205 183.973,107.205 184.603,109.205 185.141,111.205 185.592,113.205 185.958,115.205 186.241,117.205 186.442,119.205 186.563,121.205 186.603,123.205 184.603,137.205 182.603,142.801 180.603,146.954 178.603,150.334 176.603,153.205 174.603,155.701 172.603,157.904 170.603,159.866 168.603,161.624 166.603,163.205 164.603,164.63 162.603,165.913 160.603,167.069 158.603,168.105 156.603,169.031 154.603,169.853 152.603,170.576 150.603,171.205 148.603,171.744 146.603,172.195 144.603,172.561 142.603,172.844 140.603,173.045 138.603,173.165 136.603,173.205 122.603,171.205 117.007,169.205 112.854,167.205 109.473,165.205 106.603,163.205 104.106,161.205 101.904,159.205 99.9419,157.205 98.1838,155.205 96.6025,153.205 95.1779,151.205 93.8942,149.205 92.7391,147.205 91.7027,145.205 90.7768,143.205 89.9549,141.205 89.2317,139.205 88.6025,137.205 88.0639,135.205 87.6127,133.205 87.2467,131.205 86.9638,129.205 86.7628,127.205 86.6426,125.205 " stroke="black" fill="green" stroke-width="0.1" />
</svg>