<svg  version="1.1" xmlns="http://www.w3.org/2000/svg">
<polygon points="150,0 0,259.808 300,259.808 " stroke="black" fill="red" stroke-width="0.1" />
<polygon points="28.8675,209.808 78.8675,209.808 78.8675,259.808 28.8675,259.808 " stroke="black" fill="green" stroke-width="0.1" />
<polygon points="78.8675,209.808 128.868,209.808 128.868,259.808 78.8675,259.808 " stroke="black" fill="green" stroke-width="0.1" />
<polygon points="128.868,209.808 178.868,209.808 178.868,259.808 128.868,259.808 " stroke="black" fill="green" stroke-width="0.1" />
<polygon points="178.868,209.808 228.868,209.808 228.868,259.808 178.868,259.808 " stroke="black" fill="green" stroke-width="0.1" />
<polygon points="57,159.808 107,159.808 107,209.808 57,209.808 " stroke="black" fill="green" stroke-width="0.1" />
<polygon points="107,159.808 157,159.808 157,209.808 107,209.808 " stroke="black" fill="green" stroke-width="0.1" />
<polygon points="157,159.808 207,159.808 207,209.808 157,209.808 " stroke="black" fill="green" stroke-width="0.1" />
<polygon points="86,109.808 136,109.808 136,159.808 86,159.808 " stroke="black" fill="green" stroke-width="0.1" />
<polygon points="136,109.808 186,109.808 186,159.808 136,159.808 " stroke="black" fill="green" stroke-width="0.1" />
<polygon points="115,59.8076 165,59.8076 165,109.808 115,109.808 " stroke="black" fill="green" stroke-width="0.1" />
</svg>