<svg  version="1.1" xmlns="http://www.w3.org/2000/svg">
<polygon points="150,0 0,259.808 300,259.808 " stroke="black" fill="red" stroke-width="0.1" />
<polygon points="15.3731,238.808 16.2131,232.928 17.0531,230.577 17.8931,228.833 18.7331,227.413 19.5731,226.208 20.4131,225.159 21.2531,224.234 22.0931,223.41 22.9331,222.672 23.7731,222.008 24.6131,221.409 25.4531,220.87 26.2931,220.385 27.1331,219.95 27.9731,219.561 28.8131,219.216 29.6531,218.912 30.4931,218.648 31.3331,218.421 32.1731,218.232 33.0131,218.078 33.8531,217.959 34.6931,217.875 35.5331,217.824 36.3731,217.808 42.2531,218.648 44.6034,219.488 46.3475,220.328 47.7674,221.168 48.9731,222.008 50.0215,222.848 50.9465,223.688 51.7705,224.528 52.5089,225.368 53.1731,226.208 53.7714,227.048 54.3106,227.888 54.7957,228.728 55.231,229.568 55.6199,230.408 55.9651,231.248 56.2688,232.088 56.5331,232.928 56.7593,233.768 56.9488,234.608 57.1025,235.448 57.2213,236.288 57.3058,237.128 57.3563,237.968 57.3731,238.808 56.5331,244.688 55.6931,247.038 54.8531,248.782 54.0131,250.202 53.1731,251.408 52.3331,252.456 51.4931,253.381 50.6531,254.205 49.8131,254.943 48.9731,255.608 48.1331,256.206 47.2931,256.745 46.4531,257.23 45.6131,257.666 44.7731,258.054 43.9331,258.4 43.0931,258.703 42.2531,258.968 41.4131,259.194 40.5731,259.383 39.7331,259.537 38.8931,259.656 38.0531,259.74 37.2131,259.791 36.3731,259.808 30.4931,258.968 28.1428,258.128 26.3986,257.288 24.9788,256.448 23.7731,255.608 22.7247,254.768 21.7996,253.928 20.9756,253.088 20.2372,252.248 19.5731,251.408 18.9747,250.568 18.4356,249.728 17.9504,248.888 17.5151,248.048 17.1262,247.208 16.7811,246.368 16.4773,245.528 16.2131,244.688 15.9868,243.848 15.7974,243.008 15.6436,242.168 15.5248,241.328 15.4404,240.488 15.3899,239.648 " stroke="black" fill="green" stroke-width="0.1" />
<polygon points="57.3731,238.808 58.2131,232.928 59.0531,230.577 59.8931,228.833 60.7331,227.413 61.5731,226.208 62.4131,225.159 63.2531,224.234 64.0931,223.41 64.9331,222.672 65.7731,222.008 66.6131,221.409 67.4531,220.87 68.2931,220.385 69.1331,219.95 69.9731,219.561 70.8131,219.216 71.6531,218.912 72.4931,218.648 73.3331,218.421 74.1731,218.232 75.0131,218.078 75.8531,217.959 76.6931,217.875 77.5331,217.824 78.3731,217.808 84.2531,218.648 86.6034,219.488 88.3475,220.328 89.7674,221.168 90.9731,222.008 92.0215,222.848 92.9465,223.688 93.7705,224.528 94.5089,225.368 95.1731,226.208 95.7714,227.048 96.3106,227.888 96.7957,228.728 97.231,229.568 97.6199,230.408 97.9651,231.248 98.2688,232.088 98.5331,232.928 98.7593,233.768 98.9488,234.608 99.1025,235.448 99.2213,236.288 99.3058,237.128 99.3563,237.968 99.3731,238.808 98.5331,244.688 97.6931,247.038 96.8531,248.782 96.0131,250.202 95.1731,251.408 94.3331,252.456 93.4931,253.381 92.6531,254.205 91.8131,254.943 90.9731,255.608 90.1331,256.206 89.2931,256.745 88.4531,257.23 87.6131,257.666 86.7731,258.054 85.9331,258.4 85.0931,258.703 84.2531,258.968 83.4131,259.194 82.5731,259.383 81.7331,259.537 80.8931,259.656 80.0531,259.74 79.2131,259.791 78.3731,259.808 72.4931,258.968 70.1428,258.128 68.3986,257.288 66.9788,256.448 65.7731,255.608 64.7247,254.768 63.7996,253.928 62.9756,253.088 62.2372,252.248 61.5731,251.408 60.9747,250.568 60.4356,249.728 59.9504,248.888 59.5151,248.048 59.1262,247.208 58.7811,246.368 58.4773,245.528 58.2131,244.688 57.9868,243.848 57.7974,243.008 57.6436,242.168 57.5248,241.328 57.4404,240.488 57.3899,239.648 " stroke="black" fill="green" stroke-width="0.1" />
<polygon points="99.3731,238.808 100.213,232.928 101.053,230.577 101.893,228.833 102.733,227.413 103.573,226.208 104.413,225.159 105.253,224.234 106.093,223.41 106.933,222.672 107.773,222.008 108.613,221.409 109.453,220.87 110.293,220.385 111.133,219.95 111.973,219.561 112.813,219.216 113.653,218.912 114.493,218.648 115.333,218.421 116.173,218.232 117.013,218.078 117.853,217.959 118.693,217.875 119.533,217.824 120.373,217.808 126.253,218.648 128.603,219.488 130.348,220.328 131.767,221.168 132.973,222.008 134.021,222.848 134.947,223.688 135.771,224.528 136.509,225.368 137.173,226.208 137.771,227.048 138.311,227.888 138.796,228.728 139.231,229.568 139.62,230.408 139.965,231.248 140.269,232.088 140.533,232.928 140.759,233.768 140.949,234.608 141.103,235.448 141.221,236.288 141.306,237.128 141.356,237.968 141.373,238.808 140.533,244.688 139.693,247.038 138.853,248.782 138.013,250.202 137.173,251.408 136.333,252.456 135.493,253.381 134.653,254.205 133.813,254.943 132.973,255.608 132.133,256.206 131.293,256.745 130.453,257.23 129.613,257.666 128.773,258.054 127.933,258.4 127.093,258.703 126.253,258.968 125.413,259.194 124.573,259.383 123.733,259.537 122.893,259.656 122.053,259.74 121.213,259.791 120.373,259.808 114.493,258.968 112.143,258.128 110.399,257.288 108.979,256.448 107.773,255.608 106.725,254.768 105.8,253.928 104.976,253.088 104.237,252.248 103.573,251.408 102.975,250.568 102.436,249.728 101.95,248.888 101.515,248.048 101.126,247.208 100.781,246.368 100.477,245.528 100.213,244.688 99.9868,243.848 99.7974,243.008 99.6436,242.168 99.5248,241.328 99.4404,240.488 99.3899,239.648 " stroke="black" fill="green" stroke-width="0.1" />
<polygon points="141.373,238.808 142.213,232.928 143.053,230.577 143.893,228.833 144.733,227.413 145.573,226.208 146.413,225.159 147.253,224.234 148.093,223.41 148.933,222.672 149.773,222.008 150.613,221.409 151.453,220.87 152.293,220.385 153.133,219.95 153.973,219.561 154.813,219.216 155.653,218.912 156.493,218.648 157.333,218.421 158.173,218.232 159.013,218.078 159.853,217.959 160.693,217.875 161.533,217.824 162.373,217.808 168.253,218.648 170.603,219.488 172.348,220.328 173.767,221.168 174.973,222.008 176.021,222.848 176.947,223.688 177.771,224.528 178.509,225.368 179.173,226.208 179.771,227.048 180.311,227.888 180.796,228.728 181.231,229.568 181.62,230.408 181.965,231.248 182.269,232.088 182.533,232.928 182.759,233.768 182.949,234.608 183.103,235.448 183.221,236.288 183.306,237.128 183.356,237.968 183.373,238.808 182.533,244.688 181.693,247.038 180.853,248.782 180.013,250.202 179.173,251.408 178.333,252.456 177.493,253.381 176.653,254.205 175.813,254.943 174.973,255.608 174.133,256.206 173.293,256.745 172.453,257.23 171.613,257.666 170.773,258.054 169.933,258.4 169.093,258.703 168.253,258.968 167.413,259.194 166.573,259.383 165.733,259.537 164.893,259.656 164.053,259.74 163.213,259.791 162.373,259.808 156.493,258.968 154.143,258.128 152.399,257.288 150.979,256.448 149.773,255.608 148.725,254.768 147.8,253.928 146.976,253.088 146.237,252.248 145.573,251.408 144.975,250.568 144.436,249.728 143.95,248.888 143.515,248.048 143.126,247.208 142.781,246.368 142.477,245.528 142.213,244.688 141.987,243.848 141.797,243.008 141.644,242.168 141.525,241.328 141.44,240.488 141.39,239.648 " stroke="black" fill="green" stroke-width="0.1" />
<polygon points="183.373,238.808 184.213,232.928 185.053,230.577 185.893,228.833 186.733,227.413 187.573,226.208 188.413,225.159 189.253,224.234 190.093,223.41 190.933,222.672 191.773,222.008 192.613,221.409 193.453,220.87 194.293,220.385 195.133,219.95 195.973,219.561 196.813,219.216 197.653,218.912 198.493,218.648 199.333,218.421 200.173,218.232 201.013,218.078 201.853,217.959 202.693,217.875 203.533,217.824 204.373,217.808 210.253,218.648 212.603,219.488 214.348,220.328 215.767,221.168 216.973,222.008 218.021,222.848 218.947,223.688 219.771,224.528 220.509,225.368 221.173,226.208 221.771,227.048 222.311,227.888 222.796,228.728 223.231,229.568 223.62,230.408 223.965,231.248 224.269,232.088 224.533,232.928 224.759,233.768 224.949,234.608 225.103,235.448 225.221,236.288 225.306,237.128 225.356,237.968 225.373,238.808 224.533,244.688 223.693,247.038 222.853,248.782 222.013,250.202 221.173,251.408 220.333,252.456 219.493,253.381 218.653,254.205 217.813,254.943 216.973,255.608 216.133,256.206 215.293,256.745 214.453,257.23 213.613,257.666 212.773,258.054 211.933,258.4 211.093,258.703 210.253,258.968 209.413,259.194 208.573,259.383 207.733,259.537 206.893,259.656 206.053,259.74 205.213,259.791 204.373,259.808 198.493,258.968 196.143,258.128 194.399,257.288 192.979,256.448 191.773,255.608 190.725,254.768 189.8,253.928 188.976,253.088 188.237,252.248 187.573,251.408 186.975,250.568 186.436,249.728 185.95,248.888 185.515,248.048 185.126,247.208 184.781,246.368 184.477,245.528 184.213,244.688 183.987,243.848 183.797,243.008 183.644,242.168 183.525,241.328 183.44,240.488 183.39,239.648 " stroke="black" fill="green" stroke-width="0.1" />
<polygon points="225.373,238.808 226.213,232.928 227.053,230.577 227.893,228.833 228.733,227.413 229.573,226.208 230.413,225.159 231.253,224.234 232.093,223.41 232.933,222.672 233.773,222.008 234.613,221.409 235.453,220.87 236.293,220.385 237.133,219.95 237.973,219.561 238.813,219.216 239.653,218.912 240.493,218.648 241.333,218.421 242.173,218.232 243.013,218.078 243.853,217.959 244.693,217.875 245.533,217.824 246.373,217.808 252.253,218.648 254.603,219.488 256.348,220.328 257.767,221.168 258.973,222.008 260.021,222.848 260.947,223.688 261.771,224.528 262.509,225.368 263.173,226.208 263.771,227.048 264.311,227.888 264.796,228.728 265.231,229.568 265.62,230.408 265.965,231.248 266.269,232.088 266.533,232.928 266.759,233.768 266.949,234.608 267.103,235.448 267.221,236.288 267.306,237.128 267.356,237.968 267.373,238.808 266.533,244.688 265.693,247.038 264.853,248.782 264.013,250.202 263.173,251.408 262.333,252.456 261.493,253.381 260.653,254.205 259.813,254.943 258.973,255.608 258.133,256.206 257.293,256.745 256.453,257.23 255.613,257.666 254.773,258.054 253.933,258.4 253.093,258.703 252.253,258.968 251.413,259.194 250.573,259.383 249.733,259.537 248.893,259.656 248.053,259.74 247.213,259.791 246.373,259.808 240.493,258.968 238.143,258.128 236.399,257.288 234.979,256.448 233.773,255.608 232.725,254.768 231.8,253.928 230.976,253.088 230.237,252.248 229.573,251.408 228.975,250.568 228.436,249.728 227.95,248.888 227.515,248.048 227.126,247.208 226.781,246.368 226.477,245.528 226.213,244.688 225.987,243.848 225.797,243.008 225.644,242.168 225.525,241.328 225.44,240.488 225.39,239.648 " stroke="black" fill="green" stroke-width="0.1" />
<polygon points="36.3731,202.435 37.2131,196.555 38.0531,194.204 38.8931,192.46 39.7331,191.04 40.5731,189.835 41.4131,188.786 42.2531,187.861 43.0931,187.037 43.9331,186.299 44.7731,185.635 45.6131,185.036 46.4531,184.497 47.2931,184.012 48.1331,183.577 48.9731,183.188 49.8131,182.843 50.6531,182.539 51.4931,182.275 52.3331,182.048 53.1731,181.859 54.0131,181.705 54.8531,181.586 55.6931,181.502 56.5331,181.451 57.3731,181.435 63.2531,182.275 65.6034,183.115 67.3475,183.955 68.7674,184.795 69.9731,185.635 71.0215,186.475 71.9465,187.315 72.7705,188.155 73.5089,188.995 74.1731,189.835 74.7714,190.675 75.3106,191.515 75.7957,192.355 76.231,193.195 76.6199,194.035 76.9651,194.875 77.2688,195.715 77.5331,196.555 77.7593,197.395 77.9488,198.235 78.1025,199.075 78.2213,199.915 78.3058,200.755 78.3563,201.595 78.3731,202.435 77.5331,208.315 76.6931,210.665 75.8531,212.409 75.0131,213.829 74.1731,215.035 73.3331,216.083 72.4931,217.008 71.6531,217.832 70.8131,218.57 69.9731,219.235 69.1331,219.833 68.2931,220.372 67.4531,220.857 66.6131,221.293 65.7731,221.681 64.9331,222.027 64.0931,222.33 63.2531,222.595 62.4131,222.821 61.5731,223.01 60.7331,223.164 59.8931,223.283 59.0531,223.367 58.2131,223.418 57.3731,223.435 51.4931,222.595 49.1428,221.755 47.3986,220.915 45.9788,220.075 44.7731,219.235 43.7247,218.395 42.7996,217.555 41.9756,216.715 41.2372,215.875 40.5731,215.035 39.9747,214.195 39.4356,213.355 38.9504,212.515 38.5151,211.675 38.1262,210.835 37.7811,209.995 37.4773,209.155 37.2131,208.315 36.9868,207.475 36.7974,206.635 36.6436,205.795 36.5248,204.955 36.4404,204.115 36.3899,203.275 " stroke="black" fill="green" stroke-width="0.1" />
<polygon points="78.3731,202.435 79.2131,196.555 80.0531,194.204 80.8931,192.46 81.7331,191.04 82.5731,189.835 83.4131,188.786 84.2531,187.861 85.0931,187.037 85.9331,186.299 86.7731,185.635 87.6131,185.036 88.4531,184.497 89.2931,184.012 90.1331,183.577 90.9731,183.188 91.8131,182.843 92.6531,182.539 93.4931,182.275 94.3331,182.048 95.1731,181.859 96.0131,181.705 96.8531,181.586 97.6931,181.502 98.5331,181.451 99.3731,181.435 105.253,182.275 107.603,183.115 109.348,183.955 110.767,184.795 111.973,185.635 113.021,186.475 113.947,187.315 114.771,188.155 115.509,188.995 116.173,189.835 116.771,190.675 117.311,191.515 117.796,192.355 118.231,193.195 118.62,194.035 118.965,194.875 119.269,195.715 119.533,196.555 119.759,197.395 119.949,198.235 120.103,199.075 120.221,199.915 120.306,200.755 120.356,201.595 120.373,202.435 119.533,208.315 118.693,210.665 117.853,212.409 117.013,213.829 116.173,215.035 115.333,216.083 114.493,217.008 113.653,217.832 112.813,218.57 111.973,219.235 111.133,219.833 110.293,220.372 109.453,220.857 108.613,221.293 107.773,221.681 106.933,222.027 106.093,222.33 105.253,222.595 104.413,222.821 103.573,223.01 102.733,223.164 101.893,223.283 101.053,223.367 100.213,223.418 99.3731,223.435 93.4931,222.595 91.1428,221.755 89.3986,220.915 87.9788,220.075 86.7731,219.235 85.7247,218.395 84.7996,217.555 83.9756,216.715 83.2372,215.875 82.5731,215.035 81.9747,214.195 81.4356,213.355 80.9504,212.515 80.5151,211.675 80.1262,210.835 79.7811,209.995 79.4773,209.155 79.2131,208.315 78.9868,207.475 78.7974,206.635 78.6436,205.795 78.5248,204.955 78.4404,204.115 78.3899,203.275 " stroke="black" fill="green" stroke-width="0.1" />
<polygon points="120.373,202.435 121.213,196.555 122.053,194.204 122.893,192.46 123.733,191.04 124.573,189.835 125.413,188.786 126.253,187.861 127.093,187.037 127.933,186.299 128.773,185.635 129.613,185.036 130.453,184.497 131.293,184.012 132.133,183.577 132.973,183.188 133.813,182.843 134.653,182.539 135.493,182.275 136.333,182.048 137.173,181.859 138.013,181.705 138.853,181.586 139.693,181.502 140.533,181.451 141.373,181.435 147.253,182.275 149.603,183.115 151.348,183.955 152.767,184.795 153.973,185.635 155.021,186.475 155.947,187.315 156.771,188.155 157.509,188.995 158.173,189.835 158.771,190.675 159.311,191.515 159.796,192.355 160.231,193.195 160.62,194.035 160.965,194.875 161.269,195.715 161.533,196.555 161.759,197.395 161.949,198.235 162.103,199.075 162.221,199.915 162.306,200.755 162.356,201.595 162.373,202.435 161.533,208.315 160.693,210.665 159.853,212.409 159.013,213.829 158.173,215.035 157.333,216.083 156.493,217.008 155.653,217.832 154.813,218.57 153.973,219.235 153.133,219.833 152.293,220.372 151.453,220.857 150.613,221.293 149.773,221.681 148.933,222.027 148.093,222.33 147.253,222.595 146.413,222.821 145.573,223.01 144.733,223.164 143.893,223.283 143.053,223.367 142.213,223.418 141.373,223.435 135.493,222.595 133.143,221.755 131.399,220.915 129.979,220.075 128.773,219.235 127.725,218.395 126.8,217.555 125.976,216.715 125.237,215.875 124.573,215.035 123.975,214.195 123.436,213.355 122.95,212.515 122.515,211.675 122.126,210.835 121.781,209.995 121.477,209.155 121.213,208.315 120.987,207.475 120.797,206.635 120.644,205.795 120.525,204.955 120.44,204.115 120.39,203.275 " stroke="black" fill="green" stroke-width="0.1" />
<polygon points="162.373,202.435 163.213,196.555 164.053,194.204 164.893,192.46 165.733,191.04 166.573,189.835 167.413,188.786 168.253,187.861 169.093,187.037 169.933,186.299 170.773,185.635 171.613,185.036 172.453,184.497 173.293,184.012 174.133,183.577 174.973,183.188 175.813,182.843 176.653,182.539 177.493,182.275 178.333,182.048 179.173,181.859 180.013,181.705 180.853,181.586 181.693,181.502 182.533,181.451 183.373,181.435 189.253,182.275 191.603,183.115 193.348,183.955 194.767,184.795 195.973,185.635 197.021,186.475 197.947,187.315 198.771,188.155 199.509,188.995 200.173,189.835 200.771,190.675 201.311,191.515 201.796,192.355 202.231,193.195 202.62,194.035 202.965,194.875 203.269,195.715 203.533,196.555 203.759,197.395 203.949,198.235 204.103,199.075 204.221,199.915 204.306,200.755 204.356,201.595 204.373,202.435 203.533,208.315 202.693,210.665 201.853,212.409 201.013,213.829 200.173,215.035 199.333,216.083 198.493,217.008 197.653,217.832 196.813,218.57 195.973,219.235 195.133,219.833 194.293,220.372 193.453,220.857 192.613,221.293 191.773,221.681 190.933,222.027 190.093,222.33 189.253,222.595 188.413,222.821 187.573,223.01 186.733,223.164 185.893,223.283 185.053,223.367 184.213,223.418 183.373,223.435 177.493,222.595 175.143,221.755 173.399,220.915 171.979,220.075 170.773,219.235 169.725,218.395 168.8,217.555 167.976,216.715 167.237,215.875 166.573,215.035 165.975,214.195 165.436,213.355 164.95,212.515 164.515,211.675 164.126,210.835 163.781,209.995 163.477,209.155 163.213,208.315 162.987,207.475 162.797,206.635 162.644,205.795 162.525,204.955 162.44,204.115 162.39,203.275 " stroke="black" fill="green" stroke-width="0.1" />
<polygon points="204.373,202.435 205.213,196.555 206.053,194.204 206.893,192.46 207.733,191.04 208.573,189.835 209.413,188.786 210.253,187.861 211.093,187.037 211.933,186.299 212.773,185.635 213.613,185.036 214.453,184.497 215.293,184.012 216.133,183.577 216.973,183.188 217.813,182.843 218.653,182.539 219.493,182.275 220.333,182.048 221.173,181.859 222.013,181.705 222.853,181.586 223.693,181.502 224.533,181.451 225.373,181.435 231.253,182.275 233.603,183.115 235.348,183.955 236.767,184.795 237.973,185.635 239.021,186.475 239.947,187.315 240.771,188.155 241.509,188.995 242.173,189.835 242.771,190.675 243.311,191.515 243.796,192.355 244.231,193.195 244.62,194.035 244.965,194.875 245.269,195.715 245.533,196.555 245.759,197.395 245.949,198.235 246.103,199.075 246.221,199.915 246.306,200.755 246.356,201.595 246.373,202.435 245.533,208.315 244.693,210.665 243.853,212.409 243.013,213.829 242.173,215.035 241.333,216.083 240.493,217.008 239.653,217.832 238.813,218.57 237.973,219.235 237.133,219.833 236.293,220.372 235.453,220.857 234.613,221.293 233.773,221.681 232.933,222.027 232.093,222.33 231.253,222.595 230.413,222.821 229.573,223.01 228.733,223.164 227.893,223.283 227.053,223.367 226.213,223.418 225.373,223.435 219.493,222.595 217.143,221.755 215.399,220.915 213.979,220.075 212.773,219.235 211.725,218.395 210.8,217.555 209.976,216.715 209.237,215.875 208.573,215.035 207.975,214.195 207.436,213.355 206.95,212.515 206.515,211.675 206.126,210.835 205.781,209.995 205.477,209.155 205.213,208.315 204.987,207.475 204.797,206.635 204.644,205.795 204.525,204.955 204.44,204.115 204.39,203.275 " stroke="black" fill="green" stroke-width="0.1" />
<polygon points="57.3731,166.061 58.2131,160.181 59.0531,157.831 59.8931,156.087 60.7331,154.667 61.5731,153.461 62.4131,152.413 63.2531,151.488 64.0931,150.664 64.9331,149.926 65.7731,149.261 66.6131,148.663 67.4531,148.124 68.2931,147.639 69.1331,147.204 69.9731,146.815 70.8131,146.469 71.6531,146.166 72.4931,145.901 73.3331,145.675 74.1731,145.486 75.0131,145.332 75.8531,145.213 76.6931,145.129 77.5331,145.078 78.3731,145.061 84.2531,145.901 86.6034,146.741 88.3475,147.581 89.7674,148.421 90.9731,149.261 92.0215,150.101 92.9465,150.941 93.7705,151.781 94.5089,152.621 95.1731,153.461 95.7714,154.301 96.3106,155.141 96.7957,155.981 97.231,156.821 97.6199,157.661 97.9651,158.501 98.2688,159.341 98.5331,160.181 98.7593,161.021 98.9488,161.861 99.1025,162.701 99.2213,163.541 99.3058,164.381 99.3563,165.221 99.3731,166.061 98.5331,171.941 97.6931,174.292 96.8531,176.036 96.0131,177.456 95.1731,178.661 94.3331,179.71 93.4931,180.635 92.6531,181.459 91.8131,182.197 90.9731,182.861 90.1331,183.46 89.2931,183.999 88.4531,184.484 87.6131,184.919 86.7731,185.308 85.9331,185.653 85.0931,185.957 84.2531,186.221 83.4131,186.448 82.5731,186.637 81.7331,186.791 80.8931,186.91 80.0531,186.994 79.2131,187.045 78.3731,187.061 72.4931,186.221 70.1428,185.381 68.3986,184.541 66.9788,183.701 65.7731,182.861 64.7247,182.021 63.7996,181.181 62.9756,180.341 62.2372,179.501 61.5731,178.661 60.9747,177.821 60.4356,176.981 59.9504,176.141 59.5151,175.301 59.1262,174.461 58.7811,173.621 58.4773,172.781 58.2131,171.941 57.9868,171.101 57.7974,170.261 57.6436,169.421 57.5248,168.581 57.4404,167.741 57.3899,166.901 " stroke="black" fill="green" stroke-width="0.1" />
<polygon points="99.3731,166.061 100.213,160.181 101.053,157.831 101.893,156.087 102.733,154.667 103.573,153.461 104.413,152.413 105.253,151.488 106.093,150.664 106.933,149.926 107.773,149.261 108.613,148.663 109.453,148.124 110.293,147.639 111.133,147.204 111.973,146.815 112.813,146.469 113.653,146.166 114.493,145.901 115.333,145.675 116.173,145.486 117.013,145.332 117.853,145.213 118.693,145.129 119.533,145.078 120.373,145.061 126.253,145.901 128.603,146.741 130.348,147.581 131.767,148.421 132.973,149.261 134.021,150.101 134.947,150.941 135.771,151.781 136.509,152.621 137.173,153.461 137.771,154.301 138.311,155.141 138.796,155.981 139.231,156.821 139.62,157.661 139.965,158.501 140.269,159.341 140.533,160.181 140.759,161.021 140.949,161.861 141.103,162.701 141.221,163.541 141.306,164.381 141.356,165.221 141.373,166.061 140.533,171.941 139.693,174.292 138.853,176.036 138.013,177.456 137.173,178.661 136.333,179.71 135.493,180.635 134.653,181.459 133.813,182.197 132.973,182.861 132.133,183.46 131.293,183.999 130.453,184.484 129.613,184.919 128.773,185.308 127.933,185.653 127.093,185.957 126.253,186.221 125.413,186.448 124.573,186.637 123.733,186.791 122.893,186.91 122.053,186.994 121.213,187.045 120.373,187.061 114.493,186.221 112.143,185.381 110.399,184.541 108.979,183.701 107.773,182.861 106.725,182.021 105.8,181.181 104.976,180.341 104.237,179.501 103.573,178.661 102.975,177.821 102.436,176.981 101.95,176.141 101.515,175.301 101.126,174.461 100.781,173.621 100.477,172.781 100.213,171.941 99.9868,171.101 99.7974,170.261 99.6436,169.421 99.5248,168.581 99.4404,167.741 99.3899,166.901 " stroke="black" fill="green" stroke-width="0.1" />
<polygon points="141.373,166.061 142.213,160.181 143.053,157.831 143.893,156.087 144.733,154.667 145.573,153.461 146.413,152.413 147.253,151.488 148.093,150.664 148.933,149.926 149.773,149.261 150.613,148.663 151.453,148.124 152.293,147.639 153.133,147.204 153.973,146.815 154.813,146.469 155.653,146.166 156.493,145.901 157.333,145.675 158.173,145.486 159.013,145.332 159.853,145.213 160.693,145.129 161.533,145.078 162.373,145.061 168.253,145.901 170.603,146.741 172.348,147.581 173.767,148.421 174.973,149.261 176.021,150.101 176.947,150.941 177.771,151.781 178.509,152.621 179.173,153.461 179.771,154.301 180.311,155.141 180.796,155.981 181.231,156.821 181.62,157.661 181.965,158.501 182.269,159.341 182.533,160.181 182.759,161.021 182.949,161.861 183.103,162.701 183.221,163.541 183.306,164.381 183.356,165.221 183.373,166.061 182.533,171.941 181.693,174.292 180.853,176.036 180.013,177.456 179.173,178.661 178.333,179.71 177.493,180.635 176.653,181.459 175.813,182.197 174.973,182.861 174.133,183.46 173.293,183.999 172.453,184.484 171.613,184.919 170.773,185.308 169.933,185.653 169.093,185.957 168.253,186.221 167.413,186.448 166.573,186.637 165.733,186.791 164.893,186.91 164.053,186.994 163.213,187.045 162.373,187.061 156.493,186.221 154.143,185.381 152.399,184.541 150.979,183.701 149.773,182.861 148.725,182.021 147.8,181.181 146.976,180.341 146.237,179.501 145.573,178.661 144.975,177.821 144.436,176.981 143.95,176.141 143.515,175.301 143.126,174.461 142.781,173.621 142.477,172.781 142.213,171.941 141.987,171.101 141.797,170.261 141.644,169.421 141.525,168.581 141.44,167.741 141.39,166.901 " stroke="black" fill="green" stroke-width="0.1" />
<polygon points="183.373,166.061 184.213,160.181 185.053,157.831 185.893,156.087 186.733,154.667 187.573,153.461 188.413,152.413 189.253,151.488 190.093,150.664 190.933,149.926 191.773,149.261 192.613,148.663 193.453,148.124 194.293,147.639 195.133,147.204 195.973,146.815 196.813,146.469 197.653,146.166 198.493,145.901 199.333,145.675 200.173,145.486 201.013,145.332 201.853,145.213 202.693,145.129 203.533,145.078 204.373,145.061 210.253,145.901 212.603,146.741 214.348,147.581 215.767,148.421 216.973,149.261 218.021,150.101 218.947,150.941 219.771,151.781 220.509,152.621 221.173,153.461 221.771,154.301 222.311,155.141 222.796,155.981 223.231,156.821 223.62,157.661 223.965,158.501 224.269,159.341 224.533,160.181 224.759,161.021 224.949,161.861 225.103,162.701 225.221,163.541 225.306,164.381 225.356,165.221 225.373,166.061 224.533,171.941 223.693,174.292 222.853,176.036 222.013,177.456 221.173,178.661 220.333,179.71 219.493,180.635 218.653,181.459 217.813,182.197 216.973,182.861 216.133,183.46 215.293,183.999 214.453,184.484 213.613,184.919 212.773,185.308 211.933,185.653 211.093,185.957 210.253,186.221 209.413,186.448 208.573,186.637 207.733,186.791 206.893,186.91 206.053,186.994 205.213,187.045 204.373,187.061 198.493,186.221 196.143,185.381 194.399,184.541 192.979,183.701 191.773,182.861 190.725,182.021 189.8,181.181 188.976,180.341 188.237,179.501 187.573,178.661 186.975,177.821 186.436,176.981 185.95,176.141 185.515,175.301 185.126,174.461 184.781,173.621 184.477,172.781 184.213,171.941 183.987,171.101 183.797,170.261 183.644,169.421 183.525,168.581 183.44,167.741 183.39,166.901 " stroke="black" fill="green" stroke-width="0.1" />
<polygon points="78.3731,129.688 79.2131,123.808 80.0531,121.458 80.8931,119.714 81.7331,118.294 82.5731,117.088 83.4131,116.04 84.2531,115.115 85.0931,114.291 85.9331,113.553 86.7731,112.888 87.6131,112.29 88.4531,111.751 89.2931,111.266 90.1331,110.83 90.9731,110.442 91.8131,110.096 92.6531,109.793 93.4931,109.528 94.3331,109.302 95.1731,109.113 96.0131,108.959 96.8531,108.84 97.6931,108.756 98.5331,108.705 99.3731,108.688 105.253,109.528 107.603,110.368 109.348,111.208 110.767,112.048 111.973,112.888 113.021,113.728 113.947,114.568 114.771,115.408 115.509,116.248 116.173,117.088 116.771,117.928 117.311,118.768 117.796,119.608 118.231,120.448 118.62,121.288 118.965,122.128 119.269,122.968 119.533,123.808 119.759,124.648 119.949,125.488 120.103,126.328 120.221,127.168 120.306,128.008 120.356,128.848 120.373,129.688 119.533,135.568 118.693,137.919 117.853,139.663 117.013,141.083 116.173,142.288 115.333,143.337 114.493,144.262 113.653,145.086 112.813,145.824 111.973,146.488 111.133,147.087 110.293,147.626 109.453,148.111 108.613,148.546 107.773,148.935 106.933,149.28 106.093,149.584 105.253,149.848 104.413,150.075 103.573,150.264 102.733,150.418 101.893,150.537 101.053,150.621 100.213,150.672 99.3731,150.688 93.4931,149.848 91.1428,149.008 89.3986,148.168 87.9788,147.328 86.7731,146.488 85.7247,145.648 84.7996,144.808 83.9756,143.968 83.2372,143.128 82.5731,142.288 81.9747,141.448 81.4356,140.608 80.9504,139.768 80.5151,138.928 80.1262,138.088 79.7811,137.248 79.4773,136.408 79.2131,135.568 78.9868,134.728 78.7974,133.888 78.6436,133.048 78.5248,132.208 78.4404,131.368 78.3899,130.528 " stroke="black" fill="green" stroke-width="0.1" />
<polygon points="120.373,129.688 121.213,123.808 122.053,121.458 122.893,119.714 123.733,118.294 124.573,117.088 125.413,116.04 126.253,115.115 127.093,114.291 127.933,113.553 128.773,112.888 129.613,112.29 130.453,111.751 131.293,111.266 132.133,110.83 132.973,110.442 133.813,110.096 134.653,109.793 135.493,109.528 136.333,109.302 137.173,109.113 138.013,108.959 138.853,108.84 139.693,108.756 140.533,108.705 141.373,108.688 147.253,109.528 149.603,110.368 151.348,111.208 152.767,112.048 153.973,112.888 155.021,113.728 155.947,114.568 156.771,115.408 157.509,116.248 158.173,117.088 158.771,117.928 159.311,118.768 159.796,119.608 160.231,120.448 160.62,121.288 160.965,122.128 161.269,122.968 161.533,123.808 161.759,124.648 161.949,125.488 162.103,126.328 162.221,127.168 162.306,128.008 162.356,128.848 162.373,129.688 161.533,135.568 160.693,137.919 159.853,139.663 159.013,141.083 158.173,142.288 157.333,143.337 156.493,144.262 155.653,145.086 154.813,145.824 153.973,146.488 153.133,147.087 152.293,147.626 151.453,148.111 150.613,148.546 149.773,148.935 148.933,149.28 148.093,149.584 147.253,149.848 146.413,150.075 145.573,150.264 144.733,150.418 143.893,150.537 143.053,150.621 142.213,150.672 141.373,150.688 135.493,149.848 133.143,149.008 131.399,148.168 129.979,147.328 128.773,146.488 127.725,145.648 126.8,144.808 125.976,143.968 125.237,143.128 124.573,142.288 123.975,141.448 123.436,140.608 122.95,139.768 122.515,138.928 122.126,138.088 121.781,137.248 121.477,136.408 121.213,135.568 120.987,134.728 120.797,133.888 120.644,133.048 120.525,132.208 120.44,131.368 120.39,130.528 " stroke="black" fill="green" stroke-width="0.1" />
<polygon points="162.373,129.688 163.213,123.808 164.053,121.458 164.893,119.714 165.733,118.294 166.573,117.088 167.413,116.04 168.253,115.115 169.093,114.291 169.933,113.553 170.773,112.888 171.613,112.29 172.453,111.751 173.293,111.266 174.133,110.83 174.973,110.442 175.813,110.096 176.653,109.793 177.493,109.528 178.333,109.302 179.173,109.113 180.013,108.959 180.853,108.84 181.693,108.756 182.533,108.705 183.373,108.688 189.253,109.528 191.603,110.368 193.348,111.208 194.767,112.048 195.973,112.888 197.021,113.728 197.947,114.568 198.771,115.408 199.509,116.248 200.173,117.088 200.771,117.928 201.311,118.768 201.796,119.608 202.231,120.448 202.62,121.288 202.965,122.128 203.269,122.968 203.533,123.808 203.759,124.648 203.949,125.488 204.103,126.328 204.221,127.168 204.306,128.008 204.356,128.848 204.373,129.688 203.533,135.568 202.693,137.919 201.853,139.663 201.013,141.083 200.173,142.288 199.333,143.337 198.493,144.262 197.653,145.086 196.813,145.824 195.973,146.488 195.133,147.087 194.293,147.626 193.453,148.111 192.613,148.546 191.773,148.935 190.933,149.28 190.093,149.584 189.253,149.848 188.413,150.075 187.573,150.264 186.733,150.418 185.893,150.537 185.053,150.621 184.213,150.672 183.373,150.688 177.493,149.848 175.143,149.008 173.399,148.168 171.979,147.328 170.773,146.488 169.725,145.648 168.8,144.808 167.976,143.968 167.237,143.128 166.573,142.288 165.975,141.448 165.436,140.608 164.95,139.768 164.515,138.928 164.126,138.088 163.781,137.248 163.477,136.408 163.213,135.568 162.987,134.728 162.797,133.888 162.644,133.048 162.525,132.208 162.44,131.368 162.39,130.528 " stroke="black" fill="green" stroke-width="0.1" />
<polygon points="99.3731,93.3154 100.213,87.4354 101.053,85.0851 101.893,83.3409 102.733,81.921 103.573,80.7154 104.413,79.667 105.253,78.7419 106.093,77.9179 106.933,77.1795 107.773,76.5154 108.613,75.917 109.453,75.3779 110.293,74.8927 111.133,74.4574 111.973,74.0685 112.813,73.7234 113.653,73.4196 114.493,73.1554 115.333,72.9291 116.173,72.7396 117.013,72.5859 117.853,72.4671 118.693,72.3827 119.533,72.3322 120.373,72.3154 126.253,73.1554 128.603,73.9954 130.348,74.8354 131.767,75.6754 132.973,76.5154 134.021,77.3554 134.947,78.1954 135.771,79.0354 136.509,79.8754 137.173,80.7154 137.771,81.5554 138.311,82.3954 138.796,83.2354 139.231,84.0754 139.62,84.9154 139.965,85.7554 140.269,86.5954 140.533,87.4354 140.759,88.2754 140.949,89.1154 141.103,89.9554 141.221,90.7954 141.306,91.6354 141.356,92.4754 141.373,93.3154 140.533,99.1954 139.693,101.546 138.853,103.29 138.013,104.71 137.173,105.915 136.333,106.964 135.493,107.889 134.653,108.713 133.813,109.451 132.973,110.115 132.133,110.714 131.293,111.253 130.453,111.738 129.613,112.173 128.773,112.562 127.933,112.907 127.093,113.211 126.253,113.475 125.413,113.702 124.573,113.891 123.733,114.045 122.893,114.164 122.053,114.248 121.213,114.299 120.373,114.315 114.493,113.475 112.143,112.635 110.399,111.795 108.979,110.955 107.773,110.115 106.725,109.275 105.8,108.435 104.976,107.595 104.237,106.755 103.573,105.915 102.975,105.075 102.436,104.235 101.95,103.395 101.515,102.555 101.126,101.715 100.781,100.875 100.477,100.035 100.213,99.1954 99.9868,98.3554 99.7974,97.5154 99.6436,96.6754 99.5248,95.8354 99.4404,94.9954 99.3899,94.1554 " stroke="black" fill="green" stroke-width="0.1" />
<polygon points="141.373,93.3154 142.213,87.4354 143.053,85.0851 143.893,83.3409 144.733,81.921 145.573,80.7154 146.413,79.667 147.253,78.7419 148.093,77.9179 148.933,77.1795 149.773,76.5154 150.613,75.917 151.453,75.3779 152.293,74.8927 153.133,74.4574 153.973,74.0685 154.813,73.7234 155.653,73.4196 156.493,73.1554 157.333,72.9291 158.173,72.7396 159.013,72.5859 159.853,72.4671 160.693,72.3827 161.533,72.3322 162.373,72.3154 168.253,73.1554 170.603,73.9954 172.348,74.8354 173.767,75.6754 174.973,76.5154 176.021,77.3554 176.947,78.1954 177.771,79.0354 178.509,79.8754 179.173,80.7154 179.771,81.5554 180.311,82.3954 180.796,83.2354 181.231,84.0754 181.62,84.9154 181.965,85.7554 182.269,86.5954 182.533,87.4354 182.759,88.2754 182.949,89.1154 183.103,89.9554 183.221,90.7954 183.306,91.6354 183.356,92.4754 183.373,93.3154 182.533,99.1954 181.693,101.546 180.853,103.29 180.013,104.71 179.173,105.915 178.333,106.964 177.493,107.889 176.653,108.713 175.813,109.451 174.973,110.115 174.133,110.714 173.293,111.253 172.453,111.738 171.613,112.173 170.773,112.562 169.933,112.907 169.093,113.211 168.253,113.475 167.413,113.702 166.573,113.891 165.733,114.045 164.893,114.164 164.053,114.248 163.213,114.299 162.373,114.315 156.493,113.475 154.143,112.635 152.399,111.795 150.979,110.955 149.773,110.115 148.725,109.275 147.8,108.435 146.976,107.595 146.237,106.755 145.573,105.915 144.975,105.075 144.436,104.235 143.95,103.395 143.515,102.555 143.126,101.715 142.781,100.875 142.477,100.035 142.213,99.1954 141.987,98.3554 141.797,97.5154 141.644,96.6754 141.525,95.8354 141.44,94.9954 141.39,94.1554 " stroke="black" fill="green" stroke-width="0.1" />
<polygon points="120.373,56.9423 121.213,51.0623 122.053,48.712 122.893,46.9678 123.733,45.548 124.573,44.3423 125.413,43.2939 126.253,42.3688 127.093,41.5448 127.933,40.8064 128.773,40.1423 129.613,39.5439 130.453,39.0048 131.293,38.5196 132.133,38.0843 132.973,37.6955 133.813,37.3503 134.653,37.0465 135.493,36.7823 136.333,36.5561 137.173,36.3666 138.013,36.2128 138.853,36.094 139.693,36.0096 140.533,35.9591 141.373,35.9423 147.253,36.7823 149.603,37.6223 151.348,38.4623 152.767,39.3023 153.973,40.1423 155.021,40.9823 155.947,41.8223 156.771,42.6623 157.509,43.5023 158.173,44.3423 158.771,45.1823 159.311,46.0223 159.796,46.8623 160.231,47.7023 160.62,48.5423 160.965,49.3823 161.269,50.2223 161.533,51.0623 161.759,51.9023 161.949,52.7423 162.103,53.5823 162.221,54.4223 162.306,55.2623 162.356,56.1023 162.373,56.9423 161.533,62.8223 160.693,65.1726 159.853,66.9167 159.013,68.3366 158.173,69.5423 157.333,70.5907 156.493,71.5157 155.653,72.3397 154.813,73.0782 153.973,73.7423 153.133,74.3406 152.293,74.8798 151.453,75.3649 150.613,75.8002 149.773,76.1891 148.933,76.5343 148.093,76.8381 147.253,77.1023 146.413,77.3285 145.573,77.518 144.733,77.6717 143.893,77.7905 143.053,77.875 142.213,77.9255 141.373,77.9423 135.493,77.1023 133.143,76.2623 131.399,75.4223 129.979,74.5823 128.773,73.7423 127.725,72.9023 126.8,72.0623 125.976,71.2223 125.237,70.3823 124.573,69.5423 123.975,68.7023 123.436,67.8623 122.95,67.0223 122.515,66.1823 122.126,65.3423 121.781,64.5023 121.477,63.6623 121.213,62.8223 120.987,61.9823 120.797,61.1423 120.644,60.3023 120.525,59.4623 120.44,58.6223 120.39,57.7823 " stroke="black" fill="green" stroke-width="0.1" />
</svg>